<?xml version="1.0" standalone="no"?><!DOCTYPE svg PUBLIC "-//W3C//DTD SVG 1.1//EN" "http://www.w3.org/Graphics/SVG/1.1/DTD/svg11.dtd" ><svg xmlns="http://www.w3.org/2000/svg" width="5200" height="900" style="background:black">
<style>text{font:12px Arial;fill:#CDCDCD;-webkit-user-select:none;user-select:none}.bpm_mark{fill:#15CD15}</style>
<defs>
  <linearGradient id="line_hold_gradient"><stop offset="0%" stop-color="rgba(155,255,255,0.9)" /><stop offset="30%" stop-color="rgba(119,200,200,0.6)" /><stop offset="70%" stop-color="rgba(119,200,200,0.6)" /><stop offset="100%" stop-color="rgba(155,255,255,0.9)" /></linearGradient>
  <linearGradient id="line_scratch_gradient"><stop offset="0%" stop-color="rgba(228,128,255,0.9)" /><stop offset="30%" stop-color="rgba(151,83,215,0.6)" /><stop offset="70%" stop-color="rgba(151,83,215,0.6)" /><stop offset="100%" stop-color="rgba(228,128,255,0.9)" /></linearGradient>
  <g width="20" height="8" id="normal"  ><path d="M0,2v4a2,2,90,0,0,2,2h16a2,-2,90,0,0,2,-2v-4a-2,-2,90,0,0,-2,-2h-16a-2,2,90,0,0,-2,2" fill="rgb(253,98,163)" /><path d="M1,3v2a2,2,90,0,0,2,2h14a2,-2,90,0,0,2,-2v-2a-2,-2,90,0,0,-2,-2h-14a-2,2,90,0,0,-2,2" stroke="rgb(255,225,104)" fill="transparent" /></g>
  <g width="20" height="8" id="critical"><path d="M0,2v4a2,2,90,0,0,2,2h16a2,-2,90,0,0,2,-2v-4a-2,-2,90,0,0,-2,-2h-16a-2,2,90,0,0,-2,2" fill="rgb(254,166,43)" /><path d="M1,3v2a2,2,90,0,0,2,2h14a2,-2,90,0,0,2,-2v-2a-2,-2,90,0,0,-2,-2h-14a-2,2,90,0,0,-2,2" stroke="rgb(255,225,104)" fill="transparent" /></g>
  <g width="20" height="8" id="hold"    ><path d="M0,2v4a2,2,90,0,0,2,2h16a2,-2,90,0,0,2,-2v-4a-2,-2,90,0,0,-2,-2h-16a-2,2,90,0,0,-2,2" fill="rgb(18,155,250)" /><path d="M1,3v2a2,2,90,0,0,2,2h14a2,-2,90,0,0,2,-2v-2a-2,-2,90,0,0,-2,-2h-14a-2,2,90,0,0,-2,2" stroke="rgb(255,225,104)" fill="transparent" /></g>
  <g width="20" height="8" id="scratch" ><path d="M0,2v4a2,2,90,0,0,2,2h16a2,-2,90,0,0,2,-2v-4a-2,-2,90,0,0,-2,-2h-16a-2,2,90,0,0,-2,2" fill="rgb(129,59,236)" /><path d="M1,3v2a2,2,90,0,0,2,2h14a2,-2,90,0,0,2,-2v-2a-2,-2,90,0,0,-2,-2h-14a-2,2,90,0,0,-2,2" stroke="rgb(255,225,104)" fill="transparent" /></g>
  <g width="20" height="8" id="flick"   ><path d="M0,2v4a2,2,90,0,0,2,2h16a2,-2,90,0,0,2,-2v-4a-2,-2,90,0,0,-2,-2h-16a-2,2,90,0,0,-2,2" fill="rgb(129,59,236)" /><path d="M1,3v2a2,2,90,0,0,2,2h14a2,-2,90,0,0,2,-2v-2a-2,-2,90,0,0,-2,-2h-14a-2,2,90,0,0,-2,2" stroke="rgb(255,225,104)" fill="transparent" /><path d="M5,4h10" stroke="rgb(255,225,104)" /></g>
  <g width="20" height="12" id="scratch_arrow_left"><path d="M5,1l-4,6l4,6h3l-4,-6l4,-6zM11,1l-4,6l4,6h3l-4,-6l4,-6z" stroke="rgb(123,81,251)" fill="rgb(244,237,255)" /></g>
  <g width="20" height="12" id="scratch_arrow_right"><path d="M9,1l4,6l-4,6h-3l4,-6l-4,-6zM15,1l4,6l-4,6h-3l4,-6l-4,-6z" stroke="rgb(123,81,251)" fill="rgb(244,237,255)" /></g>
  <g width="20" height="12" id="scratch_arrow_both"><path d="M6,1l-4,6l4,6h3l-4,-6l4,-6zM14,1l4,6l-4,6h-3l4,-6l-4,-6z" stroke="rgb(123,81,251)" fill="rgb(244,237,255)" /></g>
  <g width="20" height="20" id="sound"><path d="M10,1l3,7l7,3l-7,3l-3,7l-3,-7l-7,-3l7,-3l3,-7" stroke="rgb(56,173,198)" fill="rgb(147,243,252)" /></g>
  <g width="20" height="20" id="sound_purple"><path d="M10,1l3,7l7,3l-7,3l-3,7l-3,-7l-7,-3l7,-3l3,-7" stroke="rgb(121,77,211)" fill="rgb(197,146,253)" /></g>
  <g width="20" height="20" id="line_hold"><path d="M0,0h20v20h-20z" fill="url('#line_hold_gradient')" /></g>
  <g width="20" height="20" id="line_scratch"><path d="M0,0h20v20h-20z" fill="url('#line_scratch_gradient')" /></g>
  <g id="beat_section" width="160" height="160"><path d="M20,0v160M140,0v160M0,0" stroke="#CCCCCC" /><path d="M40,0v160M60,0v160M80,0v160M100,0v160M120,0v160M0,0" stroke="#444444" /></g>
  <g id="beat_section_top" width="160" height="160"><path d="M20,0v160M140,0v160M0,0" stroke="#CCCCCC" /><path d="M20,0h120M40,0v160M60,0v160M80,0v160M100,0v160M120,0v160M0,0" stroke="#444444" /></g>
  <g id="beat_section_bottom" width="160" height="160"><path d="M20,0v160M140,0v160M0,0" stroke="#CCCCCC" /><path d="M20,160h120M40,0v160M60,0v160M80,0v160M100,0v160M120,0v160M0,0" stroke="#444444" /></g>
</defs>
<g class="bg_layer">
<use href="#beat_section_bottom" x="30" y="690.0" />
<use href="#beat_section" x="30" y="530.0" />
<use href="#beat_section" x="30" y="370.0" />
<use href="#beat_section" x="30" y="210.0" />
<use href="#beat_section_top" x="30" y="50.0" />
<use href="#beat_section_bottom" x="230" y="690.0" />
<use href="#beat_section" x="230" y="530.0" />
<use href="#beat_section" x="230" y="370.0" />
<use href="#beat_section" x="230" y="210.0" />
<use href="#beat_section_top" x="230" y="50.0" />
<use href="#beat_section_bottom" x="430" y="690.0" />
<use href="#beat_section" x="430" y="530.0" />
<use href="#beat_section" x="430" y="370.0" />
<use href="#beat_section" x="430" y="210.0" />
<use href="#beat_section_top" x="430" y="50.0" />
<use href="#beat_section_bottom" x="630" y="690.0" />
<use href="#beat_section" x="630" y="530.0" />
<use href="#beat_section" x="630" y="370.0" />
<use href="#beat_section" x="630" y="210.0" />
<use href="#beat_section_top" x="630" y="50.0" />
<use href="#beat_section_bottom" x="830" y="690.0" />
<use href="#beat_section" x="830" y="530.0" />
<use href="#beat_section" x="830" y="370.0" />
<use href="#beat_section" x="830" y="210.0" />
<use href="#beat_section_top" x="830" y="50.0" />
<use href="#beat_section_bottom" x="1030" y="690.0" />
<use href="#beat_section" x="1030" y="530.0" />
<use href="#beat_section" x="1030" y="370.0" />
<use href="#beat_section" x="1030" y="210.0" />
<use href="#beat_section_top" x="1030" y="50.0" />
<use href="#beat_section_bottom" x="1230" y="690.0" />
<use href="#beat_section" x="1230" y="530.0" />
<use href="#beat_section" x="1230" y="370.0" />
<use href="#beat_section" x="1230" y="210.0" />
<use href="#beat_section_top" x="1230" y="50.0" />
<use href="#beat_section_bottom" x="1430" y="690.0" />
<use href="#beat_section" x="1430" y="530.0" />
<use href="#beat_section" x="1430" y="370.0" />
<use href="#beat_section" x="1430" y="210.0" />
<use href="#beat_section_top" x="1430" y="50.0" />
<use href="#beat_section_bottom" x="1630" y="690.0" />
<use href="#beat_section" x="1630" y="530.0" />
<use href="#beat_section" x="1630" y="370.0" />
<use href="#beat_section" x="1630" y="210.0" />
<use href="#beat_section_top" x="1630" y="50.0" />
<use href="#beat_section_bottom" x="1830" y="690.0" />
<use href="#beat_section" x="1830" y="530.0" />
<use href="#beat_section" x="1830" y="370.0" />
<use href="#beat_section" x="1830" y="210.0" />
<use href="#beat_section_top" x="1830" y="50.0" />
<use href="#beat_section_bottom" x="2030" y="690.0" />
<use href="#beat_section" x="2030" y="530.0" />
<use href="#beat_section" x="2030" y="370.0" />
<use href="#beat_section" x="2030" y="210.0" />
<use href="#beat_section_top" x="2030" y="50.0" />
<use href="#beat_section_bottom" x="2230" y="690.0" />
<use href="#beat_section" x="2230" y="530.0" />
<use href="#beat_section" x="2230" y="370.0" />
<use href="#beat_section" x="2230" y="210.0" />
<use href="#beat_section_top" x="2230" y="50.0" />
<use href="#beat_section_bottom" x="2430" y="690.0" />
<use href="#beat_section" x="2430" y="530.0" />
<use href="#beat_section" x="2430" y="370.0" />
<use href="#beat_section" x="2430" y="210.0" />
<use href="#beat_section_top" x="2430" y="50.0" />
<use href="#beat_section_bottom" x="2630" y="690.0" />
<use href="#beat_section" x="2630" y="530.0" />
<use href="#beat_section" x="2630" y="370.0" />
<use href="#beat_section" x="2630" y="210.0" />
<use href="#beat_section_top" x="2630" y="50.0" />
<use href="#beat_section_bottom" x="2830" y="690.0" />
<use href="#beat_section" x="2830" y="530.0" />
<use href="#beat_section" x="2830" y="370.0" />
<use href="#beat_section" x="2830" y="210.0" />
<use href="#beat_section_top" x="2830" y="50.0" />
<use href="#beat_section_bottom" x="3030" y="690.0" />
<use href="#beat_section" x="3030" y="530.0" />
<use href="#beat_section" x="3030" y="370.0" />
<use href="#beat_section" x="3030" y="210.0" />
<use href="#beat_section_top" x="3030" y="50.0" />
<use href="#beat_section_bottom" x="3230" y="690.0" />
<use href="#beat_section" x="3230" y="530.0" />
<use href="#beat_section" x="3230" y="370.0" />
<use href="#beat_section" x="3230" y="210.0" />
<use href="#beat_section_top" x="3230" y="50.0" />
<use href="#beat_section_bottom" x="3430" y="690.0" />
<use href="#beat_section" x="3430" y="530.0" />
<use href="#beat_section" x="3430" y="370.0" />
<use href="#beat_section" x="3430" y="210.0" />
<use href="#beat_section_top" x="3430" y="50.0" />
<use href="#beat_section_bottom" x="3630" y="690.0" />
<use href="#beat_section" x="3630" y="530.0" />
<use href="#beat_section" x="3630" y="370.0" />
<use href="#beat_section" x="3630" y="210.0" />
<use href="#beat_section_top" x="3630" y="50.0" />
<use href="#beat_section_bottom" x="3830" y="690.0" />
<use href="#beat_section" x="3830" y="530.0" />
<use href="#beat_section" x="3830" y="370.0" />
<use href="#beat_section" x="3830" y="210.0" />
<use href="#beat_section_top" x="3830" y="50.0" />
<use href="#beat_section_bottom" x="4030" y="690.0" />
<use href="#beat_section" x="4030" y="530.0" />
<use href="#beat_section" x="4030" y="370.0" />
<use href="#beat_section" x="4030" y="210.0" />
<use href="#beat_section_top" x="4030" y="50.0" />
<use href="#beat_section_bottom" x="4230" y="690.0" />
<use href="#beat_section" x="4230" y="530.0" />
<use href="#beat_section" x="4230" y="370.0" />
<use href="#beat_section" x="4230" y="210.0" />
<use href="#beat_section_top" x="4230" y="50.0" />
<use href="#beat_section_bottom" x="4430" y="690.0" />
<use href="#beat_section" x="4430" y="530.0" />
<use href="#beat_section" x="4430" y="370.0" />
<use href="#beat_section" x="4430" y="210.0" />
<use href="#beat_section_top" x="4430" y="50.0" />
<use href="#beat_section_bottom" x="4630" y="690.0" />
<use href="#beat_section" x="4630" y="530.0" />
<use href="#beat_section" x="4630" y="370.0" />
<use href="#beat_section" x="4630" y="210.0" />
<use href="#beat_section_top" x="4630" y="50.0" />
<use href="#beat_section_bottom" x="4830" y="690.0" />
<use href="#beat_section" x="4830" y="530.0" />
<use href="#beat_section" x="4830" y="370.0" />
<use href="#beat_section" x="4830" y="210.0" />
<use href="#beat_section_top" x="4830" y="50.0" />
<use href="#beat_section_bottom" x="5030" y="690.0" />
<use href="#beat_section" x="5030" y="530.0" />
<use href="#beat_section_top" x="5030" y="370.0" />
</g>
<g class="custom_line_layer">
</g>
<g class="sync_line_layer">
<path d="M2450,106h120" stroke="#606060" />
<path d="M3250,101h120" stroke="#606060" />
<path d="M3650,719h120" stroke="#606060" />
<path d="M4450,226h120" stroke="#606060" />
</g>
<g class="line_layer">
<use href="#line_hold" x="50.0" y="595.0" b1="0.0" b2="1.5895" style="transform:scaleX(2.0) scaleY(12.75);transform-origin:50.0px 595.0px" />
<use href="#line_hold" x="110.0" y="102.0" b1="3.1302" b2="4.675" style="transform:scaleX(2.0) scaleY(12.35);transform-origin:110.0px 102.0px" />
<use href="#line_hold" x="270.0" y="403.0" b1="6.2345" b2="7.7932" style="transform:scaleX(2.0) scaleY(12.45);transform-origin:270.0px 403.0px" />
<use href="#line_hold" x="330.0" y="50.0" b1="9.3224" b2="10" style="transform:scaleX(2.0) scaleY(5.4);transform-origin:330.0px 50.0px" />
<use href="#line_hold" x="530.0" y="714.0" b1="10" b2="10.8464" style="transform:scaleX(2.0) scaleY(6.8);transform-origin:530.0px 714.0px" />
<use href="#line_hold" x="670.0" y="526.0" b1="15.4853" b2="17.0237" style="transform:scaleX(2.0) scaleY(12.3);transform-origin:670.0px 526.0px" />
<use href="#line_hold" x="910.0" y="346.0" b1="21.6294" b2="23.1484" style="transform:scaleX(2.0) scaleY(12.15);transform-origin:910.0px 346.0px" />
<use href="#line_hold" x="1270.0" y="224.0" b1="30.831" b2="33.9079" style="transform:scaleX(2.0) scaleY(24.65);transform-origin:1270.0px 224.0px" />
<use href="#line_hold" x="1450.0" y="285.0" b1="36.9656" b2="38.5251" style="transform:scaleX(2.0) scaleY(12.5);transform-origin:1450.0px 285.0px" />
<use href="#line_hold" x="1730.0" y="590.0" b1="40.104" b2="41.6232" style="transform:scaleX(2.0) scaleY(12.15);transform-origin:1730.0px 590.0px" />
<use href="#line_hold" x="1670.0" y="94.0" b1="43.1525" b2="44.7217" style="transform:scaleX(2.0) scaleY(12.55);transform-origin:1670.0px 94.0px" />
<use href="#line_hold" x="1910.0" y="409.0" b1="46.2138" b2="47.7523" style="transform:scaleX(2.0) scaleY(12.3);transform-origin:1910.0px 409.0px" />
<use href="#line_hold" x="2050.0" y="223.0" b1="52.3879" b2="53.9159" style="transform:scaleX(2.0) scaleY(12.2);transform-origin:2050.0px 223.0px" />
<use href="#line_hold" x="2330.0" y="50.0" b1="58.5773" b2="60" style="transform:scaleX(2.0) scaleY(11.35);transform-origin:2330.0px 50.0px" />
<use href="#line_hold" x="2530.0" y="592.0" b1="60" b2="61.6085" style="transform:scaleX(2.0) scaleY(12.9);transform-origin:2530.0px 592.0px" />
<use href="#line_hold" x="2650.0" y="164.0" b1="67.7254" b2="69.2852" style="transform:scaleX(3.0) scaleY(12.45);transform-origin:2650.0px 164.0px" />
<use href="#line_hold" x="2910.0" y="50.0" b1="73.893" b2="75" style="transform:scaleX(3.0) scaleY(8.85);transform-origin:2910.0px 50.0px" />
<use href="#line_hold" x="3110.0" y="777.0" b1="75" b2="75.4515" style="transform:scaleX(3.0) scaleY(3.65);transform-origin:3110.0px 777.0px" />
<use href="#line_hold" x="3250.0" y="600.0" b1="80.0609" b2="81.5612" style="transform:scaleX(3.0) scaleY(12.0);transform-origin:3250.0px 600.0px" />
<use href="#line_hold" x="3510.0" y="165.0" b1="86.2016" b2="89.2785" style="transform:scaleX(3.0) scaleY(24.6);transform-origin:3510.0px 165.0px" />
<use href="#line_hold" x="3650.0" y="50.0" b1="93.8939" b2="95" style="transform:scaleX(3.0) scaleY(8.8);transform-origin:3650.0px 50.0px" />
<use href="#line_hold" x="3850.0" y="786.0" b1="95" b2="95.396" style="transform:scaleX(3.0) scaleY(3.2);transform-origin:3850.0px 786.0px" />
<use href="#line_hold" x="4110.0" y="601.0" b1="100.0625" b2="101.5533" style="transform:scaleX(3.0) scaleY(11.95);transform-origin:4110.0px 601.0px" />
<use href="#line_hold" x="4310.0" y="414.0" b1="106.1815" b2="107.7244" style="transform:scaleX(3.0) scaleY(12.3);transform-origin:4310.0px 414.0px" />
<use href="#line_hold" x="4450.0" y="226.0" b1="112.353" b2="113.8995" style="transform:scaleX(3.0) scaleY(12.35);transform-origin:4450.0px 226.0px" />
<use href="#line_hold" x="4710.0" y="526.0" b1="115.4076" b2="117.0227" style="transform:scaleX(3.0) scaleY(12.9);transform-origin:4710.0px 526.0px" />
<use href="#line_hold" x="4910.0" y="50.0" b1="120.206" b2="125" style="transform:scaleX(3.0) scaleY(38.35);transform-origin:4910.0px 50.0px" />
<use href="#line_hold" x="5110.0" y="570.0" b1="125" b2="126.7444" style="transform:scaleX(3.0) scaleY(14.0);transform-origin:5110.0px 570.0px" />
<use href="#sound" x="1280.0" y="460.0" />
<use href="#sound" x="2540.0" y="832.0" />
</g>
<g class="note_layer">
<use href="#hold" x="50.0" y="846.0" style="transform:scaleX(2.0);transform-origin:50.0px 846.0px" />
<use href="#hold" x="50.0" y="591.0" style="transform:scaleX(2.0);transform-origin:50.0px 591.0px" />
<use href="#hold" x="110.0" y="345.0" style="transform:scaleX(2.0);transform-origin:110.0px 345.0px" />
<use href="#hold" x="110.0" y="98.0" style="transform:scaleX(2.0);transform-origin:110.0px 98.0px" />
<use href="#hold" x="270.0" y="648.0" style="transform:scaleX(2.0);transform-origin:270.0px 648.0px" />
<use href="#hold" x="270.0" y="399.0" style="transform:scaleX(2.0);transform-origin:270.0px 399.0px" />
<use href="#hold" x="330.0" y="154.0" style="transform:scaleX(2.0);transform-origin:330.0px 154.0px" />
<use href="#hold" x="530.0" y="710.0" style="transform:scaleX(2.0);transform-origin:530.0px 710.0px" />
<use href="#normal" x="450.0" y="459.0" style="transform:scaleX(2.0);transform-origin:450.0px 459.0px" />
<use href="#normal" x="510.0" y="216.0" style="transform:scaleX(2.0);transform-origin:510.0px 216.0px" />
<use href="#hold" x="670.0" y="768.0" style="transform:scaleX(2.0);transform-origin:670.0px 768.0px" />
<use href="#hold" x="670.0" y="522.0" style="transform:scaleX(2.0);transform-origin:670.0px 522.0px" />
<use href="#normal" x="730.0" y="276.0" style="transform:scaleX(2.0);transform-origin:730.0px 276.0px" />
<use href="#normal" x="870.0" y="829.0" style="transform:scaleX(2.0);transform-origin:870.0px 829.0px" />
<use href="#hold" x="910.0" y="585.0" style="transform:scaleX(2.0);transform-origin:910.0px 585.0px" />
<use href="#hold" x="910.0" y="342.0" style="transform:scaleX(2.0);transform-origin:910.0px 342.0px" />
<use href="#normal" x="850.0" y="97.0" style="transform:scaleX(2.0);transform-origin:850.0px 97.0px" />
<use href="#normal" x="1110.0" y="651.0" style="transform:scaleX(2.0);transform-origin:1110.0px 651.0px" />
<use href="#normal" x="1070.0" y="405.0" style="transform:scaleX(2.0);transform-origin:1070.0px 405.0px" />
<use href="#normal" x="1130.0" y="159.0" style="transform:scaleX(2.0);transform-origin:1130.0px 159.0px" />
<use href="#hold" x="1270.0" y="713.0" style="transform:scaleX(2.0);transform-origin:1270.0px 713.0px" />
<use href="#hold" x="1270.0" y="220.0" style="transform:scaleX(2.0);transform-origin:1270.0px 220.0px" />
<use href="#hold" x="1450.0" y="531.0" style="transform:scaleX(2.0);transform-origin:1450.0px 531.0px" />
<use href="#hold" x="1450.0" y="281.0" style="transform:scaleX(2.0);transform-origin:1450.0px 281.0px" />
<use href="#hold" x="1730.0" y="829.0" style="transform:scaleX(2.0);transform-origin:1730.0px 829.0px" />
<use href="#hold" x="1730.0" y="586.0" style="transform:scaleX(2.0);transform-origin:1730.0px 586.0px" />
<use href="#hold" x="1670.0" y="341.0" style="transform:scaleX(2.0);transform-origin:1670.0px 341.0px" />
<use href="#hold" x="1670.0" y="90.0" style="transform:scaleX(2.0);transform-origin:1670.0px 90.0px" />
<use href="#hold" x="1910.0" y="651.0" style="transform:scaleX(2.0);transform-origin:1910.0px 651.0px" />
<use href="#hold" x="1910.0" y="405.0" style="transform:scaleX(2.0);transform-origin:1910.0px 405.0px" />
<use href="#normal" x="1850.0" y="157.0" style="transform:scaleX(2.0);transform-origin:1850.0px 157.0px" />
<use href="#normal" x="2110.0" y="715.0" style="transform:scaleX(2.0);transform-origin:2110.0px 715.0px" />
<use href="#hold" x="2050.0" y="463.0" style="transform:scaleX(2.0);transform-origin:2050.0px 463.0px" />
<use href="#hold" x="2050.0" y="219.0" style="transform:scaleX(2.0);transform-origin:2050.0px 219.0px" />
<use href="#normal" x="2330.0" y="778.0" style="transform:scaleX(2.0);transform-origin:2330.0px 778.0px" />
<use href="#normal" x="2270.0" y="529.0" style="transform:scaleX(2.0);transform-origin:2270.0px 529.0px" />
<use href="#hold" x="2330.0" y="273.0" style="transform:scaleX(2.0);transform-origin:2330.0px 273.0px" />
<use href="#hold" x="2530.0" y="588.0" style="transform:scaleX(2.0);transform-origin:2530.0px 588.0px" />
<use href="#normal" x="2510.0" y="102.0" style="transform:scaleX(3.0);transform-origin:2510.0px 102.0px" />
<use href="#hold" x="2650.0" y="409.0" style="transform:scaleX(3.0);transform-origin:2650.0px 409.0px" />
<use href="#hold" x="2650.0" y="160.0" style="transform:scaleX(3.0);transform-origin:2650.0px 160.0px" />
<use href="#normal" x="2850.0" y="710.0" style="transform:scaleX(3.0);transform-origin:2850.0px 710.0px" />
<use href="#hold" x="2910.0" y="223.0" style="transform:scaleX(3.0);transform-origin:2910.0px 223.0px" />
<use href="#hold" x="3110.0" y="773.0" style="transform:scaleX(3.0);transform-origin:3110.0px 773.0px" />
<use href="#normal" x="3110.0" y="525.0" style="transform:scaleX(3.0);transform-origin:3110.0px 525.0px" />
<use href="#normal" x="3110.0" y="280.0" style="transform:scaleX(3.0);transform-origin:3110.0px 280.0px" />
<use href="#hold" x="3250.0" y="836.0" style="transform:scaleX(3.0);transform-origin:3250.0px 836.0px" />
<use href="#hold" x="3250.0" y="596.0" style="transform:scaleX(3.0);transform-origin:3250.0px 596.0px" />
<use href="#normal" x="3250.0" y="343.0" style="transform:scaleX(3.0);transform-origin:3250.0px 343.0px" />
<use href="#normal" x="3250.0" y="97.0" style="transform:scaleX(3.0);transform-origin:3250.0px 97.0px" />
<use href="#hold" x="3510.0" y="653.0" style="transform:scaleX(3.0);transform-origin:3510.0px 653.0px" />
<use href="#hold" x="3510.0" y="161.0" style="transform:scaleX(3.0);transform-origin:3510.0px 161.0px" />
<use href="#critical" x="3650.0" y="715.0" style="transform:scaleX(3.0);transform-origin:3650.0px 715.0px" />
<use href="#normal" x="3710.0" y="469.0" style="transform:scaleX(3.0);transform-origin:3710.0px 469.0px" />
<use href="#hold" x="3650.0" y="222.0" style="transform:scaleX(3.0);transform-origin:3650.0px 222.0px" />
<use href="#hold" x="3850.0" y="782.0" style="transform:scaleX(3.0);transform-origin:3850.0px 782.0px" />
<use href="#critical" x="3910.0" y="530.0" style="transform:scaleX(3.0);transform-origin:3910.0px 530.0px" />
<use href="#normal" x="3850.0" y="287.0" style="transform:scaleX(3.0);transform-origin:3850.0px 287.0px" />
<use href="#hold" x="4110.0" y="836.0" style="transform:scaleX(3.0);transform-origin:4110.0px 836.0px" />
<use href="#hold" x="4110.0" y="597.0" style="transform:scaleX(3.0);transform-origin:4110.0px 597.0px" />
<use href="#critical" x="4050.0" y="350.0" style="transform:scaleX(3.0);transform-origin:4050.0px 350.0px" />
<use href="#normal" x="4110.0" y="227.0" style="transform:scaleX(3.0);transform-origin:4110.0px 227.0px" />
<use href="#normal" x="4050.0" y="103.0" style="transform:scaleX(3.0);transform-origin:4050.0px 103.0px" />
<use href="#hold" x="4310.0" y="656.0" style="transform:scaleX(3.0);transform-origin:4310.0px 656.0px" />
<use href="#hold" x="4310.0" y="410.0" style="transform:scaleX(3.0);transform-origin:4310.0px 410.0px" />
<use href="#critical" x="4310.0" y="163.0" style="transform:scaleX(3.0);transform-origin:4310.0px 163.0px" />
<use href="#normal" x="4450.0" y="839.0" style="transform:scaleX(3.0);transform-origin:4450.0px 839.0px" />
<use href="#normal" x="4250.0" y="39.0" style="transform:scaleX(3.0);transform-origin:4250.0px 39.0px" />
<use href="#normal" x="4510.0" y="716.0" style="transform:scaleX(3.0);transform-origin:4510.0px 716.0px" />
<use href="#hold" x="4450.0" y="469.0" style="transform:scaleX(3.0);transform-origin:4450.0px 469.0px" />
<use href="#hold" x="4450.0" y="222.0" style="transform:scaleX(3.0);transform-origin:4450.0px 222.0px" />
<use href="#hold" x="4710.0" y="780.0" style="transform:scaleX(3.0);transform-origin:4710.0px 780.0px" />
<use href="#hold" x="4710.0" y="522.0" style="transform:scaleX(3.0);transform-origin:4710.0px 522.0px" />
<use href="#normal" x="4650.0" y="278.0" style="transform:scaleX(3.0);transform-origin:4650.0px 278.0px" />
<use href="#critical" x="4910.0" y="813.0" style="transform:scaleX(3.0);transform-origin:4910.0px 813.0px" />
<use href="#hold" x="5110.0" y="566.0" style="transform:scaleX(3.0);transform-origin:5110.0px 566.0px" />
</g>
<g class="arrow_layer">
</g>
<g class="split_layer">
<path d="M4450,850 V386" stroke="rgba(100%,100%,100%,50.0%)" stroke-width="3" />
<path d="M4510.0,850 V386" stroke="rgba(100%,100%,100%,50.0%)" stroke-width="3" />
<path d="M4570.0,850 V386" stroke="rgba(100%,100%,100%,50.0%)" stroke-width="3" />
<path d="M3448.5,-81.0v160.0h3v-160.0z" fill="url(#split_fadein_0)" clip-path="url(#split_fadeout_clip)" />
<path d="M3648.5,719.0v160.0h3v-160.0z" fill="url(#split_fadein_0)" clip-path="url(#split_fadeout_clip)" />
<path d="M3508.5,-81.0v160.0h3v-160.0z" fill="url(#split_fadein_1)" clip-path="url(#split_fadeout_clip)" />
<path d="M3708.5,719.0v160.0h3v-160.0z" fill="url(#split_fadein_1)" clip-path="url(#split_fadeout_clip)" />
<path d="M3568.5,-81.0v160.0h3v-160.0z" fill="url(#split_fadein_1)" clip-path="url(#split_fadeout_clip)" />
<path d="M3768.5,719.0v160.0h3v-160.0z" fill="url(#split_fadein_1)" clip-path="url(#split_fadeout_clip)" />
<path d="M4448.5,226.0v160.0h3v-160.0z" fill="url(#split_fadeout_0)" />
<path d="M4508.5,226.0v160.0h3v-160.0z" fill="url(#split_fadeout_1)" />
<path d="M4568.5,226.0v160.0h3v-160.0z" fill="url(#split_fadeout_1)" />
<path d="M4250,850 V50" stroke="rgba(100%,100%,100%,50.0%)" stroke-width="3" />
<path d="M4310.0,850 V50" stroke="rgba(100%,100%,100%,50.0%)" stroke-width="3" />
<path d="M4370.0,850 V50" stroke="rgba(100%,100%,100%,50.0%)" stroke-width="3" />
<path d="M4050,850 V50" stroke="rgba(100%,100%,100%,50.0%)" stroke-width="3" />
<path d="M4110.0,850 V50" stroke="rgba(100%,100%,100%,50.0%)" stroke-width="3" />
<path d="M4170.0,850 V50" stroke="rgba(100%,100%,100%,50.0%)" stroke-width="3" />
<path d="M3850,850 V50" stroke="rgba(100%,100%,100%,50.0%)" stroke-width="3" />
<path d="M3910.0,850 V50" stroke="rgba(100%,100%,100%,50.0%)" stroke-width="3" />
<path d="M3970.0,850 V50" stroke="rgba(100%,100%,100%,50.0%)" stroke-width="3" />
<path d="M3650,719 V50" stroke="rgba(100%,100%,100%,50.0%)" stroke-width="3" />
<path d="M3710.0,719 V50" stroke="rgba(100%,100%,100%,50.0%)" stroke-width="3" />
<path d="M3770.0,719 V50" stroke="rgba(100%,100%,100%,50.0%)" stroke-width="3" />
<path d="M3250,850 V261" stroke="rgba(100%,100%,100%,50.0%)" stroke-width="3" />
<path d="M3310.0,850 V261" stroke="rgba(100%,100%,100%,50.0%)" stroke-width="3" />
<path d="M3370.0,850 V261" stroke="rgba(100%,100%,100%,50.0%)" stroke-width="3" />
<path d="M2448.5,106.0v160.0h3v-160.0z" fill="url(#split_fadein_1)" />
<path d="M2508.5,106.0v160.0h3v-160.0z" fill="url(#split_fadein_1)" />
<path d="M2568.5,106.0v160.0h3v-160.0z" fill="url(#split_fadein_1)" />
<path d="M3248.5,101.0v160.0h3v-160.0z" fill="url(#split_fadeout_1)" />
<path d="M3308.5,101.0v160.0h3v-160.0z" fill="url(#split_fadeout_1)" />
<path d="M3368.5,101.0v160.0h3v-160.0z" fill="url(#split_fadeout_1)" />
<path d="M3050,850 V50" stroke="rgba(100%,100%,100%,50.0%)" stroke-width="3" />
<path d="M3110.0,850 V50" stroke="rgba(100%,100%,100%,50.0%)" stroke-width="3" />
<path d="M3170.0,850 V50" stroke="rgba(100%,100%,100%,50.0%)" stroke-width="3" />
<path d="M2850,850 V50" stroke="rgba(100%,100%,100%,50.0%)" stroke-width="3" />
<path d="M2910.0,850 V50" stroke="rgba(100%,100%,100%,50.0%)" stroke-width="3" />
<path d="M2970.0,850 V50" stroke="rgba(100%,100%,100%,50.0%)" stroke-width="3" />
<path d="M2650,850 V50" stroke="rgba(100%,100%,100%,50.0%)" stroke-width="3" />
<path d="M2710.0,850 V50" stroke="rgba(100%,100%,100%,50.0%)" stroke-width="3" />
<path d="M2770.0,850 V50" stroke="rgba(100%,100%,100%,50.0%)" stroke-width="3" />
<path d="M2450,106 V50" stroke="rgba(100%,100%,100%,50.0%)" stroke-width="3" />
<path d="M2510.0,106 V50" stroke="rgba(100%,100%,100%,50.0%)" stroke-width="3" />
<path d="M2570.0,106 V50" stroke="rgba(100%,100%,100%,50.0%)" stroke-width="3" />
<defs>
<linearGradient id="split_fadein_id" x2="0" y1="100%" y2="0">color</linearGradient>
<linearGradient id="split_fadeout_id" x2="0" y2="100%">color</linearGradient>
<clipPath id="split_fadeout_clip"><rect x="50" y="50" width="5100" height="800" /></clipPath>
</defs>
</g>
<g class="text_mark_layer">
<text class="second_mark" x="175" y="850.0">seconds</text>
<text class="second_mark" x="175" y="690.0">1</text>
<text class="second_mark" x="175" y="530.0">2</text>
<text class="second_mark" x="175" y="370.0">3</text>
<text class="second_mark" x="175" y="210.0">4</text>
<text class="second_mark" x="375" y="850.0">5</text>
<text class="second_mark" x="375" y="690.0">6</text>
<text class="second_mark" x="375" y="530.0">7</text>
<text class="second_mark" x="375" y="370.0">8</text>
<text class="second_mark" x="375" y="210.0">9</text>
<text class="second_mark" x="575" y="850.0">10</text>
<text class="second_mark" x="575" y="690.0">11</text>
<text class="second_mark" x="575" y="530.0">12</text>
<text class="second_mark" x="575" y="370.0">13</text>
<text class="second_mark" x="575" y="210.0">14</text>
<text class="second_mark" x="775" y="850.0">15</text>
<text class="second_mark" x="775" y="690.0">16</text>
<text class="second_mark" x="775" y="530.0">17</text>
<text class="second_mark" x="775" y="370.0">18</text>
<text class="second_mark" x="775" y="210.0">19</text>
<text class="second_mark" x="975" y="850.0">20</text>
<text class="second_mark" x="975" y="690.0">21</text>
<text class="second_mark" x="975" y="530.0">22</text>
<text class="second_mark" x="975" y="370.0">23</text>
<text class="second_mark" x="975" y="210.0">24</text>
<text class="second_mark" x="1175" y="850.0">25</text>
<text class="second_mark" x="1175" y="690.0">26</text>
<text class="second_mark" x="1175" y="530.0">27</text>
<text class="second_mark" x="1175" y="370.0">28</text>
<text class="second_mark" x="1175" y="210.0">29</text>
<text class="second_mark" x="1375" y="850.0">30</text>
<text class="second_mark" x="1375" y="690.0">31</text>
<text class="second_mark" x="1375" y="530.0">32</text>
<text class="second_mark" x="1375" y="370.0">33</text>
<text class="second_mark" x="1375" y="210.0">34</text>
<text class="second_mark" x="1575" y="850.0">35</text>
<text class="second_mark" x="1575" y="690.0">36</text>
<text class="second_mark" x="1575" y="530.0">37</text>
<text class="second_mark" x="1575" y="370.0">38</text>
<text class="second_mark" x="1575" y="210.0">39</text>
<text class="second_mark" x="1775" y="850.0">40</text>
<text class="second_mark" x="1775" y="690.0">41</text>
<text class="second_mark" x="1775" y="530.0">42</text>
<text class="second_mark" x="1775" y="370.0">43</text>
<text class="second_mark" x="1775" y="210.0">44</text>
<text class="second_mark" x="1975" y="850.0">45</text>
<text class="second_mark" x="1975" y="690.0">46</text>
<text class="second_mark" x="1975" y="530.0">47</text>
<text class="second_mark" x="1975" y="370.0">48</text>
<text class="second_mark" x="1975" y="210.0">49</text>
<text class="second_mark" x="2175" y="850.0">50</text>
<text class="second_mark" x="2175" y="690.0">51</text>
<text class="second_mark" x="2175" y="530.0">52</text>
<text class="second_mark" x="2175" y="370.0">53</text>
<text class="second_mark" x="2175" y="210.0">54</text>
<text class="second_mark" x="2375" y="850.0">55</text>
<text class="second_mark" x="2375" y="690.0">56</text>
<text class="second_mark" x="2375" y="530.0">57</text>
<text class="second_mark" x="2375" y="370.0">58</text>
<text class="second_mark" x="2375" y="210.0">59</text>
<text class="second_mark" x="2575" y="850.0">60</text>
<text class="second_mark" x="2575" y="690.0">61</text>
<text class="second_mark" x="2575" y="530.0">62</text>
<text class="second_mark" x="2575" y="370.0">63</text>
<text class="second_mark" x="2575" y="210.0">64</text>
<text class="second_mark" x="2775" y="850.0">65</text>
<text class="second_mark" x="2775" y="690.0">66</text>
<text class="second_mark" x="2775" y="530.0">67</text>
<text class="second_mark" x="2775" y="370.0">68</text>
<text class="second_mark" x="2775" y="210.0">69</text>
<text class="second_mark" x="2975" y="850.0">70</text>
<text class="second_mark" x="2975" y="690.0">71</text>
<text class="second_mark" x="2975" y="530.0">72</text>
<text class="second_mark" x="2975" y="370.0">73</text>
<text class="second_mark" x="2975" y="210.0">74</text>
<text class="second_mark" x="3175" y="850.0">75</text>
<text class="second_mark" x="3175" y="690.0">76</text>
<text class="second_mark" x="3175" y="530.0">77</text>
<text class="second_mark" x="3175" y="370.0">78</text>
<text class="second_mark" x="3175" y="210.0">79</text>
<text class="second_mark" x="3375" y="850.0">80</text>
<text class="second_mark" x="3375" y="690.0">81</text>
<text class="second_mark" x="3375" y="530.0">82</text>
<text class="second_mark" x="3375" y="370.0">83</text>
<text class="second_mark" x="3375" y="210.0">84</text>
<text class="second_mark" x="3575" y="850.0">85</text>
<text class="second_mark" x="3575" y="690.0">86</text>
<text class="second_mark" x="3575" y="530.0">87</text>
<text class="second_mark" x="3575" y="370.0">88</text>
<text class="second_mark" x="3575" y="210.0">89</text>
<text class="second_mark" x="3775" y="850.0">90</text>
<text class="second_mark" x="3775" y="690.0">91</text>
<text class="second_mark" x="3775" y="530.0">92</text>
<text class="second_mark" x="3775" y="370.0">93</text>
<text class="second_mark" x="3775" y="210.0">94</text>
<text class="second_mark" x="3975" y="850.0">95</text>
<text class="second_mark" x="3975" y="690.0">96</text>
<text class="second_mark" x="3975" y="530.0">97</text>
<text class="second_mark" x="3975" y="370.0">98</text>
<text class="second_mark" x="3975" y="210.0">99</text>
<text class="second_mark" x="4175" y="850.0">100</text>
<text class="second_mark" x="4175" y="690.0">101</text>
<text class="second_mark" x="4175" y="530.0">102</text>
<text class="second_mark" x="4175" y="370.0">103</text>
<text class="second_mark" x="4175" y="210.0">104</text>
<text class="second_mark" x="4375" y="850.0">105</text>
<text class="second_mark" x="4375" y="690.0">106</text>
<text class="second_mark" x="4375" y="530.0">107</text>
<text class="second_mark" x="4375" y="370.0">108</text>
<text class="second_mark" x="4375" y="210.0">109</text>
<text class="second_mark" x="4575" y="850.0">110</text>
<text class="second_mark" x="4575" y="690.0">111</text>
<text class="second_mark" x="4575" y="530.0">112</text>
<text class="second_mark" x="4575" y="370.0">113</text>
<text class="second_mark" x="4575" y="210.0">114</text>
<text class="second_mark" x="4775" y="850.0">115</text>
<text class="second_mark" x="4775" y="690.0">116</text>
<text class="second_mark" x="4775" y="530.0">117</text>
<text class="second_mark" x="4775" y="370.0">118</text>
<text class="second_mark" x="4775" y="210.0">119</text>
<text class="second_mark" x="4975" y="850.0">120</text>
<text class="second_mark" x="4975" y="690.0">121</text>
<text class="second_mark" x="4975" y="530.0">122</text>
<text class="second_mark" x="4975" y="370.0">123</text>
<text class="second_mark" x="4975" y="210.0">124</text>
<text class="second_mark" x="5175" y="850.0">125</text>
<text class="second_mark" x="5175" y="690.0">126</text>
<text class="second_mark" x="5175" y="530.0">127</text>
</g>
</svg>