<?xml version="1.0" standalone="no"?><!DOCTYPE svg PUBLIC "-//W3C//DTD SVG 1.1//EN" "http://www.w3.org/Graphics/SVG/1.1/DTD/svg11.dtd" ><svg xmlns="http://www.w3.org/2000/svg" width="4000" height="900" style="background:black">
<style>text{font:12px Arial;fill:#CDCDCD;-webkit-user-select:none;user-select:none}.bpm_mark{fill:#15CD15}</style>
<defs>
  <linearGradient id="line_hold_gradient"><stop offset="0%" stop-color="rgba(155,255,255,0.9)" /><stop offset="30%" stop-color="rgba(119,200,200,0.6)" /><stop offset="70%" stop-color="rgba(119,200,200,0.6)" /><stop offset="100%" stop-color="rgba(155,255,255,0.9)" /></linearGradient>
  <linearGradient id="line_scratch_gradient"><stop offset="0%" stop-color="rgba(228,128,255,0.9)" /><stop offset="30%" stop-color="rgba(151,83,215,0.6)" /><stop offset="70%" stop-color="rgba(151,83,215,0.6)" /><stop offset="100%" stop-color="rgba(228,128,255,0.9)" /></linearGradient>
  <g width="20" height="8" id="normal"  ><path d="M0,2v4a2,2,90,0,0,2,2h16a2,-2,90,0,0,2,-2v-4a-2,-2,90,0,0,-2,-2h-16a-2,2,90,0,0,-2,2" fill="rgb(253,98,163)" /><path d="M1,3v2a2,2,90,0,0,2,2h14a2,-2,90,0,0,2,-2v-2a-2,-2,90,0,0,-2,-2h-14a-2,2,90,0,0,-2,2" stroke="rgb(255,225,104)" fill="transparent" /></g>
  <g width="20" height="8" id="critical"><path d="M0,2v4a2,2,90,0,0,2,2h16a2,-2,90,0,0,2,-2v-4a-2,-2,90,0,0,-2,-2h-16a-2,2,90,0,0,-2,2" fill="rgb(254,166,43)" /><path d="M1,3v2a2,2,90,0,0,2,2h14a2,-2,90,0,0,2,-2v-2a-2,-2,90,0,0,-2,-2h-14a-2,2,90,0,0,-2,2" stroke="rgb(255,225,104)" fill="transparent" /></g>
  <g width="20" height="8" id="hold"    ><path d="M0,2v4a2,2,90,0,0,2,2h16a2,-2,90,0,0,2,-2v-4a-2,-2,90,0,0,-2,-2h-16a-2,2,90,0,0,-2,2" fill="rgb(18,155,250)" /><path d="M1,3v2a2,2,90,0,0,2,2h14a2,-2,90,0,0,2,-2v-2a-2,-2,90,0,0,-2,-2h-14a-2,2,90,0,0,-2,2" stroke="rgb(255,225,104)" fill="transparent" /></g>
  <g width="20" height="8" id="scratch" ><path d="M0,2v4a2,2,90,0,0,2,2h16a2,-2,90,0,0,2,-2v-4a-2,-2,90,0,0,-2,-2h-16a-2,2,90,0,0,-2,2" fill="rgb(129,59,236)" /><path d="M1,3v2a2,2,90,0,0,2,2h14a2,-2,90,0,0,2,-2v-2a-2,-2,90,0,0,-2,-2h-14a-2,2,90,0,0,-2,2" stroke="rgb(255,225,104)" fill="transparent" /></g>
  <g width="20" height="8" id="flick"   ><path d="M0,2v4a2,2,90,0,0,2,2h16a2,-2,90,0,0,2,-2v-4a-2,-2,90,0,0,-2,-2h-16a-2,2,90,0,0,-2,2" fill="rgb(129,59,236)" /><path d="M1,3v2a2,2,90,0,0,2,2h14a2,-2,90,0,0,2,-2v-2a-2,-2,90,0,0,-2,-2h-14a-2,2,90,0,0,-2,2" stroke="rgb(255,225,104)" fill="transparent" /><path d="M5,4h10" stroke="rgb(255,225,104)" /></g>
  <g width="20" height="12" id="scratch_arrow_left"><path d="M5,1l-4,6l4,6h3l-4,-6l4,-6zM11,1l-4,6l4,6h3l-4,-6l4,-6z" stroke="rgb(123,81,251)" fill="rgb(244,237,255)" /></g>
  <g width="20" height="12" id="scratch_arrow_right"><path d="M9,1l4,6l-4,6h-3l4,-6l-4,-6zM15,1l4,6l-4,6h-3l4,-6l-4,-6z" stroke="rgb(123,81,251)" fill="rgb(244,237,255)" /></g>
  <g width="20" height="12" id="scratch_arrow_both"><path d="M6,1l-4,6l4,6h3l-4,-6l4,-6zM14,1l4,6l-4,6h-3l4,-6l-4,-6z" stroke="rgb(123,81,251)" fill="rgb(244,237,255)" /></g>
  <g width="20" height="20" id="sound"><path d="M10,1l3,7l7,3l-7,3l-3,7l-3,-7l-7,-3l7,-3l3,-7" stroke="rgb(56,173,198)" fill="rgb(147,243,252)" /></g>
  <g width="20" height="20" id="sound_purple"><path d="M10,1l3,7l7,3l-7,3l-3,7l-3,-7l-7,-3l7,-3l3,-7" stroke="rgb(121,77,211)" fill="rgb(197,146,253)" /></g>
  <g width="20" height="20" id="line_hold"><path d="M0,0h20v20h-20z" fill="url('#line_hold_gradient')" /></g>
  <g width="20" height="20" id="line_scratch"><path d="M0,0h20v20h-20z" fill="url('#line_scratch_gradient')" /></g>
  <g id="beat_section" width="160" height="160"><path d="M20,0v160M140,0v160M0,0" stroke="#CCCCCC" /><path d="M40,0v160M60,0v160M80,0v160M100,0v160M120,0v160M0,0" stroke="#444444" /></g>
  <g id="beat_section_top" width="160" height="160"><path d="M20,0v160M140,0v160M0,0" stroke="#CCCCCC" /><path d="M20,0h120M40,0v160M60,0v160M80,0v160M100,0v160M120,0v160M0,0" stroke="#444444" /></g>
  <g id="beat_section_bottom" width="160" height="160"><path d="M20,0v160M140,0v160M0,0" stroke="#CCCCCC" /><path d="M20,160h120M40,0v160M60,0v160M80,0v160M100,0v160M120,0v160M0,0" stroke="#444444" /></g>
</defs>
<g class="bg_layer">
<use href="#beat_section_bottom" x="30" y="690.0" />
<use href="#beat_section" x="30" y="530.0" />
<use href="#beat_section" x="30" y="370.0" />
<use href="#beat_section" x="30" y="210.0" />
<use href="#beat_section_top" x="30" y="50.0" />
<use href="#beat_section_bottom" x="230" y="690.0" />
<use href="#beat_section" x="230" y="530.0" />
<use href="#beat_section" x="230" y="370.0" />
<use href="#beat_section" x="230" y="210.0" />
<use href="#beat_section_top" x="230" y="50.0" />
<use href="#beat_section_bottom" x="430" y="690.0" />
<use href="#beat_section" x="430" y="530.0" />
<use href="#beat_section" x="430" y="370.0" />
<use href="#beat_section" x="430" y="210.0" />
<use href="#beat_section_top" x="430" y="50.0" />
<use href="#beat_section_bottom" x="630" y="690.0" />
<use href="#beat_section" x="630" y="530.0" />
<use href="#beat_section" x="630" y="370.0" />
<use href="#beat_section" x="630" y="210.0" />
<use href="#beat_section_top" x="630" y="50.0" />
<use href="#beat_section_bottom" x="830" y="690.0" />
<use href="#beat_section" x="830" y="530.0" />
<use href="#beat_section" x="830" y="370.0" />
<use href="#beat_section" x="830" y="210.0" />
<use href="#beat_section_top" x="830" y="50.0" />
<use href="#beat_section_bottom" x="1030" y="690.0" />
<use href="#beat_section" x="1030" y="530.0" />
<use href="#beat_section" x="1030" y="370.0" />
<use href="#beat_section" x="1030" y="210.0" />
<use href="#beat_section_top" x="1030" y="50.0" />
<use href="#beat_section_bottom" x="1230" y="690.0" />
<use href="#beat_section" x="1230" y="530.0" />
<use href="#beat_section" x="1230" y="370.0" />
<use href="#beat_section" x="1230" y="210.0" />
<use href="#beat_section_top" x="1230" y="50.0" />
<use href="#beat_section_bottom" x="1430" y="690.0" />
<use href="#beat_section" x="1430" y="530.0" />
<use href="#beat_section" x="1430" y="370.0" />
<use href="#beat_section" x="1430" y="210.0" />
<use href="#beat_section_top" x="1430" y="50.0" />
<use href="#beat_section_bottom" x="1630" y="690.0" />
<use href="#beat_section" x="1630" y="530.0" />
<use href="#beat_section" x="1630" y="370.0" />
<use href="#beat_section" x="1630" y="210.0" />
<use href="#beat_section_top" x="1630" y="50.0" />
<use href="#beat_section_bottom" x="1830" y="690.0" />
<use href="#beat_section" x="1830" y="530.0" />
<use href="#beat_section" x="1830" y="370.0" />
<use href="#beat_section" x="1830" y="210.0" />
<use href="#beat_section_top" x="1830" y="50.0" />
<use href="#beat_section_bottom" x="2030" y="690.0" />
<use href="#beat_section" x="2030" y="530.0" />
<use href="#beat_section" x="2030" y="370.0" />
<use href="#beat_section" x="2030" y="210.0" />
<use href="#beat_section_top" x="2030" y="50.0" />
<use href="#beat_section_bottom" x="2230" y="690.0" />
<use href="#beat_section" x="2230" y="530.0" />
<use href="#beat_section" x="2230" y="370.0" />
<use href="#beat_section" x="2230" y="210.0" />
<use href="#beat_section_top" x="2230" y="50.0" />
<use href="#beat_section_bottom" x="2430" y="690.0" />
<use href="#beat_section" x="2430" y="530.0" />
<use href="#beat_section" x="2430" y="370.0" />
<use href="#beat_section" x="2430" y="210.0" />
<use href="#beat_section_top" x="2430" y="50.0" />
<use href="#beat_section_bottom" x="2630" y="690.0" />
<use href="#beat_section" x="2630" y="530.0" />
<use href="#beat_section" x="2630" y="370.0" />
<use href="#beat_section" x="2630" y="210.0" />
<use href="#beat_section_top" x="2630" y="50.0" />
<use href="#beat_section_bottom" x="2830" y="690.0" />
<use href="#beat_section" x="2830" y="530.0" />
<use href="#beat_section" x="2830" y="370.0" />
<use href="#beat_section" x="2830" y="210.0" />
<use href="#beat_section_top" x="2830" y="50.0" />
<use href="#beat_section_bottom" x="3030" y="690.0" />
<use href="#beat_section" x="3030" y="530.0" />
<use href="#beat_section" x="3030" y="370.0" />
<use href="#beat_section" x="3030" y="210.0" />
<use href="#beat_section_top" x="3030" y="50.0" />
<use href="#beat_section_bottom" x="3230" y="690.0" />
<use href="#beat_section" x="3230" y="530.0" />
<use href="#beat_section" x="3230" y="370.0" />
<use href="#beat_section" x="3230" y="210.0" />
<use href="#beat_section_top" x="3230" y="50.0" />
<use href="#beat_section_bottom" x="3430" y="690.0" />
<use href="#beat_section" x="3430" y="530.0" />
<use href="#beat_section" x="3430" y="370.0" />
<use href="#beat_section" x="3430" y="210.0" />
<use href="#beat_section_top" x="3430" y="50.0" />
<use href="#beat_section_bottom" x="3630" y="690.0" />
<use href="#beat_section" x="3630" y="530.0" />
<use href="#beat_section" x="3630" y="370.0" />
<use href="#beat_section" x="3630" y="210.0" />
<use href="#beat_section_top" x="3630" y="50.0" />
<use href="#beat_section_bottom" x="3830" y="690.0" />
<use href="#beat_section" x="3830" y="530.0" />
<use href="#beat_section" x="3830" y="370.0" />
<use href="#beat_section_top" x="3830" y="210.0" />
</g>
<g class="custom_line_layer">
<path d="M50,850.000h120" stroke="red" />
<path d="M50,652.000h120" stroke="#D7BF90" />
<path d="M50,521.000h120" stroke="#D7BF90" />
<path d="M50,389.000h120" stroke="#D7BF90" />
<path d="M50,258.000h120" stroke="#D7BF90" />
<path d="M50,126.000h120" stroke="#D7BF90" />
<path d="M250,795.000h120" stroke="#D7BF90" />
<path d="M250,663.000h120" stroke="#D7BF90" />
<path d="M250,532.000h120" stroke="#D7BF90" />
<path d="M250,400.000h120" stroke="#D7BF90" />
<path d="M250,269.000h120" stroke="#D7BF90" />
<path d="M250,137.000h120" stroke="#D7BF90" />
<path d="M450,806.000h120" stroke="#D7BF90" />
<path d="M450,674.000h120" stroke="#D7BF90" />
<path d="M450,543.000h120" stroke="#D7BF90" />
<path d="M450,411.000h120" stroke="#D7BF90" />
<path d="M450,280.000h120" stroke="#D7BF90" />
<path d="M450,148.000h120" stroke="#D7BF90" />
<path d="M650,817.000h120" stroke="#D7BF90" />
<path d="M650,685.000h120" stroke="#D7BF90" />
<path d="M650,554.000h120" stroke="#D7BF90" />
<path d="M650,422.000h120" stroke="#D7BF90" />
<path d="M650,291.000h120" stroke="#D7BF90" />
<path d="M650,159.000h120" stroke="#D7BF90" />
<path d="M850,828.000h120" stroke="#D7BF90" />
<path d="M850,696.000h120" stroke="#D7BF90" />
<path d="M850,565.000h120" stroke="#D7BF90" />
<path d="M850,433.000h120" stroke="#D7BF90" />
<path d="M850,302.000h120" stroke="#D7BF90" />
<path d="M850,170.000h120" stroke="#D7BF90" />
<path d="M1050,839.000h120" stroke="#D7BF90" />
<path d="M1050,707.000h120" stroke="#D7BF90" />
<path d="M1050,576.000h120" stroke="#D7BF90" />
<path d="M1050,444.000h120" stroke="#D7BF90" />
<path d="M1050,313.000h120" stroke="#D7BF90" />
<path d="M1050,181.000h120" stroke="#D7BF90" />
<path d="M1250,849.000h120" stroke="#D7BF90" />
<path d="M1250,718.000h120" stroke="#D7BF90" />
<path d="M1250,586.000h120" stroke="#D7BF90" />
<path d="M1250,455.000h120" stroke="#D7BF90" />
<path d="M1250,323.000h120" stroke="#D7BF90" />
<path d="M1250,192.000h120" stroke="#D7BF90" />
<path d="M1250,60.000h120" stroke="#D7BF90" />
<path d="M1450,729.000h120" stroke="#D7BF90" />
<path d="M1450,597.000h120" stroke="#D7BF90" />
<path d="M1450,466.000h120" stroke="#D7BF90" />
<path d="M1450,334.000h120" stroke="#D7BF90" />
<path d="M1450,203.000h120" stroke="#D7BF90" />
<path d="M1450,71.000h120" stroke="#D7BF90" />
<path d="M1650,740.000h120" stroke="#D7BF90" />
<path d="M1650,608.000h120" stroke="#D7BF90" />
<path d="M1650,477.000h120" stroke="#D7BF90" />
<path d="M1650,345.000h120" stroke="#D7BF90" />
<path d="M1650,214.000h120" stroke="#D7BF90" />
<path d="M1650,82.000h120" stroke="#D7BF90" />
<path d="M1850,751.000h120" stroke="#D7BF90" />
<path d="M1850,619.000h120" stroke="#D7BF90" />
<path d="M1850,488.000h120" stroke="#D7BF90" />
<path d="M1850,356.000h120" stroke="#D7BF90" />
<path d="M1850,225.000h120" stroke="#D7BF90" />
<path d="M1850,93.000h120" stroke="#D7BF90" />
<path d="M2050,762.000h120" stroke="#D7BF90" />
<path d="M2050,630.000h120" stroke="#D7BF90" />
<path d="M2050,499.000h120" stroke="#D7BF90" />
<path d="M2050,367.000h120" stroke="#D7BF90" />
<path d="M2050,236.000h120" stroke="#D7BF90" />
<path d="M2050,104.000h120" stroke="#D7BF90" />
<path d="M2250,773.000h120" stroke="#D7BF90" />
<path d="M2250,641.000h120" stroke="#D7BF90" />
<path d="M2250,510.000h120" stroke="#D7BF90" />
<path d="M2250,378.000h120" stroke="#D7BF90" />
<path d="M2250,247.000h120" stroke="#D7BF90" />
<path d="M2250,115.000h120" stroke="#D7BF90" />
<path d="M2450,784.000h120" stroke="#D7BF90" />
<path d="M2450,652.000h120" stroke="#D7BF90" />
<path d="M2450,521.000h120" stroke="#D7BF90" />
<path d="M2450,389.000h120" stroke="#D7BF90" />
<path d="M2450,258.000h120" stroke="#D7BF90" />
<path d="M2450,126.000h120" stroke="#D7BF90" />
<path d="M2650,795.000h120" stroke="#D7BF90" />
<path d="M2650,663.000h120" stroke="#D7BF90" />
<path d="M2650,532.000h120" stroke="#D7BF90" />
<path d="M2650,400.000h120" stroke="#D7BF90" />
<path d="M2650,269.000h120" stroke="#D7BF90" />
<path d="M2650,137.000h120" stroke="#D7BF90" />
<path d="M2850,806.000h120" stroke="#D7BF90" />
<path d="M2850,674.000h120" stroke="#D7BF90" />
<path d="M2850,543.000h120" stroke="#D7BF90" />
<path d="M2850,411.000h120" stroke="#D7BF90" />
<path d="M2850,280.000h120" stroke="#D7BF90" />
<path d="M2850,148.000h120" stroke="#D7BF90" />
<path d="M3050,817.000h120" stroke="#D7BF90" />
<path d="M3050,685.000h120" stroke="#D7BF90" />
<path d="M3050,554.000h120" stroke="#D7BF90" />
<path d="M3050,422.000h120" stroke="#D7BF90" />
<path d="M3050,291.000h120" stroke="#D7BF90" />
<path d="M3050,159.000h120" stroke="#D7BF90" />
<path d="M3250,828.000h120" stroke="#D7BF90" />
<path d="M3250,696.000h120" stroke="#D7BF90" />
<path d="M3250,565.000h120" stroke="#D7BF90" />
<path d="M3250,433.000h120" stroke="#D7BF90" />
<path d="M3250,302.000h120" stroke="#D7BF90" />
<path d="M3250,170.000h120" stroke="#D7BF90" />
<path d="M3450,839.000h120" stroke="#D7BF90" />
<path d="M3450,707.000h120" stroke="#D7BF90" />
<path d="M3450,576.000h120" stroke="#D7BF90" />
<path d="M3450,444.000h120" stroke="#D7BF90" />
<path d="M3450,313.000h120" stroke="#D7BF90" />
<path d="M3450,181.000h120" stroke="#D7BF90" />
<path d="M3650,849.000h120" stroke="#D7BF90" />
<path d="M3650,718.000h120" stroke="#D7BF90" />
<path d="M3650,586.000h120" stroke="#D7BF90" />
<path d="M3650,455.000h120" stroke="#D7BF90" />
<path d="M3650,323.000h120" stroke="#D7BF90" />
<path d="M3650,192.000h120" stroke="#D7BF90" />
<path d="M3650,60.000h120" stroke="#D7BF90" />
<path d="M3850,729.000h120" stroke="#D7BF90" />
<path d="M3850,597.000h120" stroke="#D7BF90" />
<path d="M3850,466.000h120" stroke="#D7BF90" />
<path d="M42,850.000h8" stroke="#f14cc1" />
<path d="M42,784.000h8" stroke="#023eff" />
<path d="M42,718.000h8" stroke="#023eff" />
<path d="M42,652.000h8" stroke="#1ac938" />
<path d="M42,586.000h8" stroke="#1ac938" />
<path d="M42,521.000h8" stroke="#ff7c00" />
<path d="M42,455.000h8" stroke="#8b2be2" />
<path d="M42,60.000h8" stroke="#1ac938" />
<path d="M242,795.000h8" stroke="#ff7c00" />
<path d="M242,729.000h8" stroke="#8b2be2" />
<path d="M242,663.000h8" stroke="#8b2be2" />
<path d="M242,597.000h8" stroke="#f14cc1" />
<path d="M242,532.000h8" stroke="#ff7c00" />
<path d="M242,466.000h8" stroke="#023eff" />
<path d="M242,71.000h8" stroke="#f14cc1" />
<path d="M442,477.000h8" stroke="#8b2be2" />
<path d="M442,82.000h8" stroke="#1ac938" />
<path d="M642,817.000h8" stroke="#ff7c00" />
<path d="M642,751.000h8" stroke="#8b2be2" />
<path d="M642,685.000h8" stroke="#8b2be2" />
<path d="M642,619.000h8" stroke="#f14cc1" />
<path d="M642,554.000h8" stroke="#ff7c00" />
<path d="M642,488.000h8" stroke="#023eff" />
<path d="M642,93.000h8" stroke="#f14cc1" />
<path d="M842,499.000h8" stroke="#8b2be2" />
<path d="M842,104.000h8" stroke="#1ac938" />
<path d="M1042,839.000h8" stroke="#ff7c00" />
<path d="M1042,773.000h8" stroke="#8b2be2" />
<path d="M1042,707.000h8" stroke="#8b2be2" />
<path d="M1042,641.000h8" stroke="#f14cc1" />
<path d="M1042,576.000h8" stroke="#ff7c00" />
<path d="M1042,510.000h8" stroke="#023eff" />
<path d="M1042,115.000h8" stroke="#f14cc1" />
<path d="M1242,850.000h8" stroke="#ff7c00" />
<path d="M1242,784.000h8" stroke="#023eff" />
<path d="M1242,718.000h8" stroke="#1ac938" />
<path d="M1242,652.000h8" stroke="#1ac938" />
<path d="M1242,586.000h8" stroke="#ff7c00" />
<path d="M1242,521.000h8" stroke="#8b2be2" />
<path d="M1242,126.000h8" stroke="#1ac938" />
<path d="M1442,729.000h8" stroke="#8b2be2" />
<path d="M1442,532.000h8" stroke="#023eff" />
<path d="M1442,334.000h8" stroke="#ff7c00" />
<path d="M1442,137.000h8" stroke="#f14cc1" />
<path d="M1642,740.000h8" stroke="#1ac938" />
<path d="M1642,543.000h8" stroke="#8b2be2" />
<path d="M1642,345.000h8" stroke="#ff7c00" />
<path d="M1642,148.000h8" stroke="#1ac938" />
<path d="M1642,82.000h8" stroke="#ff7c00" />
<path d="M1842,817.000h8" stroke="#8b2be2" />
<path d="M1842,751.000h8" stroke="#8b2be2" />
<path d="M1842,554.000h8" stroke="#023eff" />
<path d="M1842,488.000h8" stroke="#1ac938" />
<path d="M1842,422.000h8" stroke="#1ac938" />
<path d="M1842,356.000h8" stroke="#ff7c00" />
<path d="M1842,159.000h8" stroke="#f14cc1" />
<path d="M1842,93.000h8" stroke="#ff7c00" />
<path d="M2042,828.000h8" stroke="#023eff" />
<path d="M2042,762.000h8" stroke="#1ac938" />
<path d="M2042,565.000h8" stroke="#8b2be2" />
<path d="M2042,499.000h8" stroke="#8b2be2" />
<path d="M2042,433.000h8" stroke="#f14cc1" />
<path d="M2042,367.000h8" stroke="#ff7c00" />
<path d="M2042,170.000h8" stroke="#1ac938" />
<path d="M2242,773.000h8" stroke="#8b2be2" />
<path d="M2242,576.000h8" stroke="#023eff" />
<path d="M2242,181.000h8" stroke="#f14cc1" />
<path d="M2442,784.000h8" stroke="#1ac938" />
<path d="M2442,586.000h8" stroke="#8b2be2" />
<path d="M2442,192.000h8" stroke="#1ac938" />
<path d="M2642,795.000h8" stroke="#8b2be2" />
<path d="M2642,597.000h8" stroke="#023eff" />
<path d="M2642,532.000h8" stroke="#1ac938" />
<path d="M2642,466.000h8" stroke="#1ac938" />
<path d="M2642,400.000h8" stroke="#ff7c00" />
<path d="M2642,203.000h8" stroke="#f14cc1" />
<path d="M2842,806.000h8" stroke="#1ac938" />
<path d="M2842,608.000h8" stroke="#8b2be2" />
<path d="M2842,543.000h8" stroke="#8b2be2" />
<path d="M2842,477.000h8" stroke="#f14cc1" />
<path d="M2842,411.000h8" stroke="#ff7c00" />
<path d="M2842,214.000h8" stroke="#1ac938" />
<path d="M3042,817.000h8" stroke="#8b2be2" />
<path d="M3042,619.000h8" stroke="#023eff" />
<path d="M3042,422.000h8" stroke="#ff7c00" />
<path d="M3042,225.000h8" stroke="#f14cc1" />
<path d="M3042,159.000h8" stroke="#ff7c00" />
<path d="M3042,93.000h8" stroke="#023eff" />
<path d="M3242,828.000h8" stroke="#1ac938" />
<path d="M3242,762.000h8" stroke="#1ac938" />
<path d="M3242,696.000h8" stroke="#ff7c00" />
<path d="M3242,630.000h8" stroke="#8b2be2" />
<path d="M3242,236.000h8" stroke="#1ac938" />
<path d="M3442,839.000h8" stroke="#8b2be2" />
<path d="M3442,641.000h8" stroke="#023eff" />
<path d="M3442,576.000h8" stroke="#1ac938" />
<path d="M3442,510.000h8" stroke="#1ac938" />
<path d="M3442,444.000h8" stroke="#ff7c00" />
<path d="M3442,247.000h8" stroke="#f14cc1" />
<path d="M3642,850.000h8" stroke="#1ac938" />
<path d="M3642,652.000h8" stroke="#8b2be2" />
<path d="M3642,455.000h8" stroke="#023eff" />
<path d="M3642,258.000h8" stroke="#1ac938" />
<path d="M3642,60.000h8" stroke="#8b2be2" />
<path d="M3842,663.000h8" stroke="#023eff" />
<path d="M3842,466.000h8" stroke="#ff7c00" />
</g>
<g class="sync_line_layer">
<path d="M2450,258h120" stroke="#606060" />
<path d="M3250,630h120" stroke="#606060" />
</g>
<g class="line_layer">
<use href="#line_hold" x="130.0" y="455.0" b1="0.0" b2="2.4658" style="transform:scaleX(2.0) scaleY(19.75);transform-origin:130.0px 455.0px" />
<use href="#line_hold" x="50.0" y="50.0" b1="4.9315" b2="5" style="transform:scaleX(2.0) scaleY(0.5);transform-origin:50.0px 50.0px" />
<use href="#line_hold" x="250.0" y="466.0" b1="5" b2="7.3973" style="transform:scaleX(2.0) scaleY(19.2);transform-origin:250.0px 466.0px" />
<use href="#line_hold" x="530.0" y="50.0" b1="14.7945" b2="15" style="transform:scaleX(2.0) scaleY(1.6);transform-origin:530.0px 50.0px" />
<use href="#line_hold" x="730.0" y="488.0" b1="15" b2="17.2603" style="transform:scaleX(2.0) scaleY(18.1);transform-origin:730.0px 488.0px" />
<use href="#line_hold" x="850.0" y="50.0" b1="24.6575" b2="25" style="transform:scaleX(2.0) scaleY(2.7);transform-origin:850.0px 50.0px" />
<use href="#line_hold" x="1050.0" y="510.0" b1="25" b2="27.1233" style="transform:scaleX(2.0) scaleY(17.0);transform-origin:1050.0px 510.0px" />
<use href="#line_hold" x="1130.0" y="50.0" b1="29.589" b2="30" style="transform:scaleX(2.0) scaleY(3.25);transform-origin:1130.0px 50.0px" />
<use href="#line_hold" x="1330.0" y="521.0" b1="30" b2="32.0548" style="transform:scaleX(2.0) scaleY(16.45);transform-origin:1330.0px 521.0px" />
<use href="#line_hold" x="1650.0" y="50.0" b1="44.3836" b2="45" style="transform:scaleX(2.0) scaleY(4.9);transform-origin:1650.0px 50.0px" />
<use href="#line_hold" x="1850.0" y="751.0" b1="45" b2="45.6164" style="transform:scaleX(2.0) scaleY(4.95);transform-origin:1850.0px 751.0px" />
<use href="#line_hold" x="1910.0" y="356.0" b1="46.8493" b2="48.0822" style="transform:scaleX(2.0) scaleY(9.9);transform-origin:1910.0px 356.0px" />
<use href="#line_hold" x="1870.0" y="50.0" b1="49.3151" b2="50" style="transform:scaleX(2.0) scaleY(5.45);transform-origin:1870.0px 50.0px" />
<use href="#line_hold" x="2070.0" y="762.0" b1="50" b2="50.5479" style="transform:scaleX(2.0) scaleY(4.4);transform-origin:2070.0px 762.0px" />
<use href="#line_hold" x="2130.0" y="367.0" b1="51.7808" b2="53.0137" style="transform:scaleX(2.0) scaleY(9.9);transform-origin:2130.0px 367.0px" />
<use href="#line_hold" x="2650.0" y="400.0" b1="66.5753" b2="67.8082" style="transform:scaleX(3.0) scaleY(9.85);transform-origin:2650.0px 400.0px" />
<use href="#line_hold" x="2910.0" y="411.0" b1="71.5068" b2="72.7397" style="transform:scaleX(3.0) scaleY(9.85);transform-origin:2910.0px 411.0px" />
<use href="#line_hold" x="3050.0" y="50.0" b1="78.9041" b2="80" style="transform:scaleX(3.0) scaleY(8.75);transform-origin:3050.0px 50.0px" />
<use href="#line_hold" x="3250.0" y="630.0" b1="80" b2="81.3699" style="transform:scaleX(3.0) scaleY(11.0);transform-origin:3250.0px 630.0px" />
<use href="#line_hold" x="3510.0" y="444.0" b1="86.3014" b2="87.5342" style="transform:scaleX(2.0) scaleY(9.85);transform-origin:3510.0px 444.0px" />
</g>
<g class="note_layer">
<use href="#hold" x="130.0" y="846.0" style="transform:scaleX(2.0);transform-origin:130.0px 846.0px" />
<use href="#hold" x="130.0" y="451.0" style="transform:scaleX(2.0);transform-origin:130.0px 451.0px" />
<use href="#hold" x="50.0" y="56.0" style="transform:scaleX(2.0);transform-origin:50.0px 56.0px" />
<use href="#hold" x="250.0" y="462.0" style="transform:scaleX(2.0);transform-origin:250.0px 462.0px" />
<use href="#normal" x="330.0" y="67.0" style="transform:scaleX(2.0);transform-origin:330.0px 67.0px" />
<use href="#normal" x="470.0" y="473.0" style="transform:scaleX(2.0);transform-origin:470.0px 473.0px" />
<use href="#hold" x="530.0" y="78.0" style="transform:scaleX(2.0);transform-origin:530.0px 78.0px" />
<use href="#hold" x="730.0" y="484.0" style="transform:scaleX(2.0);transform-origin:730.0px 484.0px" />
<use href="#normal" x="650.0" y="89.0" style="transform:scaleX(2.0);transform-origin:650.0px 89.0px" />
<use href="#normal" x="910.0" y="495.0" style="transform:scaleX(2.0);transform-origin:910.0px 495.0px" />
<use href="#hold" x="850.0" y="100.0" style="transform:scaleX(2.0);transform-origin:850.0px 100.0px" />
<use href="#hold" x="1050.0" y="506.0" style="transform:scaleX(2.0);transform-origin:1050.0px 506.0px" />
<use href="#hold" x="1130.0" y="111.0" style="transform:scaleX(2.0);transform-origin:1130.0px 111.0px" />
<use href="#hold" x="1330.0" y="517.0" style="transform:scaleX(2.0);transform-origin:1330.0px 517.0px" />
<use href="#normal" x="1250.0" y="122.0" style="transform:scaleX(2.0);transform-origin:1250.0px 122.0px" />
<use href="#normal" x="1510.0" y="725.0" style="transform:scaleX(2.0);transform-origin:1510.0px 725.0px" />
<use href="#normal" x="1450.0" y="528.0" style="transform:scaleX(2.0);transform-origin:1450.0px 528.0px" />
<use href="#normal" x="1510.0" y="330.0" style="transform:scaleX(2.0);transform-origin:1510.0px 330.0px" />
<use href="#normal" x="1470.0" y="133.0" style="transform:scaleX(2.0);transform-origin:1470.0px 133.0px" />
<use href="#normal" x="1730.0" y="736.0" style="transform:scaleX(2.0);transform-origin:1730.0px 736.0px" />
<use href="#normal" x="1670.0" y="539.0" style="transform:scaleX(2.0);transform-origin:1670.0px 539.0px" />
<use href="#normal" x="1730.0" y="341.0" style="transform:scaleX(2.0);transform-origin:1730.0px 341.0px" />
<use href="#hold" x="1650.0" y="144.0" style="transform:scaleX(2.0);transform-origin:1650.0px 144.0px" />
<use href="#hold" x="1850.0" y="747.0" style="transform:scaleX(2.0);transform-origin:1850.0px 747.0px" />
<use href="#hold" x="1910.0" y="550.0" style="transform:scaleX(2.0);transform-origin:1910.0px 550.0px" />
<use href="#hold" x="1910.0" y="352.0" style="transform:scaleX(2.0);transform-origin:1910.0px 352.0px" />
<use href="#hold" x="1870.0" y="155.0" style="transform:scaleX(2.0);transform-origin:1870.0px 155.0px" />
<use href="#hold" x="2070.0" y="758.0" style="transform:scaleX(2.0);transform-origin:2070.0px 758.0px" />
<use href="#hold" x="2130.0" y="561.0" style="transform:scaleX(2.0);transform-origin:2130.0px 561.0px" />
<use href="#hold" x="2130.0" y="363.0" style="transform:scaleX(2.0);transform-origin:2130.0px 363.0px" />
<use href="#normal" x="2050.0" y="166.0" style="transform:scaleX(2.0);transform-origin:2050.0px 166.0px" />
<use href="#normal" x="2310.0" y="769.0" style="transform:scaleX(2.0);transform-origin:2310.0px 769.0px" />
<use href="#normal" x="2250.0" y="572.0" style="transform:scaleX(2.0);transform-origin:2250.0px 572.0px" />
<use href="#normal" x="2330.0" y="177.0" style="transform:scaleX(2.0);transform-origin:2330.0px 177.0px" />
<use href="#normal" x="2470.0" y="780.0" style="transform:scaleX(2.0);transform-origin:2470.0px 780.0px" />
<use href="#normal" x="2530.0" y="582.0" style="transform:scaleX(2.0);transform-origin:2530.0px 582.0px" />
<use href="#critical" x="2450.0" y="188.0" style="transform:scaleX(3.0);transform-origin:2450.0px 188.0px" />
<use href="#normal" x="2710.0" y="791.0" style="transform:scaleX(3.0);transform-origin:2710.0px 791.0px" />
<use href="#hold" x="2650.0" y="593.0" style="transform:scaleX(3.0);transform-origin:2650.0px 593.0px" />
<use href="#hold" x="2650.0" y="396.0" style="transform:scaleX(3.0);transform-origin:2650.0px 396.0px" />
<use href="#normal" x="2710.0" y="199.0" style="transform:scaleX(3.0);transform-origin:2710.0px 199.0px" />
<use href="#normal" x="2850.0" y="802.0" style="transform:scaleX(3.0);transform-origin:2850.0px 802.0px" />
<use href="#hold" x="2910.0" y="604.0" style="transform:scaleX(3.0);transform-origin:2910.0px 604.0px" />
<use href="#hold" x="2910.0" y="407.0" style="transform:scaleX(3.0);transform-origin:2910.0px 407.0px" />
<use href="#normal" x="2850.0" y="210.0" style="transform:scaleX(3.0);transform-origin:2850.0px 210.0px" />
<use href="#normal" x="3110.0" y="813.0" style="transform:scaleX(3.0);transform-origin:3110.0px 813.0px" />
<use href="#normal" x="3050.0" y="615.0" style="transform:scaleX(3.0);transform-origin:3050.0px 615.0px" />
<use href="#normal" x="3110.0" y="418.0" style="transform:scaleX(3.0);transform-origin:3110.0px 418.0px" />
<use href="#hold" x="3050.0" y="221.0" style="transform:scaleX(3.0);transform-origin:3050.0px 221.0px" />
<use href="#hold" x="3250.0" y="626.0" style="transform:scaleX(3.0);transform-origin:3250.0px 626.0px" />
<use href="#normal" x="3330.0" y="232.0" style="transform:scaleX(2.0);transform-origin:3330.0px 232.0px" />
<use href="#normal" x="3470.0" y="835.0" style="transform:scaleX(2.0);transform-origin:3470.0px 835.0px" />
<use href="#hold" x="3510.0" y="637.0" style="transform:scaleX(2.0);transform-origin:3510.0px 637.0px" />
<use href="#hold" x="3510.0" y="440.0" style="transform:scaleX(2.0);transform-origin:3510.0px 440.0px" />
<use href="#normal" x="3450.0" y="243.0" style="transform:scaleX(2.0);transform-origin:3450.0px 243.0px" />
<use href="#normal" x="3710.0" y="846.0" style="transform:scaleX(2.0);transform-origin:3710.0px 846.0px" />
<use href="#normal" x="3510.0" y="46.0" style="transform:scaleX(2.0);transform-origin:3510.0px 46.0px" />
<use href="#normal" x="3650.0" y="648.0" style="transform:scaleX(2.0);transform-origin:3650.0px 648.0px" />
<use href="#normal" x="3710.0" y="451.0" style="transform:scaleX(2.0);transform-origin:3710.0px 451.0px" />
<use href="#normal" x="3670.0" y="254.0" style="transform:scaleX(2.0);transform-origin:3670.0px 254.0px" />
<use href="#normal" x="3730.0" y="56.0" style="transform:scaleX(2.0);transform-origin:3730.0px 56.0px" />
<use href="#normal" x="3870.0" y="659.0" style="transform:scaleX(2.0);transform-origin:3870.0px 659.0px" />
<use href="#normal" x="3930.0" y="462.0" style="transform:scaleX(2.0);transform-origin:3930.0px 462.0px" />
</g>
<g class="arrow_layer">
</g>
<g class="split_layer">
<path d="M3250,850 V790" stroke="rgba(100%,100%,100%,50.0%)" stroke-width="3" />
<path d="M3310.0,850 V790" stroke="rgba(100%,100%,100%,50.0%)" stroke-width="3" />
<path d="M3370.0,850 V790" stroke="rgba(100%,100%,100%,50.0%)" stroke-width="3" />
<path d="M2448.5,258.0v160.0h3v-160.0z" fill="url(#split_fadein_0)" />
<path d="M2508.5,258.0v160.0h3v-160.0z" fill="url(#split_fadein_1)" />
<path d="M2568.5,258.0v160.0h3v-160.0z" fill="url(#split_fadein_1)" />
<path d="M3248.5,630.0v160.0h3v-160.0z" fill="url(#split_fadeout_0)" />
<path d="M3308.5,630.0v160.0h3v-160.0z" fill="url(#split_fadeout_1)" />
<path d="M3368.5,630.0v160.0h3v-160.0z" fill="url(#split_fadeout_1)" />
<path d="M3050,850 V50" stroke="rgba(100%,100%,100%,50.0%)" stroke-width="3" />
<path d="M3110.0,850 V50" stroke="rgba(100%,100%,100%,50.0%)" stroke-width="3" />
<path d="M3170.0,850 V50" stroke="rgba(100%,100%,100%,50.0%)" stroke-width="3" />
<path d="M2850,850 V50" stroke="rgba(100%,100%,100%,50.0%)" stroke-width="3" />
<path d="M2910.0,850 V50" stroke="rgba(100%,100%,100%,50.0%)" stroke-width="3" />
<path d="M2970.0,850 V50" stroke="rgba(100%,100%,100%,50.0%)" stroke-width="3" />
<path d="M2650,850 V50" stroke="rgba(100%,100%,100%,50.0%)" stroke-width="3" />
<path d="M2710.0,850 V50" stroke="rgba(100%,100%,100%,50.0%)" stroke-width="3" />
<path d="M2770.0,850 V50" stroke="rgba(100%,100%,100%,50.0%)" stroke-width="3" />
<path d="M2450,258 V50" stroke="rgba(100%,100%,100%,50.0%)" stroke-width="3" />
<path d="M2510.0,258 V50" stroke="rgba(100%,100%,100%,50.0%)" stroke-width="3" />
<path d="M2570.0,258 V50" stroke="rgba(100%,100%,100%,50.0%)" stroke-width="3" />
<defs>
<linearGradient id="split_fadein_id" x2="0" y1="100%" y2="0">color</linearGradient>
<linearGradient id="split_fadeout_id" x2="0" y2="100%">color</linearGradient>
<clipPath id="split_fadeout_clip"><rect x="50" y="50" width="3900" height="800" /></clipPath>
</defs>
</g>
<g class="text_mark_layer">
<text class="second_mark" x="175" y="850.0">seconds</text>
<text class="second_mark" x="175" y="690.0">1</text>
<text class="second_mark" x="175" y="530.0">2</text>
<text class="second_mark" x="175" y="370.0">3</text>
<text class="second_mark" x="175" y="210.0">4</text>
<text class="second_mark" x="375" y="850.0">5</text>
<text class="second_mark" x="375" y="690.0">6</text>
<text class="second_mark" x="375" y="530.0">7</text>
<text class="second_mark" x="375" y="370.0">8</text>
<text class="second_mark" x="375" y="210.0">9</text>
<text class="second_mark" x="575" y="850.0">10</text>
<text class="second_mark" x="575" y="690.0">11</text>
<text class="second_mark" x="575" y="530.0">12</text>
<text class="second_mark" x="575" y="370.0">13</text>
<text class="second_mark" x="575" y="210.0">14</text>
<text class="second_mark" x="775" y="850.0">15</text>
<text class="second_mark" x="775" y="690.0">16</text>
<text class="second_mark" x="775" y="530.0">17</text>
<text class="second_mark" x="775" y="370.0">18</text>
<text class="second_mark" x="775" y="210.0">19</text>
<text class="second_mark" x="975" y="850.0">20</text>
<text class="second_mark" x="975" y="690.0">21</text>
<text class="second_mark" x="975" y="530.0">22</text>
<text class="second_mark" x="975" y="370.0">23</text>
<text class="second_mark" x="975" y="210.0">24</text>
<text class="second_mark" x="1175" y="850.0">25</text>
<text class="second_mark" x="1175" y="690.0">26</text>
<text class="second_mark" x="1175" y="530.0">27</text>
<text class="second_mark" x="1175" y="370.0">28</text>
<text class="second_mark" x="1175" y="210.0">29</text>
<text class="second_mark" x="1375" y="850.0">30</text>
<text class="second_mark" x="1375" y="690.0">31</text>
<text class="second_mark" x="1375" y="530.0">32</text>
<text class="second_mark" x="1375" y="370.0">33</text>
<text class="second_mark" x="1375" y="210.0">34</text>
<text class="second_mark" x="1575" y="850.0">35</text>
<text class="second_mark" x="1575" y="690.0">36</text>
<text class="second_mark" x="1575" y="530.0">37</text>
<text class="second_mark" x="1575" y="370.0">38</text>
<text class="second_mark" x="1575" y="210.0">39</text>
<text class="second_mark" x="1775" y="850.0">40</text>
<text class="second_mark" x="1775" y="690.0">41</text>
<text class="second_mark" x="1775" y="530.0">42</text>
<text class="second_mark" x="1775" y="370.0">43</text>
<text class="second_mark" x="1775" y="210.0">44</text>
<text class="second_mark" x="1975" y="850.0">45</text>
<text class="second_mark" x="1975" y="690.0">46</text>
<text class="second_mark" x="1975" y="530.0">47</text>
<text class="second_mark" x="1975" y="370.0">48</text>
<text class="second_mark" x="1975" y="210.0">49</text>
<text class="second_mark" x="2175" y="850.0">50</text>
<text class="second_mark" x="2175" y="690.0">51</text>
<text class="second_mark" x="2175" y="530.0">52</text>
<text class="second_mark" x="2175" y="370.0">53</text>
<text class="second_mark" x="2175" y="210.0">54</text>
<text class="second_mark" x="2375" y="850.0">55</text>
<text class="second_mark" x="2375" y="690.0">56</text>
<text class="second_mark" x="2375" y="530.0">57</text>
<text class="second_mark" x="2375" y="370.0">58</text>
<text class="second_mark" x="2375" y="210.0">59</text>
<text class="second_mark" x="2575" y="850.0">60</text>
<text class="second_mark" x="2575" y="690.0">61</text>
<text class="second_mark" x="2575" y="530.0">62</text>
<text class="second_mark" x="2575" y="370.0">63</text>
<text class="second_mark" x="2575" y="210.0">64</text>
<text class="second_mark" x="2775" y="850.0">65</text>
<text class="second_mark" x="2775" y="690.0">66</text>
<text class="second_mark" x="2775" y="530.0">67</text>
<text class="second_mark" x="2775" y="370.0">68</text>
<text class="second_mark" x="2775" y="210.0">69</text>
<text class="second_mark" x="2975" y="850.0">70</text>
<text class="second_mark" x="2975" y="690.0">71</text>
<text class="second_mark" x="2975" y="530.0">72</text>
<text class="second_mark" x="2975" y="370.0">73</text>
<text class="second_mark" x="2975" y="210.0">74</text>
<text class="second_mark" x="3175" y="850.0">75</text>
<text class="second_mark" x="3175" y="690.0">76</text>
<text class="second_mark" x="3175" y="530.0">77</text>
<text class="second_mark" x="3175" y="370.0">78</text>
<text class="second_mark" x="3175" y="210.0">79</text>
<text class="second_mark" x="3375" y="850.0">80</text>
<text class="second_mark" x="3375" y="690.0">81</text>
<text class="second_mark" x="3375" y="530.0">82</text>
<text class="second_mark" x="3375" y="370.0">83</text>
<text class="second_mark" x="3375" y="210.0">84</text>
<text class="second_mark" x="3575" y="850.0">85</text>
<text class="second_mark" x="3575" y="690.0">86</text>
<text class="second_mark" x="3575" y="530.0">87</text>
<text class="second_mark" x="3575" y="370.0">88</text>
<text class="second_mark" x="3575" y="210.0">89</text>
<text class="second_mark" x="3775" y="850.0">90</text>
<text class="second_mark" x="3775" y="690.0">91</text>
<text class="second_mark" x="3775" y="530.0">92</text>
<text class="second_mark" x="3775" y="370.0">93</text>
<text class="second_mark" x="3775" y="210.0">94</text>
<text class="second_mark" x="3975" y="850.0">95</text>
<text class="second_mark" x="3975" y="690.0">96</text>
<text class="second_mark" x="3975" y="530.0">97</text>
<text class="second_mark" x="3975" y="370.0">98</text>
<text class="split_mark" text-anchor="end" x="30" y="830" style="fill:#fee300">BPM:</text>
<text class="split_mark" text-anchor="end" x="30" y="840" style="fill:#fee300">73.0</text>
<text class="split_mark" text-anchor="end" x="40" y="853" style="fill:#023eff">0</text>
<text class="split_mark" text-anchor="end" x="40" y="787" style="fill:#8b2be2">1/8</text>
<text class="split_mark" text-anchor="end" x="40" y="721" style="fill:#8b2be2">1/8</text>
<text class="split_mark" text-anchor="end" x="40" y="655" style="fill:#8b2be2">1/8</text>
<text class="split_mark" text-anchor="end" x="40" y="589" style="fill:#8b2be2">1/8</text>
<text class="split_mark" text-anchor="end" x="40" y="524" style="fill:#8b2be2">1/8</text>
<text class="split_mark" text-anchor="end" x="40" y="458" style="fill:#8b2be2">1/8</text>
<text class="split_mark" text-anchor="end" x="40" y="63" style="fill:#1ac938">3/4</text>
<text class="split_mark" text-anchor="end" x="240" y="798" style="fill:#8b2be2">1/8</text>
<text class="split_mark" text-anchor="end" x="240" y="732" style="fill:#8b2be2">1/8</text>
<text class="split_mark" text-anchor="end" x="240" y="666" style="fill:#8b2be2">1/8</text>
<text class="split_mark" text-anchor="end" x="240" y="600" style="fill:#8b2be2">1/8</text>
<text class="split_mark" text-anchor="end" x="240" y="535" style="fill:#8b2be2">1/8</text>
<text class="split_mark" text-anchor="end" x="240" y="469" style="fill:#8b2be2">1/8</text>
<text class="split_mark" text-anchor="end" x="240" y="74" style="fill:#1ac938">3/4</text>
<text class="split_mark" text-anchor="end" x="440" y="480" style="fill:#1ac938">3/4</text>
<text class="split_mark" text-anchor="end" x="440" y="85" style="fill:#1ac938">3/4</text>
<text class="split_mark" text-anchor="end" x="640" y="820" style="fill:#8b2be2">1/8</text>
<text class="split_mark" text-anchor="end" x="640" y="754" style="fill:#8b2be2">1/8</text>
<text class="split_mark" text-anchor="end" x="640" y="688" style="fill:#8b2be2">1/8</text>
<text class="split_mark" text-anchor="end" x="640" y="622" style="fill:#8b2be2">1/8</text>
<text class="split_mark" text-anchor="end" x="640" y="557" style="fill:#8b2be2">1/8</text>
<text class="split_mark" text-anchor="end" x="640" y="491" style="fill:#8b2be2">1/8</text>
<text class="split_mark" text-anchor="end" x="640" y="96" style="fill:#1ac938">3/4</text>
<text class="split_mark" text-anchor="end" x="840" y="502" style="fill:#1ac938">3/4</text>
<text class="split_mark" text-anchor="end" x="840" y="107" style="fill:#1ac938">3/4</text>
<text class="split_mark" text-anchor="end" x="1040" y="842" style="fill:#8b2be2">1/8</text>
<text class="split_mark" text-anchor="end" x="1040" y="776" style="fill:#8b2be2">1/8</text>
<text class="split_mark" text-anchor="end" x="1040" y="710" style="fill:#8b2be2">1/8</text>
<text class="split_mark" text-anchor="end" x="1040" y="644" style="fill:#8b2be2">1/8</text>
<text class="split_mark" text-anchor="end" x="1040" y="579" style="fill:#8b2be2">1/8</text>
<text class="split_mark" text-anchor="end" x="1040" y="513" style="fill:#8b2be2">1/8</text>
<text class="split_mark" text-anchor="end" x="1040" y="118" style="fill:#1ac938">3/4</text>
<text class="split_mark" text-anchor="end" x="1240" y="853" style="fill:#8b2be2">1/8</text>
<text class="split_mark" text-anchor="end" x="1240" y="787" style="fill:#8b2be2">1/8</text>
<text class="split_mark" text-anchor="end" x="1240" y="721" style="fill:#8b2be2">1/8</text>
<text class="split_mark" text-anchor="end" x="1240" y="655" style="fill:#8b2be2">1/8</text>
<text class="split_mark" text-anchor="end" x="1240" y="589" style="fill:#8b2be2">1/8</text>
<text class="split_mark" text-anchor="end" x="1240" y="524" style="fill:#8b2be2">1/8</text>
<text class="split_mark" text-anchor="end" x="1240" y="129" style="fill:#1ac938">3/4</text>
<text class="split_mark" text-anchor="end" x="1440" y="732" style="fill:#8b2be2">3/8</text>
<text class="split_mark" text-anchor="end" x="1440" y="535" style="fill:#8b2be2">3/8</text>
<text class="split_mark" text-anchor="end" x="1440" y="337" style="fill:#8b2be2">3/8</text>
<text class="split_mark" text-anchor="end" x="1440" y="140" style="fill:#8b2be2">3/8</text>
<text class="split_mark" text-anchor="end" x="1640" y="743" style="fill:#8b2be2">3/8</text>
<text class="split_mark" text-anchor="end" x="1640" y="546" style="fill:#8b2be2">3/8</text>
<text class="split_mark" text-anchor="end" x="1640" y="348" style="fill:#8b2be2">3/8</text>
<text class="split_mark" text-anchor="end" x="1640" y="151" style="fill:#8b2be2">3/8</text>
<text class="split_mark" text-anchor="end" x="1640" y="85" style="fill:#8b2be2">1/8</text>
<text class="split_mark" text-anchor="end" x="1840" y="820" style="fill:#8b2be2">1/8</text>
<text class="split_mark" text-anchor="end" x="1840" y="754" style="fill:#8b2be2">1/8</text>
<text class="split_mark" text-anchor="end" x="1840" y="557" style="fill:#8b2be2">3/8</text>
<text class="split_mark" text-anchor="end" x="1840" y="491" style="fill:#8b2be2">1/8</text>
<text class="split_mark" text-anchor="end" x="1840" y="425" style="fill:#8b2be2">1/8</text>
<text class="split_mark" text-anchor="end" x="1840" y="359" style="fill:#8b2be2">1/8</text>
<text class="split_mark" text-anchor="end" x="1840" y="162" style="fill:#8b2be2">3/8</text>
<text class="split_mark" text-anchor="end" x="1840" y="96" style="fill:#8b2be2">1/8</text>
<text class="split_mark" text-anchor="end" x="2040" y="831" style="fill:#8b2be2">1/8</text>
<text class="split_mark" text-anchor="end" x="2040" y="765" style="fill:#8b2be2">1/8</text>
<text class="split_mark" text-anchor="end" x="2040" y="568" style="fill:#8b2be2">3/8</text>
<text class="split_mark" text-anchor="end" x="2040" y="502" style="fill:#8b2be2">1/8</text>
<text class="split_mark" text-anchor="end" x="2040" y="436" style="fill:#8b2be2">1/8</text>
<text class="split_mark" text-anchor="end" x="2040" y="370" style="fill:#8b2be2">1/8</text>
<text class="split_mark" text-anchor="end" x="2040" y="173" style="fill:#8b2be2">3/8</text>
<text class="split_mark" text-anchor="end" x="2240" y="776" style="fill:#8b2be2">3/8</text>
<text class="split_mark" text-anchor="end" x="2240" y="579" style="fill:#8b2be2">3/8</text>
<text class="split_mark" text-anchor="end" x="2240" y="184" style="fill:#1ac938">3/4</text>
<text class="split_mark" text-anchor="end" x="2440" y="787" style="fill:#8b2be2">3/8</text>
<text class="split_mark" text-anchor="end" x="2440" y="589" style="fill:#8b2be2">3/8</text>
<text class="split_mark" text-anchor="end" x="2440" y="195" style="fill:#1ac938">3/4</text>
<text class="split_mark" text-anchor="end" x="2640" y="798" style="fill:#8b2be2">3/8</text>
<text class="split_mark" text-anchor="end" x="2640" y="600" style="fill:#8b2be2">3/8</text>
<text class="split_mark" text-anchor="end" x="2640" y="535" style="fill:#8b2be2">1/8</text>
<text class="split_mark" text-anchor="end" x="2640" y="469" style="fill:#8b2be2">1/8</text>
<text class="split_mark" text-anchor="end" x="2640" y="403" style="fill:#8b2be2">1/8</text>
<text class="split_mark" text-anchor="end" x="2640" y="206" style="fill:#8b2be2">3/8</text>
<text class="split_mark" text-anchor="end" x="2840" y="809" style="fill:#8b2be2">3/8</text>
<text class="split_mark" text-anchor="end" x="2840" y="611" style="fill:#8b2be2">3/8</text>
<text class="split_mark" text-anchor="end" x="2840" y="546" style="fill:#8b2be2">1/8</text>
<text class="split_mark" text-anchor="end" x="2840" y="480" style="fill:#8b2be2">1/8</text>
<text class="split_mark" text-anchor="end" x="2840" y="414" style="fill:#8b2be2">1/8</text>
<text class="split_mark" text-anchor="end" x="2840" y="217" style="fill:#8b2be2">3/8</text>
<text class="split_mark" text-anchor="end" x="3040" y="820" style="fill:#8b2be2">3/8</text>
<text class="split_mark" text-anchor="end" x="3040" y="622" style="fill:#8b2be2">3/8</text>
<text class="split_mark" text-anchor="end" x="3040" y="425" style="fill:#8b2be2">3/8</text>
<text class="split_mark" text-anchor="end" x="3040" y="228" style="fill:#8b2be2">3/8</text>
<text class="split_mark" text-anchor="end" x="3040" y="162" style="fill:#8b2be2">1/8</text>
<text class="split_mark" text-anchor="end" x="3040" y="96" style="fill:#8b2be2">1/8</text>
<text class="split_mark" text-anchor="end" x="3240" y="831" style="fill:#8b2be2">1/8</text>
<text class="split_mark" text-anchor="end" x="3240" y="765" style="fill:#8b2be2">1/8</text>
<text class="split_mark" text-anchor="end" x="3240" y="699" style="fill:#8b2be2">1/8</text>
<text class="split_mark" text-anchor="end" x="3240" y="633" style="fill:#8b2be2">1/8</text>
<text class="split_mark" text-anchor="end" x="3240" y="239" style="fill:#1ac938">3/4</text>
<text class="split_mark" text-anchor="end" x="3440" y="842" style="fill:#8b2be2">3/8</text>
<text class="split_mark" text-anchor="end" x="3440" y="644" style="fill:#8b2be2">3/8</text>
<text class="split_mark" text-anchor="end" x="3440" y="579" style="fill:#8b2be2">1/8</text>
<text class="split_mark" text-anchor="end" x="3440" y="513" style="fill:#8b2be2">1/8</text>
<text class="split_mark" text-anchor="end" x="3440" y="447" style="fill:#8b2be2">1/8</text>
<text class="split_mark" text-anchor="end" x="3440" y="250" style="fill:#8b2be2">3/8</text>
<text class="split_mark" text-anchor="end" x="3640" y="853" style="fill:#8b2be2">3/8</text>
<text class="split_mark" text-anchor="end" x="3640" y="655" style="fill:#8b2be2">3/8</text>
<text class="split_mark" text-anchor="end" x="3640" y="458" style="fill:#8b2be2">3/8</text>
<text class="split_mark" text-anchor="end" x="3640" y="261" style="fill:#8b2be2">3/8</text>
<text class="split_mark" text-anchor="end" x="3640" y="63" style="fill:#8b2be2">3/8</text>
<text class="split_mark" text-anchor="end" x="3840" y="666" style="fill:#8b2be2">3/8</text>
<text class="split_mark" text-anchor="end" x="3840" y="469" style="fill:#8b2be2">3/8</text>
</g>
</svg>