<?xml version="1.0" standalone="no"?><!DOCTYPE svg PUBLIC "-//W3C//DTD SVG 1.1//EN" "http://www.w3.org/Graphics/SVG/1.1/DTD/svg11.dtd" ><svg xmlns="http://www.w3.org/2000/svg" width="4800" height="900" style="background:black">
<style>text{font:12px Arial;fill:#CDCDCD;-webkit-user-select:none;user-select:none}.bpm_mark{fill:#15CD15}</style>
<defs>
  <linearGradient id="line_hold_gradient"><stop offset="0%" stop-color="rgba(155,255,255,0.9)" /><stop offset="30%" stop-color="rgba(119,200,200,0.6)" /><stop offset="70%" stop-color="rgba(119,200,200,0.6)" /><stop offset="100%" stop-color="rgba(155,255,255,0.9)" /></linearGradient>
  <linearGradient id="line_scratch_gradient"><stop offset="0%" stop-color="rgba(228,128,255,0.9)" /><stop offset="30%" stop-color="rgba(151,83,215,0.6)" /><stop offset="70%" stop-color="rgba(151,83,215,0.6)" /><stop offset="100%" stop-color="rgba(228,128,255,0.9)" /></linearGradient>
  <g width="20" height="8" id="normal"  ><path d="M0,2v4a2,2,90,0,0,2,2h16a2,-2,90,0,0,2,-2v-4a-2,-2,90,0,0,-2,-2h-16a-2,2,90,0,0,-2,2" fill="rgb(253,98,163)" /><path d="M1,3v2a2,2,90,0,0,2,2h14a2,-2,90,0,0,2,-2v-2a-2,-2,90,0,0,-2,-2h-14a-2,2,90,0,0,-2,2" stroke="rgb(255,225,104)" fill="transparent" /></g>
  <g width="20" height="8" id="critical"><path d="M0,2v4a2,2,90,0,0,2,2h16a2,-2,90,0,0,2,-2v-4a-2,-2,90,0,0,-2,-2h-16a-2,2,90,0,0,-2,2" fill="rgb(254,166,43)" /><path d="M1,3v2a2,2,90,0,0,2,2h14a2,-2,90,0,0,2,-2v-2a-2,-2,90,0,0,-2,-2h-14a-2,2,90,0,0,-2,2" stroke="rgb(255,225,104)" fill="transparent" /></g>
  <g width="20" height="8" id="hold"    ><path d="M0,2v4a2,2,90,0,0,2,2h16a2,-2,90,0,0,2,-2v-4a-2,-2,90,0,0,-2,-2h-16a-2,2,90,0,0,-2,2" fill="rgb(18,155,250)" /><path d="M1,3v2a2,2,90,0,0,2,2h14a2,-2,90,0,0,2,-2v-2a-2,-2,90,0,0,-2,-2h-14a-2,2,90,0,0,-2,2" stroke="rgb(255,225,104)" fill="transparent" /></g>
  <g width="20" height="8" id="scratch" ><path d="M0,2v4a2,2,90,0,0,2,2h16a2,-2,90,0,0,2,-2v-4a-2,-2,90,0,0,-2,-2h-16a-2,2,90,0,0,-2,2" fill="rgb(129,59,236)" /><path d="M1,3v2a2,2,90,0,0,2,2h14a2,-2,90,0,0,2,-2v-2a-2,-2,90,0,0,-2,-2h-14a-2,2,90,0,0,-2,2" stroke="rgb(255,225,104)" fill="transparent" /></g>
  <g width="20" height="8" id="flick"   ><path d="M0,2v4a2,2,90,0,0,2,2h16a2,-2,90,0,0,2,-2v-4a-2,-2,90,0,0,-2,-2h-16a-2,2,90,0,0,-2,2" fill="rgb(129,59,236)" /><path d="M1,3v2a2,2,90,0,0,2,2h14a2,-2,90,0,0,2,-2v-2a-2,-2,90,0,0,-2,-2h-14a-2,2,90,0,0,-2,2" stroke="rgb(255,225,104)" fill="transparent" /><path d="M5,4h10" stroke="rgb(255,225,104)" /></g>
  <g width="20" height="12" id="scratch_arrow_left"><path d="M5,1l-4,6l4,6h3l-4,-6l4,-6zM11,1l-4,6l4,6h3l-4,-6l4,-6z" stroke="rgb(123,81,251)" fill="rgb(244,237,255)" /></g>
  <g width="20" height="12" id="scratch_arrow_right"><path d="M9,1l4,6l-4,6h-3l4,-6l-4,-6zM15,1l4,6l-4,6h-3l4,-6l-4,-6z" stroke="rgb(123,81,251)" fill="rgb(244,237,255)" /></g>
  <g width="20" height="12" id="scratch_arrow_both"><path d="M6,1l-4,6l4,6h3l-4,-6l4,-6zM14,1l4,6l-4,6h-3l4,-6l-4,-6z" stroke="rgb(123,81,251)" fill="rgb(244,237,255)" /></g>
  <g width="20" height="20" id="sound"><path d="M10,1l3,7l7,3l-7,3l-3,7l-3,-7l-7,-3l7,-3l3,-7" stroke="rgb(56,173,198)" fill="rgb(147,243,252)" /></g>
  <g width="20" height="20" id="sound_purple"><path d="M10,1l3,7l7,3l-7,3l-3,7l-3,-7l-7,-3l7,-3l3,-7" stroke="rgb(121,77,211)" fill="rgb(197,146,253)" /></g>
  <g width="20" height="20" id="line_hold"><path d="M0,0h20v20h-20z" fill="url('#line_hold_gradient')" /></g>
  <g width="20" height="20" id="line_scratch"><path d="M0,0h20v20h-20z" fill="url('#line_scratch_gradient')" /></g>
  <g id="beat_section" width="160" height="160"><path d="M20,0v160M140,0v160M0,0" stroke="#CCCCCC" /><path d="M40,0v160M60,0v160M80,0v160M100,0v160M120,0v160M0,0" stroke="#444444" /></g>
  <g id="beat_section_top" width="160" height="160"><path d="M20,0v160M140,0v160M0,0" stroke="#CCCCCC" /><path d="M20,0h120M40,0v160M60,0v160M80,0v160M100,0v160M120,0v160M0,0" stroke="#444444" /></g>
  <g id="beat_section_bottom" width="160" height="160"><path d="M20,0v160M140,0v160M0,0" stroke="#CCCCCC" /><path d="M20,160h120M40,0v160M60,0v160M80,0v160M100,0v160M120,0v160M0,0" stroke="#444444" /></g>
</defs>
<g class="bg_layer">
<use href="#beat_section_bottom" x="30" y="690.0" />
<use href="#beat_section" x="30" y="530.0" />
<use href="#beat_section" x="30" y="370.0" />
<use href="#beat_section" x="30" y="210.0" />
<use href="#beat_section_top" x="30" y="50.0" />
<use href="#beat_section_bottom" x="230" y="690.0" />
<use href="#beat_section" x="230" y="530.0" />
<use href="#beat_section" x="230" y="370.0" />
<use href="#beat_section" x="230" y="210.0" />
<use href="#beat_section_top" x="230" y="50.0" />
<use href="#beat_section_bottom" x="430" y="690.0" />
<use href="#beat_section" x="430" y="530.0" />
<use href="#beat_section" x="430" y="370.0" />
<use href="#beat_section" x="430" y="210.0" />
<use href="#beat_section_top" x="430" y="50.0" />
<use href="#beat_section_bottom" x="630" y="690.0" />
<use href="#beat_section" x="630" y="530.0" />
<use href="#beat_section" x="630" y="370.0" />
<use href="#beat_section" x="630" y="210.0" />
<use href="#beat_section_top" x="630" y="50.0" />
<use href="#beat_section_bottom" x="830" y="690.0" />
<use href="#beat_section" x="830" y="530.0" />
<use href="#beat_section" x="830" y="370.0" />
<use href="#beat_section" x="830" y="210.0" />
<use href="#beat_section_top" x="830" y="50.0" />
<use href="#beat_section_bottom" x="1030" y="690.0" />
<use href="#beat_section" x="1030" y="530.0" />
<use href="#beat_section" x="1030" y="370.0" />
<use href="#beat_section" x="1030" y="210.0" />
<use href="#beat_section_top" x="1030" y="50.0" />
<use href="#beat_section_bottom" x="1230" y="690.0" />
<use href="#beat_section" x="1230" y="530.0" />
<use href="#beat_section" x="1230" y="370.0" />
<use href="#beat_section" x="1230" y="210.0" />
<use href="#beat_section_top" x="1230" y="50.0" />
<use href="#beat_section_bottom" x="1430" y="690.0" />
<use href="#beat_section" x="1430" y="530.0" />
<use href="#beat_section" x="1430" y="370.0" />
<use href="#beat_section" x="1430" y="210.0" />
<use href="#beat_section_top" x="1430" y="50.0" />
<use href="#beat_section_bottom" x="1630" y="690.0" />
<use href="#beat_section" x="1630" y="530.0" />
<use href="#beat_section" x="1630" y="370.0" />
<use href="#beat_section" x="1630" y="210.0" />
<use href="#beat_section_top" x="1630" y="50.0" />
<use href="#beat_section_bottom" x="1830" y="690.0" />
<use href="#beat_section" x="1830" y="530.0" />
<use href="#beat_section" x="1830" y="370.0" />
<use href="#beat_section" x="1830" y="210.0" />
<use href="#beat_section_top" x="1830" y="50.0" />
<use href="#beat_section_bottom" x="2030" y="690.0" />
<use href="#beat_section" x="2030" y="530.0" />
<use href="#beat_section" x="2030" y="370.0" />
<use href="#beat_section" x="2030" y="210.0" />
<use href="#beat_section_top" x="2030" y="50.0" />
<use href="#beat_section_bottom" x="2230" y="690.0" />
<use href="#beat_section" x="2230" y="530.0" />
<use href="#beat_section" x="2230" y="370.0" />
<use href="#beat_section" x="2230" y="210.0" />
<use href="#beat_section_top" x="2230" y="50.0" />
<use href="#beat_section_bottom" x="2430" y="690.0" />
<use href="#beat_section" x="2430" y="530.0" />
<use href="#beat_section" x="2430" y="370.0" />
<use href="#beat_section" x="2430" y="210.0" />
<use href="#beat_section_top" x="2430" y="50.0" />
<use href="#beat_section_bottom" x="2630" y="690.0" />
<use href="#beat_section" x="2630" y="530.0" />
<use href="#beat_section" x="2630" y="370.0" />
<use href="#beat_section" x="2630" y="210.0" />
<use href="#beat_section_top" x="2630" y="50.0" />
<use href="#beat_section_bottom" x="2830" y="690.0" />
<use href="#beat_section" x="2830" y="530.0" />
<use href="#beat_section" x="2830" y="370.0" />
<use href="#beat_section" x="2830" y="210.0" />
<use href="#beat_section_top" x="2830" y="50.0" />
<use href="#beat_section_bottom" x="3030" y="690.0" />
<use href="#beat_section" x="3030" y="530.0" />
<use href="#beat_section" x="3030" y="370.0" />
<use href="#beat_section" x="3030" y="210.0" />
<use href="#beat_section_top" x="3030" y="50.0" />
<use href="#beat_section_bottom" x="3230" y="690.0" />
<use href="#beat_section" x="3230" y="530.0" />
<use href="#beat_section" x="3230" y="370.0" />
<use href="#beat_section" x="3230" y="210.0" />
<use href="#beat_section_top" x="3230" y="50.0" />
<use href="#beat_section_bottom" x="3430" y="690.0" />
<use href="#beat_section" x="3430" y="530.0" />
<use href="#beat_section" x="3430" y="370.0" />
<use href="#beat_section" x="3430" y="210.0" />
<use href="#beat_section_top" x="3430" y="50.0" />
<use href="#beat_section_bottom" x="3630" y="690.0" />
<use href="#beat_section" x="3630" y="530.0" />
<use href="#beat_section" x="3630" y="370.0" />
<use href="#beat_section" x="3630" y="210.0" />
<use href="#beat_section_top" x="3630" y="50.0" />
<use href="#beat_section_bottom" x="3830" y="690.0" />
<use href="#beat_section" x="3830" y="530.0" />
<use href="#beat_section" x="3830" y="370.0" />
<use href="#beat_section" x="3830" y="210.0" />
<use href="#beat_section_top" x="3830" y="50.0" />
<use href="#beat_section_bottom" x="4030" y="690.0" />
<use href="#beat_section" x="4030" y="530.0" />
<use href="#beat_section" x="4030" y="370.0" />
<use href="#beat_section" x="4030" y="210.0" />
<use href="#beat_section_top" x="4030" y="50.0" />
<use href="#beat_section_bottom" x="4230" y="690.0" />
<use href="#beat_section" x="4230" y="530.0" />
<use href="#beat_section" x="4230" y="370.0" />
<use href="#beat_section" x="4230" y="210.0" />
<use href="#beat_section_top" x="4230" y="50.0" />
<use href="#beat_section_bottom" x="4430" y="690.0" />
<use href="#beat_section" x="4430" y="530.0" />
<use href="#beat_section" x="4430" y="370.0" />
<use href="#beat_section" x="4430" y="210.0" />
<use href="#beat_section_top" x="4430" y="50.0" />
<use href="#beat_section_bottom" x="4630" y="690.0" />
<use href="#beat_section" x="4630" y="530.0" />
<use href="#beat_section" x="4630" y="370.0" />
<use href="#beat_section" x="4630" y="210.0" />
<use href="#beat_section_top" x="4630" y="50.0" />
<use href="#beat_section_top" x="4830" y="690.0" />
</g>
<g class="custom_line_layer">
</g>
<g class="sync_line_layer">
<path d="M50,690h120" stroke="#606060" />
<path d="M50,370h120" stroke="#606060" />
<path d="M250,850h120" stroke="#606060" />
<path d="M250,490h120" stroke="#606060" />
<path d="M1250,530h120" stroke="#606060" />
<path d="M1450,850h120" stroke="#606060" />
<path d="M1650,850h120" stroke="#606060" />
<path d="M2250,850h120" stroke="#606060" />
<path d="M3250,364h120" stroke="#606060" />
<path d="M4650,220h120" stroke="#606060" />
</g>
<g class="line_layer">
<use href="#line_hold" x="1470.0" y="530.0" b1="36.0" b2="37.0" style="transform:scaleX(2.0) scaleY(8.0);transform-origin:1470.0px 530.0px" />
<use href="#line_hold" x="1710.0" y="610.0" b1="41.0" b2="41.5" style="transform:scaleX(1.5) scaleY(4.0);transform-origin:1710.0px 610.0px" />
<use href="#line_hold" x="1680.0" y="290.0" b1="43.0" b2="43.5" style="transform:scaleX(1.5) scaleY(4.0);transform-origin:1680.0px 290.0px" />
<use href="#line_hold" x="1910.0" y="450.0" b1="47.0" b2="47.5" style="transform:scaleX(1.5) scaleY(4.0);transform-origin:1910.0px 450.0px" />
<use href="#line_hold" x="1910.0" y="130.0" b1="49.0" b2="49.5" style="transform:scaleX(1.5) scaleY(4.0);transform-origin:1910.0px 130.0px" />
<use href="#line_hold" x="2140.0" y="610.0" b1="51.0" b2="51.5" style="transform:scaleX(1.5) scaleY(4.0);transform-origin:2140.0px 610.0px" />
<use href="#line_hold" x="2340.0" y="610.0" b1="56.0" b2="56.5" style="transform:scaleX(1.5) scaleY(4.0);transform-origin:2340.0px 610.0px" />
<use href="#line_hold" x="2250.0" y="450.0" b1="57.0" b2="57.5" style="transform:scaleX(1.5) scaleY(4.0);transform-origin:2250.0px 450.0px" />
<use href="#line_hold" x="2330.0" y="130.0" b1="59.0" b2="59.5" style="transform:scaleX(2.0) scaleY(4.0);transform-origin:2330.0px 130.0px" />
<use href="#line_hold" x="2510.0" y="290.0" b1="63.0" b2="63.5" style="transform:scaleX(2.0) scaleY(4.0);transform-origin:2510.0px 290.0px" />
<use href="#line_hold" x="2450.0" y="130.0" b1="64.0" b2="64.5" style="transform:scaleX(2.0) scaleY(4.0);transform-origin:2450.0px 130.0px" />
<use href="#line_hold" x="2730.0" y="770.0" b1="65.0" b2="65.5" style="transform:scaleX(2.0) scaleY(4.0);transform-origin:2730.0px 770.0px" />
<use href="#line_hold" x="2650.0" y="450.0" b1="67.0" b2="67.5" style="transform:scaleX(2.0) scaleY(4.0);transform-origin:2650.0px 450.0px" />
<use href="#line_hold" x="2850.0" y="710.0" b1="70.5" b2="70.875" style="transform:scaleX(2.5) scaleY(3.0);transform-origin:2850.0px 710.0px" />
<use href="#line_hold" x="2930.0" y="450.0" b1="72.0" b2="72.5" style="transform:scaleX(2.0) scaleY(4.0);transform-origin:2930.0px 450.0px" />
<use href="#line_hold" x="2850.0" y="290.0" b1="73.0" b2="73.5" style="transform:scaleX(2.0) scaleY(4.0);transform-origin:2850.0px 290.0px" />
<use href="#line_hold" x="3130.0" y="770.0" b1="75.0" b2="75.5" style="transform:scaleX(2.0) scaleY(4.0);transform-origin:3130.0px 770.0px" />
<use href="#line_hold" x="3050.0" y="189.0" b1="78.0172" b2="79.1299" style="transform:scaleX(2.0) scaleY(8.9);transform-origin:3050.0px 189.0px" />
<use href="#line_hold" x="3330.0" y="524.0" b1="80.5321" b2="82.0321" style="transform:scaleX(2.0) scaleY(12.0);transform-origin:3330.0px 524.0px" />
<use href="#line_hold" x="3450.0" y="50.0" b1="89.0572" b2="90" style="transform:scaleX(2.0) scaleY(7.5);transform-origin:3450.0px 50.0px" />
<use href="#line_hold" x="3650.0" y="804.0" b1="90" b2="90.2822" style="transform:scaleX(2.0) scaleY(2.3);transform-origin:3650.0px 804.0px" />
<use href="#line_hold" x="3710.0" y="445.0" b1="91.4147" b2="92.5258" style="transform:scaleX(2.0) scaleY(8.9);transform-origin:3710.0px 445.0px" />
<use href="#line_hold" x="3870.0" y="218.0" b1="97.965" b2="98.9489" style="transform:scaleX(2.0) scaleY(7.85);transform-origin:3870.0px 218.0px" />
<use href="#line_hold" x="3930.0" y="50.0" b1="99.8722" b2="100" style="transform:scaleX(2.0)transform-origin:3930.0px 50.0px" />
<use href="#line_hold" x="4130.0" y="724.0" b1="100" b2="100.7813" style="transform:scaleX(2.0) scaleY(6.3);transform-origin:4130.0px 724.0px" />
<use href="#line_hold" x="4050.0" y="506.0" b1="101.6904" b2="102.1449" style="transform:scaleX(2.0) scaleY(3.65);transform-origin:4050.0px 506.0px" />
<use href="#line_hold" x="4130.0" y="361.0" b1="102.5995" b2="103.054" style="transform:scaleX(2.0) scaleY(3.65);transform-origin:4130.0px 361.0px" />
<use href="#line_hold" x="4050.0" y="70.0" b1="104.4176" b2="104.8722" style="transform:scaleX(2.0) scaleY(3.65);transform-origin:4050.0px 70.0px" />
<use href="#line_hold" x="4310.0" y="386.0" b1="107.0662" b2="107.8996" style="transform:scaleX(2.0) scaleY(6.65);transform-origin:4310.0px 386.0px" />
<use href="#line_hold" x="4250.0" y="191.0" b1="108.7104" b2="109.1158" style="transform:scaleX(2.0) scaleY(3.25);transform-origin:4250.0px 191.0px" />
<use href="#line_hold" x="4330.0" y="61.0" b1="109.5212" b2="109.9266" style="transform:scaleX(2.0) scaleY(3.25);transform-origin:4330.0px 61.0px" />
<use href="#line_hold" x="4450.0" y="602.0" b1="111.1428" b2="111.5482" style="transform:scaleX(2.0) scaleY(3.25);transform-origin:4450.0px 602.0px" />
<use href="#line_hold" x="4510.0" y="164.0" b1="113.5752" b2="114.2847" style="transform:scaleX(2.0) scaleY(5.65);transform-origin:4510.0px 164.0px" />
<use href="#line_hold" x="4680.0" y="688.0" b1="115.1969" b2="116.0077" style="transform:scaleX(1.5) scaleY(6.5);transform-origin:4680.0px 688.0px" />
<use href="#line_hold" x="4710.0" y="445.0" b1="116.8185" b2="117.5279" style="transform:scaleX(1.5) scaleY(5.7);transform-origin:4710.0px 445.0px" />
<use href="#sound" x="1480.0" y="640.0" />
<use href="#sound" x="1480.0" y="600.0" />
<use href="#sound" x="1480.0" y="560.0" />
<use href="#sound" x="3060.0" y="271.0" />
<use href="#sound" x="3460.0" y="90.0" />
<use href="#sound" x="3720.0" y="524.0" />
<use href="#sound" x="3880.0" y="285.0" />
<use href="#sound" x="4140.0" y="787.0" />
<use href="#sound" x="4320.0" y="442.0" />
<use href="#sound" x="4520.0" y="203.0" />
<use href="#sound" x="4685.0" y="743.0" />
<use href="#sound" x="4715.0" y="484.0" />
</g>
<g class="note_layer">
<use href="#critical" x="250.0" y="646.0" style="transform:scaleX(3.0);transform-origin:250.0px 646.0px" />
<use href="#normal" x="330.0" y="366.0" style="transform:scaleX(2.0);transform-origin:330.0px 366.0px" />
<use href="#normal" x="270.0" y="286.0" style="transform:scaleX(2.0);transform-origin:270.0px 286.0px" />
<use href="#normal" x="330.0" y="206.0" style="transform:scaleX(2.0);transform-origin:330.0px 206.0px" />
<use href="#critical" x="450.0" y="846.0" style="transform:scaleX(2.0);transform-origin:450.0px 846.0px" />
<use href="#critical" x="250.0" y="46.0" style="transform:scaleX(2.0);transform-origin:250.0px 46.0px" />
<use href="#critical" x="510.0" y="766.0" style="transform:scaleX(2.0);transform-origin:510.0px 766.0px" />
<use href="#critical" x="450.0" y="686.0" style="transform:scaleX(2.0);transform-origin:450.0px 686.0px" />
<use href="#normal" x="530.0" y="526.0" style="transform:scaleX(2.0);transform-origin:530.0px 526.0px" />
<use href="#normal" x="470.0" y="446.0" style="transform:scaleX(2.0);transform-origin:470.0px 446.0px" />
<use href="#normal" x="510.0" y="366.0" style="transform:scaleX(2.0);transform-origin:510.0px 366.0px" />
<use href="#normal" x="450.0" y="286.0" style="transform:scaleX(2.0);transform-origin:450.0px 286.0px" />
<use href="#normal" x="530.0" y="206.0" style="transform:scaleX(2.0);transform-origin:530.0px 206.0px" />
<use href="#normal" x="650.0" y="686.0" style="transform:scaleX(2.0);transform-origin:650.0px 686.0px" />
<use href="#normal" x="710.0" y="606.0" style="transform:scaleX(2.0);transform-origin:710.0px 606.0px" />
<use href="#normal" x="650.0" y="526.0" style="transform:scaleX(2.0);transform-origin:650.0px 526.0px" />
<use href="#normal" x="730.0" y="366.0" style="transform:scaleX(2.0);transform-origin:730.0px 366.0px" />
<use href="#normal" x="670.0" y="286.0" style="transform:scaleX(2.0);transform-origin:670.0px 286.0px" />
<use href="#normal" x="730.0" y="206.0" style="transform:scaleX(2.0);transform-origin:730.0px 206.0px" />
<use href="#normal" x="850.0" y="846.0" style="transform:scaleX(2.0);transform-origin:850.0px 846.0px" />
<use href="#normal" x="650.0" y="46.0" style="transform:scaleX(2.0);transform-origin:650.0px 46.0px" />
<use href="#normal" x="910.0" y="766.0" style="transform:scaleX(2.0);transform-origin:910.0px 766.0px" />
<use href="#normal" x="870.0" y="686.0" style="transform:scaleX(2.0);transform-origin:870.0px 686.0px" />
<use href="#normal" x="930.0" y="606.0" style="transform:scaleX(2.0);transform-origin:930.0px 606.0px" />
<use href="#normal" x="850.0" y="526.0" style="transform:scaleX(2.0);transform-origin:850.0px 526.0px" />
<use href="#normal" x="930.0" y="206.0" style="transform:scaleX(2.0);transform-origin:930.0px 206.0px" />
<use href="#normal" x="930.0" y="126.0" style="transform:scaleX(2.0);transform-origin:930.0px 126.0px" />
<use href="#normal" x="1070.0" y="846.0" style="transform:scaleX(2.0);transform-origin:1070.0px 846.0px" />
<use href="#normal" x="870.0" y="46.0" style="transform:scaleX(2.0);transform-origin:870.0px 46.0px" />
<use href="#normal" x="1070.0" y="766.0" style="transform:scaleX(2.0);transform-origin:1070.0px 766.0px" />
<use href="#normal" x="1110.0" y="686.0" style="transform:scaleX(2.0);transform-origin:1110.0px 686.0px" />
<use href="#normal" x="1110.0" y="606.0" style="transform:scaleX(2.0);transform-origin:1110.0px 606.0px" />
<use href="#critical" x="1050.0" y="526.0" style="transform:scaleX(2.0);transform-origin:1050.0px 526.0px" />
<use href="#normal" x="1110.0" y="366.0" style="transform:scaleX(2.0);transform-origin:1110.0px 366.0px" />
<use href="#normal" x="1110.0" y="286.0" style="transform:scaleX(2.0);transform-origin:1110.0px 286.0px" />
<use href="#normal" x="1050.0" y="206.0" style="transform:scaleX(2.0);transform-origin:1050.0px 206.0px" />
<use href="#normal" x="1050.0" y="126.0" style="transform:scaleX(2.0);transform-origin:1050.0px 126.0px" />
<use href="#normal" x="1330.0" y="846.0" style="transform:scaleX(2.0);transform-origin:1330.0px 846.0px" />
<use href="#normal" x="1130.0" y="46.0" style="transform:scaleX(2.0);transform-origin:1130.0px 46.0px" />
<use href="#normal" x="1330.0" y="766.0" style="transform:scaleX(2.0);transform-origin:1330.0px 766.0px" />
<use href="#critical" x="1250.0" y="686.0" style="transform:scaleX(3.0);transform-origin:1250.0px 686.0px" />
<use href="#critical" x="1310.0" y="526.0" style="transform:scaleX(3.0);transform-origin:1310.0px 526.0px" />
<use href="#critical" x="1250.0" y="446.0" style="transform:scaleX(3.0);transform-origin:1250.0px 446.0px" />
<use href="#critical" x="1310.0" y="366.0" style="transform:scaleX(3.0);transform-origin:1310.0px 366.0px" />
<use href="#critical" x="1250.0" y="286.0" style="transform:scaleX(3.0);transform-origin:1250.0px 286.0px" />
<use href="#critical" x="1310.0" y="206.0" style="transform:scaleX(3.0);transform-origin:1310.0px 206.0px" />
<use href="#critical" x="1250.0" y="126.0" style="transform:scaleX(3.0);transform-origin:1250.0px 126.0px" />
<use href="#critical" x="1510.0" y="846.0" style="transform:scaleX(3.0);transform-origin:1510.0px 846.0px" />
<use href="#critical" x="1310.0" y="46.0" style="transform:scaleX(3.0);transform-origin:1310.0px 46.0px" />
<use href="#hold" x="1470.0" y="686.0" style="transform:scaleX(2.0);transform-origin:1470.0px 686.0px" />
<use href="#hold" x="1470.0" y="526.0" style="transform:scaleX(2.0);transform-origin:1470.0px 526.0px" />
<use href="#critical" x="1510.0" y="406.0" style="transform:scaleX(3.0);transform-origin:1510.0px 406.0px" />
<use href="#critical" x="1740.0" y="846.0" style="transform:scaleX(1.5);transform-origin:1740.0px 846.0px" />
<use href="#critical" x="1540.0" y="46.0" style="transform:scaleX(1.5);transform-origin:1540.0px 46.0px" />
<use href="#normal" x="1680.0" y="766.0" style="transform:scaleX(1.5);transform-origin:1680.0px 766.0px" />
<use href="#hold" x="1710.0" y="686.0" style="transform:scaleX(1.5);transform-origin:1710.0px 686.0px" />
<use href="#hold" x="1710.0" y="606.0" style="transform:scaleX(1.5);transform-origin:1710.0px 606.0px" />
<use href="#critical" x="1650.0" y="526.0" style="transform:scaleX(1.5);transform-origin:1650.0px 526.0px" />
<use href="#critical" x="1710.0" y="446.0" style="transform:scaleX(1.5);transform-origin:1710.0px 446.0px" />
<use href="#critical" x="1680.0" y="366.0" style="transform:scaleX(1.5);transform-origin:1680.0px 366.0px" />
<use href="#hold" x="1680.0" y="286.0" style="transform:scaleX(1.5);transform-origin:1680.0px 286.0px" />
<use href="#normal" x="1740.0" y="206.0" style="transform:scaleX(1.5);transform-origin:1740.0px 206.0px" />
<use href="#normal" x="1680.0" y="126.0" style="transform:scaleX(1.5);transform-origin:1680.0px 126.0px" />
<use href="#normal" x="1910.0" y="846.0" style="transform:scaleX(1.5);transform-origin:1910.0px 846.0px" />
<use href="#normal" x="1710.0" y="46.0" style="transform:scaleX(1.5);transform-origin:1710.0px 46.0px" />
<use href="#normal" x="1850.0" y="766.0" style="transform:scaleX(1.5);transform-origin:1850.0px 766.0px" />
<use href="#normal" x="1940.0" y="686.0" style="transform:scaleX(1.5);transform-origin:1940.0px 686.0px" />
<use href="#normal" x="1880.0" y="606.0" style="transform:scaleX(1.5);transform-origin:1880.0px 606.0px" />
<use href="#hold" x="1910.0" y="526.0" style="transform:scaleX(1.5);transform-origin:1910.0px 526.0px" />
<use href="#hold" x="1910.0" y="446.0" style="transform:scaleX(1.5);transform-origin:1910.0px 446.0px" />
<use href="#critical" x="1850.0" y="366.0" style="transform:scaleX(1.5);transform-origin:1850.0px 366.0px" />
<use href="#normal" x="1850.0" y="286.0" style="transform:scaleX(1.5);transform-origin:1850.0px 286.0px" />
<use href="#hold" x="1910.0" y="206.0" style="transform:scaleX(1.5);transform-origin:1910.0px 206.0px" />
<use href="#hold" x="1910.0" y="126.0" style="transform:scaleX(1.5);transform-origin:1910.0px 126.0px" />
<use href="#normal" x="2080.0" y="846.0" style="transform:scaleX(1.5);transform-origin:2080.0px 846.0px" />
<use href="#normal" x="1880.0" y="46.0" style="transform:scaleX(1.5);transform-origin:1880.0px 46.0px" />
<use href="#normal" x="2080.0" y="766.0" style="transform:scaleX(1.5);transform-origin:2080.0px 766.0px" />
<use href="#hold" x="2140.0" y="686.0" style="transform:scaleX(1.5);transform-origin:2140.0px 686.0px" />
<use href="#hold" x="2140.0" y="606.0" style="transform:scaleX(1.5);transform-origin:2140.0px 606.0px" />
<use href="#normal" x="2050.0" y="526.0" style="transform:scaleX(1.5);transform-origin:2050.0px 526.0px" />
<use href="#normal" x="2110.0" y="446.0" style="transform:scaleX(1.5);transform-origin:2110.0px 446.0px" />
<use href="#normal" x="2080.0" y="366.0" style="transform:scaleX(1.5);transform-origin:2080.0px 366.0px" />
<use href="#normal" x="2140.0" y="286.0" style="transform:scaleX(1.5);transform-origin:2140.0px 286.0px" />
<use href="#normal" x="2050.0" y="206.0" style="transform:scaleX(1.5);transform-origin:2050.0px 206.0px" />
<use href="#normal" x="2110.0" y="126.0" style="transform:scaleX(1.5);transform-origin:2110.0px 126.0px" />
<use href="#critical" x="2280.0" y="846.0" style="transform:scaleX(1.5);transform-origin:2280.0px 846.0px" />
<use href="#critical" x="2080.0" y="46.0" style="transform:scaleX(1.5);transform-origin:2080.0px 46.0px" />
<use href="#critical" x="2340.0" y="686.0" style="transform:scaleX(1.5);transform-origin:2340.0px 686.0px" />
<use href="#hold" x="2340.0" y="606.0" style="transform:scaleX(1.5);transform-origin:2340.0px 606.0px" />
<use href="#critical" x="2250.0" y="526.0" style="transform:scaleX(1.5);transform-origin:2250.0px 526.0px" />
<use href="#hold" x="2250.0" y="446.0" style="transform:scaleX(1.5);transform-origin:2250.0px 446.0px" />
<use href="#critical" x="2330.0" y="366.0" style="transform:scaleX(2.0);transform-origin:2330.0px 366.0px" />
<use href="#critical" x="2250.0" y="286.0" style="transform:scaleX(2.0);transform-origin:2250.0px 286.0px" />
<use href="#critical" x="2330.0" y="206.0" style="transform:scaleX(2.0);transform-origin:2330.0px 206.0px" />
<use href="#hold" x="2330.0" y="126.0" style="transform:scaleX(2.0);transform-origin:2330.0px 126.0px" />
<use href="#normal" x="2460.0" y="846.0" style="transform:scaleX(2.0);transform-origin:2460.0px 846.0px" />
<use href="#normal" x="2260.0" y="46.0" style="transform:scaleX(2.0);transform-origin:2260.0px 46.0px" />
<use href="#normal" x="2460.0" y="766.0" style="transform:scaleX(2.0);transform-origin:2460.0px 766.0px" />
<use href="#normal" x="2520.0" y="686.0" style="transform:scaleX(2.0);transform-origin:2520.0px 686.0px" />
<use href="#normal" x="2520.0" y="606.0" style="transform:scaleX(2.0);transform-origin:2520.0px 606.0px" />
<use href="#normal" x="2470.0" y="526.0" style="transform:scaleX(2.0);transform-origin:2470.0px 526.0px" />
<use href="#normal" x="2470.0" y="446.0" style="transform:scaleX(2.0);transform-origin:2470.0px 446.0px" />
<use href="#hold" x="2510.0" y="366.0" style="transform:scaleX(2.0);transform-origin:2510.0px 366.0px" />
<use href="#hold" x="2510.0" y="286.0" style="transform:scaleX(2.0);transform-origin:2510.0px 286.0px" />
<use href="#critical" x="2450.0" y="206.0" style="transform:scaleX(2.0);transform-origin:2450.0px 206.0px" />
<use href="#hold" x="2450.0" y="126.0" style="transform:scaleX(2.0);transform-origin:2450.0px 126.0px" />
<use href="#critical" x="2730.0" y="846.0" style="transform:scaleX(2.0);transform-origin:2730.0px 846.0px" />
<use href="#critical" x="2530.0" y="46.0" style="transform:scaleX(2.0);transform-origin:2530.0px 46.0px" />
<use href="#hold" x="2730.0" y="766.0" style="transform:scaleX(2.0);transform-origin:2730.0px 766.0px" />
<use href="#critical" x="2650.0" y="686.0" style="transform:scaleX(2.0);transform-origin:2650.0px 686.0px" />
<use href="#critical" x="2730.0" y="606.0" style="transform:scaleX(2.0);transform-origin:2730.0px 606.0px" />
<use href="#critical" x="2650.0" y="526.0" style="transform:scaleX(2.0);transform-origin:2650.0px 526.0px" />
<use href="#hold" x="2650.0" y="446.0" style="transform:scaleX(2.0);transform-origin:2650.0px 446.0px" />
<use href="#normal" x="2710.0" y="366.0" style="transform:scaleX(2.0);transform-origin:2710.0px 366.0px" />
<use href="#normal" x="2710.0" y="286.0" style="transform:scaleX(2.0);transform-origin:2710.0px 286.0px" />
<use href="#normal" x="2670.0" y="206.0" style="transform:scaleX(2.0);transform-origin:2670.0px 206.0px" />
<use href="#normal" x="2670.0" y="126.0" style="transform:scaleX(2.0);transform-origin:2670.0px 126.0px" />
<use href="#critical" x="2920.0" y="846.0" style="transform:scaleX(2.5);transform-origin:2920.0px 846.0px" />
<use href="#critical" x="2720.0" y="46.0" style="transform:scaleX(2.5);transform-origin:2720.0px 46.0px" />
<use href="#critical" x="2850.0" y="766.0" style="transform:scaleX(2.5);transform-origin:2850.0px 766.0px" />
<use href="#hold" x="2850.0" y="706.0" style="transform:scaleX(2.5);transform-origin:2850.0px 706.0px" />
<use href="#critical" x="2930.0" y="526.0" style="transform:scaleX(2.0);transform-origin:2930.0px 526.0px" />
<use href="#hold" x="2930.0" y="446.0" style="transform:scaleX(2.0);transform-origin:2930.0px 446.0px" />
<use href="#critical" x="2850.0" y="366.0" style="transform:scaleX(2.0);transform-origin:2850.0px 366.0px" />
<use href="#hold" x="2850.0" y="286.0" style="transform:scaleX(2.0);transform-origin:2850.0px 286.0px" />
<use href="#critical" x="2930.0" y="206.0" style="transform:scaleX(2.0);transform-origin:2930.0px 206.0px" />
<use href="#critical" x="2850.0" y="126.0" style="transform:scaleX(2.0);transform-origin:2850.0px 126.0px" />
<use href="#critical" x="3130.0" y="846.0" style="transform:scaleX(2.0);transform-origin:3130.0px 846.0px" />
<use href="#critical" x="2930.0" y="46.0" style="transform:scaleX(2.0);transform-origin:2930.0px 46.0px" />
<use href="#hold" x="3130.0" y="766.0" style="transform:scaleX(2.0);transform-origin:3130.0px 766.0px" />
<use href="#normal" x="3050.0" y="686.0" style="transform:scaleX(2.0);transform-origin:3050.0px 686.0px" />
<use href="#normal" x="3110.0" y="606.0" style="transform:scaleX(2.0);transform-origin:3110.0px 606.0px" />
<use href="#normal" x="3070.0" y="526.0" style="transform:scaleX(2.0);transform-origin:3070.0px 526.0px" />
<use href="#normal" x="3130.0" y="446.0" style="transform:scaleX(2.0);transform-origin:3130.0px 446.0px" />
<use href="#hold" x="3050.0" y="363.0" style="transform:scaleX(2.0);transform-origin:3050.0px 363.0px" />
<use href="#hold" x="3050.0" y="185.0" style="transform:scaleX(2.0);transform-origin:3050.0px 185.0px" />
<use href="#critical" x="3330.0" y="760.0" style="transform:scaleX(2.0);transform-origin:3330.0px 760.0px" />
<use href="#hold" x="3330.0" y="520.0" style="transform:scaleX(2.0);transform-origin:3330.0px 520.0px" />
<use href="#critical" x="3250.0" y="280.0" style="transform:scaleX(2.0);transform-origin:3250.0px 280.0px" />
<use href="#normal" x="3310.0" y="52.0" style="transform:scaleX(2.0);transform-origin:3310.0px 52.0px" />
<use href="#normal" x="3510.0" y="852.0" style="transform:scaleX(2.0);transform-origin:3510.0px 852.0px" />
<use href="#normal" x="3450.0" y="623.0" style="transform:scaleX(2.0);transform-origin:3450.0px 623.0px" />
<use href="#normal" x="3510.0" y="514.0" style="transform:scaleX(2.0);transform-origin:3510.0px 514.0px" />
<use href="#normal" x="3450.0" y="405.0" style="transform:scaleX(2.0);transform-origin:3450.0px 405.0px" />
<use href="#normal" x="3510.0" y="301.0" style="transform:scaleX(2.0);transform-origin:3510.0px 301.0px" />
<use href="#hold" x="3450.0" y="196.0" style="transform:scaleX(2.0);transform-origin:3450.0px 196.0px" />
<use href="#hold" x="3650.0" y="800.0" style="transform:scaleX(2.0);transform-origin:3650.0px 800.0px" />
<use href="#hold" x="3710.0" y="619.0" style="transform:scaleX(2.0);transform-origin:3710.0px 619.0px" />
<use href="#hold" x="3710.0" y="441.0" style="transform:scaleX(2.0);transform-origin:3710.0px 441.0px" />
<use href="#critical" x="3670.0" y="264.0" style="transform:scaleX(2.0);transform-origin:3670.0px 264.0px" />
<use href="#normal" x="3730.0" y="86.0" style="transform:scaleX(2.0);transform-origin:3730.0px 86.0px" />
<use href="#normal" x="3870.0" y="708.0" style="transform:scaleX(2.0);transform-origin:3870.0px 708.0px" />
<use href="#normal" x="3930.0" y="622.0" style="transform:scaleX(2.0);transform-origin:3930.0px 622.0px" />
<use href="#normal" x="3870.0" y="537.0" style="transform:scaleX(2.0);transform-origin:3870.0px 537.0px" />
<use href="#normal" x="3930.0" y="454.0" style="transform:scaleX(2.0);transform-origin:3930.0px 454.0px" />
<use href="#hold" x="3870.0" y="371.0" style="transform:scaleX(2.0);transform-origin:3870.0px 371.0px" />
<use href="#hold" x="3870.0" y="214.0" style="transform:scaleX(2.0);transform-origin:3870.0px 214.0px" />
<use href="#hold" x="3930.0" y="66.0" style="transform:scaleX(2.0);transform-origin:3930.0px 66.0px" />
<use href="#hold" x="4130.0" y="720.0" style="transform:scaleX(2.0);transform-origin:4130.0px 720.0px" />
<use href="#critical" x="4050.0" y="575.0" style="transform:scaleX(2.0);transform-origin:4050.0px 575.0px" />
<use href="#hold" x="4050.0" y="502.0" style="transform:scaleX(2.0);transform-origin:4050.0px 502.0px" />
<use href="#critical" x="4130.0" y="430.0" style="transform:scaleX(2.0);transform-origin:4130.0px 430.0px" />
<use href="#hold" x="4130.0" y="357.0" style="transform:scaleX(2.0);transform-origin:4130.0px 357.0px" />
<use href="#critical" x="4050.0" y="284.0" style="transform:scaleX(2.0);transform-origin:4050.0px 284.0px" />
<use href="#critical" x="4130.0" y="211.0" style="transform:scaleX(2.0);transform-origin:4130.0px 211.0px" />
<use href="#critical" x="4050.0" y="139.0" style="transform:scaleX(2.0);transform-origin:4050.0px 139.0px" />
<use href="#hold" x="4050.0" y="66.0" style="transform:scaleX(2.0);transform-origin:4050.0px 66.0px" />
<use href="#normal" x="4310.0" y="793.0" style="transform:scaleX(2.0);transform-origin:4310.0px 793.0px" />
<use href="#normal" x="4270.0" y="723.0" style="transform:scaleX(2.0);transform-origin:4270.0px 723.0px" />
<use href="#normal" x="4330.0" y="652.0" style="transform:scaleX(2.0);transform-origin:4330.0px 652.0px" />
<use href="#normal" x="4250.0" y="583.0" style="transform:scaleX(2.0);transform-origin:4250.0px 583.0px" />
<use href="#hold" x="4310.0" y="515.0" style="transform:scaleX(2.0);transform-origin:4310.0px 515.0px" />
<use href="#hold" x="4310.0" y="382.0" style="transform:scaleX(2.0);transform-origin:4310.0px 382.0px" />
<use href="#critical" x="4250.0" y="252.0" style="transform:scaleX(2.0);transform-origin:4250.0px 252.0px" />
<use href="#hold" x="4250.0" y="187.0" style="transform:scaleX(2.0);transform-origin:4250.0px 187.0px" />
<use href="#critical" x="4330.0" y="122.0" style="transform:scaleX(2.0);transform-origin:4330.0px 122.0px" />
<use href="#hold" x="4330.0" y="57.0" style="transform:scaleX(2.0);transform-origin:4330.0px 57.0px" />
<use href="#critical" x="4450.0" y="792.0" style="transform:scaleX(2.0);transform-origin:4450.0px 792.0px" />
<use href="#critical" x="4530.0" y="728.0" style="transform:scaleX(2.0);transform-origin:4530.0px 728.0px" />
<use href="#critical" x="4450.0" y="663.0" style="transform:scaleX(2.0);transform-origin:4450.0px 663.0px" />
<use href="#hold" x="4450.0" y="598.0" style="transform:scaleX(2.0);transform-origin:4450.0px 598.0px" />
<use href="#normal" x="4510.0" y="533.0" style="transform:scaleX(2.0);transform-origin:4510.0px 533.0px" />
<use href="#normal" x="4470.0" y="468.0" style="transform:scaleX(2.0);transform-origin:4470.0px 468.0px" />
<use href="#normal" x="4530.0" y="403.0" style="transform:scaleX(2.0);transform-origin:4530.0px 403.0px" />
<use href="#normal" x="4450.0" y="338.0" style="transform:scaleX(2.0);transform-origin:4450.0px 338.0px" />
<use href="#critical" x="4510.0" y="273.0" style="transform:scaleX(2.0);transform-origin:4510.0px 273.0px" />
<use href="#hold" x="4510.0" y="160.0" style="transform:scaleX(2.0);transform-origin:4510.0px 160.0px" />
<use href="#hold" x="4680.0" y="814.0" style="transform:scaleX(1.5);transform-origin:4680.0px 814.0px" />
<use href="#hold" x="4680.0" y="684.0" style="transform:scaleX(1.5);transform-origin:4680.0px 684.0px" />
<use href="#hold" x="4710.0" y="555.0" style="transform:scaleX(1.5);transform-origin:4710.0px 555.0px" />
<use href="#hold" x="4710.0" y="441.0" style="transform:scaleX(1.5);transform-origin:4710.0px 441.0px" />
</g>
<g class="arrow_layer">
</g>
<g class="split_layer">
<path d="M4648.5,220.0v160.0h3v-160.0z" fill="url(#split_fadeout_0)" />
<path d="M4768.5,220.0v160.0h3v-160.0z" fill="url(#split_fadeout_1)" />
<path d="M3248.5,364.0v160.0h3v-160.0z" fill="url(#split_fadeout_1)" />
<path d="M3368.5,364.0v160.0h3v-160.0z" fill="url(#split_fadeout_1)" />
<path d="M2050,850 V210" stroke="rgba(100%,100%,100%,50.0%)" stroke-width="3" />
<path d="M2080.0,850 V210" stroke="rgba(100%,100%,100%,50.0%)" stroke-width="3" />
<path d="M2110.0,850 V210" stroke="rgba(100%,100%,100%,50.0%)" stroke-width="3" />
<path d="M2140.0,850 V210" stroke="rgba(100%,100%,100%,50.0%)" stroke-width="3" />
<path d="M2170.0,850 V210" stroke="rgba(100%,100%,100%,50.0%)" stroke-width="3" />
<path d="M1448.5,50.0v160.0h3v-160.0z" fill="url(#split_fadein_0)" />
<path d="M1478.5,50.0v160.0h3v-160.0z" fill="url(#split_fadein_1)" />
<path d="M1508.5,50.0v160.0h3v-160.0z" fill="url(#split_fadein_1)" />
<path d="M1538.5,50.0v160.0h3v-160.0z" fill="url(#split_fadein_1)" />
<path d="M1568.5,50.0v160.0h3v-160.0z" fill="url(#split_fadein_1)" />
<path d="M2048.5,50.0v160.0h3v-160.0z" fill="url(#split_fadeout_1)" />
<path d="M2078.5,50.0v160.0h3v-160.0z" fill="url(#split_fadeout_1)" />
<path d="M2108.5,50.0v160.0h3v-160.0z" fill="url(#split_fadeout_1)" />
<path d="M2138.5,50.0v160.0h3v-160.0z" fill="url(#split_fadeout_1)" />
<path d="M2168.5,50.0v160.0h3v-160.0z" fill="url(#split_fadeout_1)" />
<path d="M1850,850 V50" stroke="rgba(100%,100%,100%,50.0%)" stroke-width="3" />
<path d="M1880.0,850 V50" stroke="rgba(100%,100%,100%,50.0%)" stroke-width="3" />
<path d="M1910.0,850 V50" stroke="rgba(100%,100%,100%,50.0%)" stroke-width="3" />
<path d="M1940.0,850 V50" stroke="rgba(100%,100%,100%,50.0%)" stroke-width="3" />
<path d="M1970.0,850 V50" stroke="rgba(100%,100%,100%,50.0%)" stroke-width="3" />
<path d="M1650,850 V50" stroke="rgba(100%,100%,100%,50.0%)" stroke-width="3" />
<path d="M1680.0,850 V50" stroke="rgba(100%,100%,100%,50.0%)" stroke-width="3" />
<path d="M1710.0,850 V50" stroke="rgba(100%,100%,100%,50.0%)" stroke-width="3" />
<path d="M1740.0,850 V50" stroke="rgba(100%,100%,100%,50.0%)" stroke-width="3" />
<path d="M1770.0,850 V50" stroke="rgba(100%,100%,100%,50.0%)" stroke-width="3" />
<path d="M1250,530 V210" stroke="rgba(100%,100%,100%,50.0%)" stroke-width="3" />
<path d="M1310.0,530 V210" stroke="rgba(100%,100%,100%,50.0%)" stroke-width="3" />
<path d="M1370.0,530 V210" stroke="rgba(100%,100%,100%,50.0%)" stroke-width="3" />
<path d="M1248.5,530.0v160.0h3v-160.0z" fill="url(#split_fadein_1)" />
<path d="M1308.5,530.0v160.0h3v-160.0z" fill="url(#split_fadein_1)" />
<path d="M1368.5,530.0v160.0h3v-160.0z" fill="url(#split_fadein_1)" />
<path d="M1248.5,50.0v160.0h3v-160.0z" fill="url(#split_fadeout_1)" />
<path d="M1308.5,50.0v160.0h3v-160.0z" fill="url(#split_fadeout_1)" />
<path d="M1368.5,50.0v160.0h3v-160.0z" fill="url(#split_fadeout_1)" />
<path d="M248.5,490.0v160.0h3v-160.0z" fill="url(#split_fadeout_1)" />
<path d="M368.5,490.0v160.0h3v-160.0z" fill="url(#split_fadeout_1)" />
<path d="M48.5,50.0v160.0h3v-160.0z" fill="url(#split_fadeout_1)" />
<path d="M108.5,50.0v160.0h3v-160.0z" fill="url(#split_fadeout_1)" />
<path d="M168.5,50.0v160.0h3v-160.0z" fill="url(#split_fadeout_1)" />
<path d="M48.5,370.0v160.0h3v-160.0z" fill="url(#split_fadeout_1)" />
<path d="M88.5,370.0v160.0h3v-160.0z" fill="url(#split_fadeout_1)" />
<path d="M128.5,370.0v160.0h3v-160.0z" fill="url(#split_fadeout_1)" />
<path d="M168.5,370.0v160.0h3v-160.0z" fill="url(#split_fadeout_1)" />
<path d="M48.5,690.0v160.0h3v-160.0z" fill="url(#split_fadeout_1)" />
<path d="M78.5,690.0v160.0h3v-160.0z" fill="url(#split_fadeout_1)" />
<path d="M108.5,690.0v160.0h3v-160.0z" fill="url(#split_fadeout_1)" />
<path d="M138.5,690.0v160.0h3v-160.0z" fill="url(#split_fadeout_1)" />
<path d="M168.5,690.0v160.0h3v-160.0z" fill="url(#split_fadeout_1)" />
<defs>
<linearGradient id="split_fadein_id" x2="0" y1="100%" y2="0">color</linearGradient>
<linearGradient id="split_fadeout_id" x2="0" y2="100%">color</linearGradient>
<clipPath id="split_fadeout_clip"><rect x="50" y="50" width="4700" height="800" /></clipPath>
</defs>
</g>
<g class="text_mark_layer">
<text class="second_mark" x="175" y="850.0">seconds</text>
<text class="second_mark" x="175" y="690.0">1</text>
<text class="second_mark" x="175" y="530.0">2</text>
<text class="second_mark" x="175" y="370.0">3</text>
<text class="second_mark" x="175" y="210.0">4</text>
<text class="second_mark" x="375" y="850.0">5</text>
<text class="second_mark" x="375" y="690.0">6</text>
<text class="second_mark" x="375" y="530.0">7</text>
<text class="second_mark" x="375" y="370.0">8</text>
<text class="second_mark" x="375" y="210.0">9</text>
<text class="second_mark" x="575" y="850.0">10</text>
<text class="second_mark" x="575" y="690.0">11</text>
<text class="second_mark" x="575" y="530.0">12</text>
<text class="second_mark" x="575" y="370.0">13</text>
<text class="second_mark" x="575" y="210.0">14</text>
<text class="second_mark" x="775" y="850.0">15</text>
<text class="second_mark" x="775" y="690.0">16</text>
<text class="second_mark" x="775" y="530.0">17</text>
<text class="second_mark" x="775" y="370.0">18</text>
<text class="second_mark" x="775" y="210.0">19</text>
<text class="second_mark" x="975" y="850.0">20</text>
<text class="second_mark" x="975" y="690.0">21</text>
<text class="second_mark" x="975" y="530.0">22</text>
<text class="second_mark" x="975" y="370.0">23</text>
<text class="second_mark" x="975" y="210.0">24</text>
<text class="second_mark" x="1175" y="850.0">25</text>
<text class="second_mark" x="1175" y="690.0">26</text>
<text class="second_mark" x="1175" y="530.0">27</text>
<text class="second_mark" x="1175" y="370.0">28</text>
<text class="second_mark" x="1175" y="210.0">29</text>
<text class="second_mark" x="1375" y="850.0">30</text>
<text class="second_mark" x="1375" y="690.0">31</text>
<text class="second_mark" x="1375" y="530.0">32</text>
<text class="second_mark" x="1375" y="370.0">33</text>
<text class="second_mark" x="1375" y="210.0">34</text>
<text class="second_mark" x="1575" y="850.0">35</text>
<text class="second_mark" x="1575" y="690.0">36</text>
<text class="second_mark" x="1575" y="530.0">37</text>
<text class="second_mark" x="1575" y="370.0">38</text>
<text class="second_mark" x="1575" y="210.0">39</text>
<text class="second_mark" x="1775" y="850.0">40</text>
<text class="second_mark" x="1775" y="690.0">41</text>
<text class="second_mark" x="1775" y="530.0">42</text>
<text class="second_mark" x="1775" y="370.0">43</text>
<text class="second_mark" x="1775" y="210.0">44</text>
<text class="second_mark" x="1975" y="850.0">45</text>
<text class="second_mark" x="1975" y="690.0">46</text>
<text class="second_mark" x="1975" y="530.0">47</text>
<text class="second_mark" x="1975" y="370.0">48</text>
<text class="second_mark" x="1975" y="210.0">49</text>
<text class="second_mark" x="2175" y="850.0">50</text>
<text class="second_mark" x="2175" y="690.0">51</text>
<text class="second_mark" x="2175" y="530.0">52</text>
<text class="second_mark" x="2175" y="370.0">53</text>
<text class="second_mark" x="2175" y="210.0">54</text>
<text class="second_mark" x="2375" y="850.0">55</text>
<text class="second_mark" x="2375" y="690.0">56</text>
<text class="second_mark" x="2375" y="530.0">57</text>
<text class="second_mark" x="2375" y="370.0">58</text>
<text class="second_mark" x="2375" y="210.0">59</text>
<text class="second_mark" x="2575" y="850.0">60</text>
<text class="second_mark" x="2575" y="690.0">61</text>
<text class="second_mark" x="2575" y="530.0">62</text>
<text class="second_mark" x="2575" y="370.0">63</text>
<text class="second_mark" x="2575" y="210.0">64</text>
<text class="second_mark" x="2775" y="850.0">65</text>
<text class="second_mark" x="2775" y="690.0">66</text>
<text class="second_mark" x="2775" y="530.0">67</text>
<text class="second_mark" x="2775" y="370.0">68</text>
<text class="second_mark" x="2775" y="210.0">69</text>
<text class="second_mark" x="2975" y="850.0">70</text>
<text class="second_mark" x="2975" y="690.0">71</text>
<text class="second_mark" x="2975" y="530.0">72</text>
<text class="second_mark" x="2975" y="370.0">73</text>
<text class="second_mark" x="2975" y="210.0">74</text>
<text class="second_mark" x="3175" y="850.0">75</text>
<text class="second_mark" x="3175" y="690.0">76</text>
<text class="second_mark" x="3175" y="530.0">77</text>
<text class="second_mark" x="3175" y="370.0">78</text>
<text class="second_mark" x="3175" y="210.0">79</text>
<text class="second_mark" x="3375" y="850.0">80</text>
<text class="second_mark" x="3375" y="690.0">81</text>
<text class="second_mark" x="3375" y="530.0">82</text>
<text class="second_mark" x="3375" y="370.0">83</text>
<text class="second_mark" x="3375" y="210.0">84</text>
<text class="second_mark" x="3575" y="850.0">85</text>
<text class="second_mark" x="3575" y="690.0">86</text>
<text class="second_mark" x="3575" y="530.0">87</text>
<text class="second_mark" x="3575" y="370.0">88</text>
<text class="second_mark" x="3575" y="210.0">89</text>
<text class="second_mark" x="3775" y="850.0">90</text>
<text class="second_mark" x="3775" y="690.0">91</text>
<text class="second_mark" x="3775" y="530.0">92</text>
<text class="second_mark" x="3775" y="370.0">93</text>
<text class="second_mark" x="3775" y="210.0">94</text>
<text class="second_mark" x="3975" y="850.0">95</text>
<text class="second_mark" x="3975" y="690.0">96</text>
<text class="second_mark" x="3975" y="530.0">97</text>
<text class="second_mark" x="3975" y="370.0">98</text>
<text class="second_mark" x="3975" y="210.0">99</text>
<text class="second_mark" x="4175" y="850.0">100</text>
<text class="second_mark" x="4175" y="690.0">101</text>
<text class="second_mark" x="4175" y="530.0">102</text>
<text class="second_mark" x="4175" y="370.0">103</text>
<text class="second_mark" x="4175" y="210.0">104</text>
<text class="second_mark" x="4375" y="850.0">105</text>
<text class="second_mark" x="4375" y="690.0">106</text>
<text class="second_mark" x="4375" y="530.0">107</text>
<text class="second_mark" x="4375" y="370.0">108</text>
<text class="second_mark" x="4375" y="210.0">109</text>
<text class="second_mark" x="4575" y="850.0">110</text>
<text class="second_mark" x="4575" y="690.0">111</text>
<text class="second_mark" x="4575" y="530.0">112</text>
<text class="second_mark" x="4575" y="370.0">113</text>
<text class="second_mark" x="4575" y="210.0">114</text>
<text class="second_mark" x="4775" y="850.0">115</text>
<text class="second_mark" x="4775" y="690.0">116</text>
<text class="second_mark" x="4775" y="530.0">117</text>
<text class="second_mark" x="4775" y="370.0">118</text>
<text class="second_mark" x="4775" y="210.0">119</text>
<text class="second_mark" x="4975" y="850.0">120</text>
</g>
</svg>