<?xml version="1.0" standalone="no"?><!DOCTYPE svg PUBLIC "-//W3C//DTD SVG 1.1//EN" "http://www.w3.org/Graphics/SVG/1.1/DTD/svg11.dtd" ><svg xmlns="http://www.w3.org/2000/svg" width="200" height="900" style="background:black">
<style>text{font:12px Arial;fill:#CDCDCD;-webkit-user-select:none;user-select:none}.bpm_mark{fill:#15CD15}</style>
<defs>
  <linearGradient id="line_hold_gradient"><stop offset="0%" stop-color="rgba(155,255,255,0.9)" /><stop offset="30%" stop-color="rgba(119,200,200,0.6)" /><stop offset="70%" stop-color="rgba(119,200,200,0.6)" /><stop offset="100%" stop-color="rgba(155,255,255,0.9)" /></linearGradient>
  <linearGradient id="line_scratch_gradient"><stop offset="0%" stop-color="rgba(228,128,255,0.9)" /><stop offset="30%" stop-color="rgba(151,83,215,0.6)" /><stop offset="70%" stop-color="rgba(151,83,215,0.6)" /><stop offset="100%" stop-color="rgba(228,128,255,0.9)" /></linearGradient>
  <g width="20" height="8" id="normal"  ><path d="M0,2v4a2,2,90,0,0,2,2h16a2,-2,90,0,0,2,-2v-4a-2,-2,90,0,0,-2,-2h-16a-2,2,90,0,0,-2,2" fill="rgb(253,98,163)" /><path d="M1,3v2a2,2,90,0,0,2,2h14a2,-2,90,0,0,2,-2v-2a-2,-2,90,0,0,-2,-2h-14a-2,2,90,0,0,-2,2" stroke="rgb(255,225,104)" fill="transparent" /></g>
  <g width="20" height="8" id="critical"><path d="M0,2v4a2,2,90,0,0,2,2h16a2,-2,90,0,0,2,-2v-4a-2,-2,90,0,0,-2,-2h-16a-2,2,90,0,0,-2,2" fill="rgb(254,166,43)" /><path d="M1,3v2a2,2,90,0,0,2,2h14a2,-2,90,0,0,2,-2v-2a-2,-2,90,0,0,-2,-2h-14a-2,2,90,0,0,-2,2" stroke="rgb(255,225,104)" fill="transparent" /></g>
  <g width="20" height="8" id="hold"    ><path d="M0,2v4a2,2,90,0,0,2,2h16a2,-2,90,0,0,2,-2v-4a-2,-2,90,0,0,-2,-2h-16a-2,2,90,0,0,-2,2" fill="rgb(18,155,250)" /><path d="M1,3v2a2,2,90,0,0,2,2h14a2,-2,90,0,0,2,-2v-2a-2,-2,90,0,0,-2,-2h-14a-2,2,90,0,0,-2,2" stroke="rgb(255,225,104)" fill="transparent" /></g>
  <g width="20" height="8" id="scratch" ><path d="M0,2v4a2,2,90,0,0,2,2h16a2,-2,90,0,0,2,-2v-4a-2,-2,90,0,0,-2,-2h-16a-2,2,90,0,0,-2,2" fill="rgb(129,59,236)" /><path d="M1,3v2a2,2,90,0,0,2,2h14a2,-2,90,0,0,2,-2v-2a-2,-2,90,0,0,-2,-2h-14a-2,2,90,0,0,-2,2" stroke="rgb(255,225,104)" fill="transparent" /></g>
  <g width="20" height="8" id="flick"   ><path d="M0,2v4a2,2,90,0,0,2,2h16a2,-2,90,0,0,2,-2v-4a-2,-2,90,0,0,-2,-2h-16a-2,2,90,0,0,-2,2" fill="rgb(129,59,236)" /><path d="M1,3v2a2,2,90,0,0,2,2h14a2,-2,90,0,0,2,-2v-2a-2,-2,90,0,0,-2,-2h-14a-2,2,90,0,0,-2,2" stroke="rgb(255,225,104)" fill="transparent" /><path d="M5,4h10" stroke="rgb(255,225,104)" /></g>
  <g width="20" height="12" id="scratch_arrow_left"><path d="M5,1l-4,6l4,6h3l-4,-6l4,-6zM11,1l-4,6l4,6h3l-4,-6l4,-6z" stroke="rgb(123,81,251)" fill="rgb(244,237,255)" /></g>
  <g width="20" height="12" id="scratch_arrow_right"><path d="M9,1l4,6l-4,6h-3l4,-6l-4,-6zM15,1l4,6l-4,6h-3l4,-6l-4,-6z" stroke="rgb(123,81,251)" fill="rgb(244,237,255)" /></g>
  <g width="20" height="12" id="scratch_arrow_both"><path d="M6,1l-4,6l4,6h3l-4,-6l4,-6zM14,1l4,6l-4,6h-3l4,-6l-4,-6z" stroke="rgb(123,81,251)" fill="rgb(244,237,255)" /></g>
  <g width="20" height="20" id="sound"><path d="M10,1l3,7l7,3l-7,3l-3,7l-3,-7l-7,-3l7,-3l3,-7" stroke="rgb(56,173,198)" fill="rgb(147,243,252)" /></g>
  <g width="20" height="20" id="sound_purple"><path d="M10,1l3,7l7,3l-7,3l-3,7l-3,-7l-7,-3l7,-3l3,-7" stroke="rgb(121,77,211)" fill="rgb(197,146,253)" /></g>
  <g width="20" height="20" id="line_hold"><path d="M0,0h20v20h-20z" fill="url('#line_hold_gradient')" /></g>
  <g width="20" height="20" id="line_scratch"><path d="M0,0h20v20h-20z" fill="url('#line_scratch_gradient')" /></g>
  <g id="beat_section" width="160" height="160"><path d="M20,0v160M140,0v160M0,0" stroke="#CCCCCC" /><path d="M40,0v160M60,0v160M80,0v160M100,0v160M120,0v160M0,0" stroke="#444444" /></g>
  <g id="beat_section_top" width="160" height="160"><path d="M20,0v160M140,0v160M0,0" stroke="#CCCCCC" /><path d="M20,0h120M40,0v160M60,0v160M80,0v160M100,0v160M120,0v160M0,0" stroke="#444444" /></g>
  <g id="beat_section_bottom" width="160" height="160"><path d="M20,0v160M140,0v160M0,0" stroke="#CCCCCC" /><path d="M20,160h120M40,0v160M60,0v160M80,0v160M100,0v160M120,0v160M0,0" stroke="#444444" /></g>
</defs>
<g class="bg_layer">
<use href="#beat_section_bottom" x="30" y="690.0" />
<use href="#beat_section" x="30" y="530.0" />
<use href="#beat_section" x="30" y="370.0" />
<use href="#beat_section_top" x="30" y="210.0" />
</g>
<g class="custom_line_layer">
</g>
<g class="sync_line_layer">
<path d="M50,662h120" stroke="#606060" />
</g>
<g class="line_layer">
</g>
<g class="note_layer">
<use href="#normal" x="50.0" y="818.0" style="transform:scaleX(1.5);transform-origin:50.0px 818.0px" />
</g>
<g class="arrow_layer">
</g>
<g class="split_layer">
<path d="M48.5,662.0v160.0h3v-160.0z" fill="url(#split_fadeout_0)" />
<path d="M78.5,662.0v160.0h3v-160.0z" fill="url(#split_fadeout_1)" />
<path d="M108.5,662.0v160.0h3v-160.0z" fill="url(#split_fadeout_1)" />
<path d="M138.5,662.0v160.0h3v-160.0z" fill="url(#split_fadeout_1)" />
<path d="M168.5,662.0v160.0h3v-160.0z" fill="url(#split_fadeout_1)" />
<defs>
<linearGradient id="split_fadeout_id" x2="0" y2="100%">color</linearGradient>
<clipPath id="split_fadeout_clip"><rect x="50" y="50" width="100" height="800" /></clipPath>
</defs>
</g>
<g class="text_mark_layer">
<text class="second_mark" x="175" y="850.0">seconds</text>
<text class="second_mark" x="175" y="690.0">1</text>
<text class="second_mark" x="175" y="530.0">2</text>
<text class="second_mark" x="175" y="370.0">3</text>
</g>
</svg>