<?xml version="1.0" standalone="no"?><!DOCTYPE svg PUBLIC "-//W3C//DTD SVG 1.1//EN" "http://www.w3.org/Graphics/SVG/1.1/DTD/svg11.dtd" ><svg xmlns="http://www.w3.org/2000/svg" width="3400" height="900" style="background:black">
<style>text{font:12px Arial;fill:#CDCDCD;-webkit-user-select:none;user-select:none}.bpm_mark{fill:#15CD15}</style>
<defs>
  <linearGradient id="line_hold_gradient"><stop offset="0%" stop-color="rgba(155,255,255,0.9)" /><stop offset="30%" stop-color="rgba(119,200,200,0.6)" /><stop offset="70%" stop-color="rgba(119,200,200,0.6)" /><stop offset="100%" stop-color="rgba(155,255,255,0.9)" /></linearGradient>
  <linearGradient id="line_scratch_gradient"><stop offset="0%" stop-color="rgba(228,128,255,0.9)" /><stop offset="30%" stop-color="rgba(151,83,215,0.6)" /><stop offset="70%" stop-color="rgba(151,83,215,0.6)" /><stop offset="100%" stop-color="rgba(228,128,255,0.9)" /></linearGradient>
  <g width="20" height="8" id="normal"  ><path d="M0,2v4a2,2,90,0,0,2,2h16a2,-2,90,0,0,2,-2v-4a-2,-2,90,0,0,-2,-2h-16a-2,2,90,0,0,-2,2" fill="rgb(253,98,163)" /><path d="M1,3v2a2,2,90,0,0,2,2h14a2,-2,90,0,0,2,-2v-2a-2,-2,90,0,0,-2,-2h-14a-2,2,90,0,0,-2,2" stroke="rgb(255,225,104)" fill="transparent" /></g>
  <g width="20" height="8" id="critical"><path d="M0,2v4a2,2,90,0,0,2,2h16a2,-2,90,0,0,2,-2v-4a-2,-2,90,0,0,-2,-2h-16a-2,2,90,0,0,-2,2" fill="rgb(254,166,43)" /><path d="M1,3v2a2,2,90,0,0,2,2h14a2,-2,90,0,0,2,-2v-2a-2,-2,90,0,0,-2,-2h-14a-2,2,90,0,0,-2,2" stroke="rgb(255,225,104)" fill="transparent" /></g>
  <g width="20" height="8" id="hold"    ><path d="M0,2v4a2,2,90,0,0,2,2h16a2,-2,90,0,0,2,-2v-4a-2,-2,90,0,0,-2,-2h-16a-2,2,90,0,0,-2,2" fill="rgb(18,155,250)" /><path d="M1,3v2a2,2,90,0,0,2,2h14a2,-2,90,0,0,2,-2v-2a-2,-2,90,0,0,-2,-2h-14a-2,2,90,0,0,-2,2" stroke="rgb(255,225,104)" fill="transparent" /></g>
  <g width="20" height="8" id="scratch" ><path d="M0,2v4a2,2,90,0,0,2,2h16a2,-2,90,0,0,2,-2v-4a-2,-2,90,0,0,-2,-2h-16a-2,2,90,0,0,-2,2" fill="rgb(129,59,236)" /><path d="M1,3v2a2,2,90,0,0,2,2h14a2,-2,90,0,0,2,-2v-2a-2,-2,90,0,0,-2,-2h-14a-2,2,90,0,0,-2,2" stroke="rgb(255,225,104)" fill="transparent" /></g>
  <g width="20" height="8" id="flick"   ><path d="M0,2v4a2,2,90,0,0,2,2h16a2,-2,90,0,0,2,-2v-4a-2,-2,90,0,0,-2,-2h-16a-2,2,90,0,0,-2,2" fill="rgb(129,59,236)" /><path d="M1,3v2a2,2,90,0,0,2,2h14a2,-2,90,0,0,2,-2v-2a-2,-2,90,0,0,-2,-2h-14a-2,2,90,0,0,-2,2" stroke="rgb(255,225,104)" fill="transparent" /><path d="M5,4h10" stroke="rgb(255,225,104)" /></g>
  <g width="20" height="12" id="scratch_arrow_left"><path d="M5,1l-4,6l4,6h3l-4,-6l4,-6zM11,1l-4,6l4,6h3l-4,-6l4,-6z" stroke="rgb(123,81,251)" fill="rgb(244,237,255)" /></g>
  <g width="20" height="12" id="scratch_arrow_right"><path d="M9,1l4,6l-4,6h-3l4,-6l-4,-6zM15,1l4,6l-4,6h-3l4,-6l-4,-6z" stroke="rgb(123,81,251)" fill="rgb(244,237,255)" /></g>
  <g width="20" height="12" id="scratch_arrow_both"><path d="M6,1l-4,6l4,6h3l-4,-6l4,-6zM14,1l4,6l-4,6h-3l4,-6l-4,-6z" stroke="rgb(123,81,251)" fill="rgb(244,237,255)" /></g>
  <g width="20" height="20" id="sound"><path d="M10,1l3,7l7,3l-7,3l-3,7l-3,-7l-7,-3l7,-3l3,-7" stroke="rgb(56,173,198)" fill="rgb(147,243,252)" /></g>
  <g width="20" height="20" id="sound_purple"><path d="M10,1l3,7l7,3l-7,3l-3,7l-3,-7l-7,-3l7,-3l3,-7" stroke="rgb(121,77,211)" fill="rgb(197,146,253)" /></g>
  <g width="20" height="20" id="line_hold"><path d="M0,0h20v20h-20z" fill="url('#line_hold_gradient')" /></g>
  <g width="20" height="20" id="line_scratch"><path d="M0,0h20v20h-20z" fill="url('#line_scratch_gradient')" /></g>
  <g id="beat_section" width="160" height="160"><path d="M20,0v160M140,0v160M0,0" stroke="#CCCCCC" /><path d="M40,0v160M60,0v160M80,0v160M100,0v160M120,0v160M0,0" stroke="#444444" /></g>
  <g id="beat_section_top" width="160" height="160"><path d="M20,0v160M140,0v160M0,0" stroke="#CCCCCC" /><path d="M20,0h120M40,0v160M60,0v160M80,0v160M100,0v160M120,0v160M0,0" stroke="#444444" /></g>
  <g id="beat_section_bottom" width="160" height="160"><path d="M20,0v160M140,0v160M0,0" stroke="#CCCCCC" /><path d="M20,160h120M40,0v160M60,0v160M80,0v160M100,0v160M120,0v160M0,0" stroke="#444444" /></g>
</defs>
<g class="bg_layer">
<use href="#beat_section_bottom" x="30" y="690.0" />
<use href="#beat_section" x="30" y="530.0" />
<use href="#beat_section" x="30" y="370.0" />
<use href="#beat_section" x="30" y="210.0" />
<use href="#beat_section_top" x="30" y="50.0" />
<use href="#beat_section_bottom" x="230" y="690.0" />
<use href="#beat_section" x="230" y="530.0" />
<use href="#beat_section" x="230" y="370.0" />
<use href="#beat_section" x="230" y="210.0" />
<use href="#beat_section_top" x="230" y="50.0" />
<use href="#beat_section_bottom" x="430" y="690.0" />
<use href="#beat_section" x="430" y="530.0" />
<use href="#beat_section" x="430" y="370.0" />
<use href="#beat_section" x="430" y="210.0" />
<use href="#beat_section_top" x="430" y="50.0" />
<use href="#beat_section_bottom" x="630" y="690.0" />
<use href="#beat_section" x="630" y="530.0" />
<use href="#beat_section" x="630" y="370.0" />
<use href="#beat_section" x="630" y="210.0" />
<use href="#beat_section_top" x="630" y="50.0" />
<use href="#beat_section_bottom" x="830" y="690.0" />
<use href="#beat_section" x="830" y="530.0" />
<use href="#beat_section" x="830" y="370.0" />
<use href="#beat_section" x="830" y="210.0" />
<use href="#beat_section_top" x="830" y="50.0" />
<use href="#beat_section_bottom" x="1030" y="690.0" />
<use href="#beat_section" x="1030" y="530.0" />
<use href="#beat_section" x="1030" y="370.0" />
<use href="#beat_section" x="1030" y="210.0" />
<use href="#beat_section_top" x="1030" y="50.0" />
<use href="#beat_section_bottom" x="1230" y="690.0" />
<use href="#beat_section" x="1230" y="530.0" />
<use href="#beat_section" x="1230" y="370.0" />
<use href="#beat_section" x="1230" y="210.0" />
<use href="#beat_section_top" x="1230" y="50.0" />
<use href="#beat_section_bottom" x="1430" y="690.0" />
<use href="#beat_section" x="1430" y="530.0" />
<use href="#beat_section" x="1430" y="370.0" />
<use href="#beat_section" x="1430" y="210.0" />
<use href="#beat_section_top" x="1430" y="50.0" />
<use href="#beat_section_bottom" x="1630" y="690.0" />
<use href="#beat_section" x="1630" y="530.0" />
<use href="#beat_section" x="1630" y="370.0" />
<use href="#beat_section" x="1630" y="210.0" />
<use href="#beat_section_top" x="1630" y="50.0" />
<use href="#beat_section_bottom" x="1830" y="690.0" />
<use href="#beat_section" x="1830" y="530.0" />
<use href="#beat_section" x="1830" y="370.0" />
<use href="#beat_section" x="1830" y="210.0" />
<use href="#beat_section_top" x="1830" y="50.0" />
<use href="#beat_section_bottom" x="2030" y="690.0" />
<use href="#beat_section" x="2030" y="530.0" />
<use href="#beat_section" x="2030" y="370.0" />
<use href="#beat_section" x="2030" y="210.0" />
<use href="#beat_section_top" x="2030" y="50.0" />
<use href="#beat_section_bottom" x="2230" y="690.0" />
<use href="#beat_section" x="2230" y="530.0" />
<use href="#beat_section" x="2230" y="370.0" />
<use href="#beat_section" x="2230" y="210.0" />
<use href="#beat_section_top" x="2230" y="50.0" />
<use href="#beat_section_bottom" x="2430" y="690.0" />
<use href="#beat_section" x="2430" y="530.0" />
<use href="#beat_section" x="2430" y="370.0" />
<use href="#beat_section" x="2430" y="210.0" />
<use href="#beat_section_top" x="2430" y="50.0" />
<use href="#beat_section_bottom" x="2630" y="690.0" />
<use href="#beat_section" x="2630" y="530.0" />
<use href="#beat_section" x="2630" y="370.0" />
<use href="#beat_section" x="2630" y="210.0" />
<use href="#beat_section_top" x="2630" y="50.0" />
<use href="#beat_section_bottom" x="2830" y="690.0" />
<use href="#beat_section" x="2830" y="530.0" />
<use href="#beat_section" x="2830" y="370.0" />
<use href="#beat_section" x="2830" y="210.0" />
<use href="#beat_section_top" x="2830" y="50.0" />
<use href="#beat_section_bottom" x="3030" y="690.0" />
<use href="#beat_section" x="3030" y="530.0" />
<use href="#beat_section" x="3030" y="370.0" />
<use href="#beat_section" x="3030" y="210.0" />
<use href="#beat_section_top" x="3030" y="50.0" />
<use href="#beat_section_bottom" x="3230" y="690.0" />
<use href="#beat_section" x="3230" y="530.0" />
<use href="#beat_section_top" x="3230" y="370.0" />
</g>
<g class="custom_line_layer">
<path d="M50,821.000h120" stroke="red" />
<path d="M50,708.000h120" stroke="#D7BF90" />
<path d="M50,595.000h120" stroke="#D7BF90" />
<path d="M50,482.000h120" stroke="#D7BF90" />
<path d="M50,369.000h120" stroke="#D7BF90" />
<path d="M50,257.000h120" stroke="#D7BF90" />
<path d="M50,144.000h120" stroke="#D7BF90" />
<path d="M250,831.000h120" stroke="#D7BF90" />
<path d="M250,718.000h120" stroke="#D7BF90" />
<path d="M250,605.000h120" stroke="#D7BF90" />
<path d="M250,492.000h120" stroke="#D7BF90" />
<path d="M250,379.000h120" stroke="#D7BF90" />
<path d="M250,266.000h120" stroke="#D7BF90" />
<path d="M250,153.000h120" stroke="#D7BF90" />
<path d="M450,840.000h120" stroke="#D7BF90" />
<path d="M450,727.000h120" stroke="#D7BF90" />
<path d="M450,614.000h120" stroke="#D7BF90" />
<path d="M450,501.000h120" stroke="#D7BF90" />
<path d="M450,388.000h120" stroke="#D7BF90" />
<path d="M450,275.000h120" stroke="#D7BF90" />
<path d="M450,162.000h120" stroke="#D7BF90" />
<path d="M650,849.000h120" stroke="#D7BF90" />
<path d="M650,737.000h120" stroke="#D7BF90" />
<path d="M650,624.000h120" stroke="#D7BF90" />
<path d="M650,511.000h120" stroke="#D7BF90" />
<path d="M650,398.000h120" stroke="#D7BF90" />
<path d="M650,285.000h120" stroke="#D7BF90" />
<path d="M650,172.000h120" stroke="#D7BF90" />
<path d="M650,59.000h120" stroke="#D7BF90" />
<path d="M850,746.000h120" stroke="#D7BF90" />
<path d="M850,633.000h120" stroke="#D7BF90" />
<path d="M850,520.000h120" stroke="#D7BF90" />
<path d="M850,407.000h120" stroke="#D7BF90" />
<path d="M850,294.000h120" stroke="#D7BF90" />
<path d="M850,181.000h120" stroke="#D7BF90" />
<path d="M850,68.000h120" stroke="#D7BF90" />
<path d="M1050,755.000h120" stroke="#D7BF90" />
<path d="M1050,642.000h120" stroke="#D7BF90" />
<path d="M1050,529.000h120" stroke="#D7BF90" />
<path d="M1050,417.000h120" stroke="#D7BF90" />
<path d="M1050,304.000h120" stroke="#D7BF90" />
<path d="M1050,191.000h120" stroke="#D7BF90" />
<path d="M1050,78.000h120" stroke="#D7BF90" />
<path d="M1250,765.000h120" stroke="#D7BF90" />
<path d="M1250,652.000h120" stroke="#D7BF90" />
<path d="M1250,539.000h120" stroke="#D7BF90" />
<path d="M1250,426.000h120" stroke="#D7BF90" />
<path d="M1250,313.000h120" stroke="#D7BF90" />
<path d="M1250,200.000h120" stroke="#D7BF90" />
<path d="M1250,87.000h120" stroke="#D7BF90" />
<path d="M1450,774.000h120" stroke="#D7BF90" />
<path d="M1450,661.000h120" stroke="#D7BF90" />
<path d="M1450,548.000h120" stroke="#D7BF90" />
<path d="M1450,435.000h120" stroke="#D7BF90" />
<path d="M1450,322.000h120" stroke="#D7BF90" />
<path d="M1450,209.000h120" stroke="#D7BF90" />
<path d="M1450,97.000h120" stroke="#D7BF90" />
<path d="M1650,784.000h120" stroke="#D7BF90" />
<path d="M1650,671.000h120" stroke="#D7BF90" />
<path d="M1650,558.000h120" stroke="#D7BF90" />
<path d="M1650,445.000h120" stroke="#D7BF90" />
<path d="M1650,332.000h120" stroke="#D7BF90" />
<path d="M1650,219.000h120" stroke="#D7BF90" />
<path d="M1650,106.000h120" stroke="#D7BF90" />
<path d="M1850,793.000h120" stroke="#D7BF90" />
<path d="M1850,680.000h120" stroke="#D7BF90" />
<path d="M1850,567.000h120" stroke="#D7BF90" />
<path d="M1850,454.000h120" stroke="#D7BF90" />
<path d="M1850,341.000h120" stroke="#D7BF90" />
<path d="M1850,228.000h120" stroke="#D7BF90" />
<path d="M1850,115.000h120" stroke="#D7BF90" />
<path d="M2050,802.000h120" stroke="#D7BF90" />
<path d="M2050,689.000h120" stroke="#D7BF90" />
<path d="M2050,577.000h120" stroke="#D7BF90" />
<path d="M2050,464.000h120" stroke="#D7BF90" />
<path d="M2050,351.000h120" stroke="#D7BF90" />
<path d="M2050,238.000h120" stroke="#D7BF90" />
<path d="M2050,125.000h120" stroke="#D7BF90" />
<path d="M2250,812.000h120" stroke="#D7BF90" />
<path d="M2250,699.000h120" stroke="#D7BF90" />
<path d="M2250,586.000h120" stroke="#D7BF90" />
<path d="M2250,473.000h120" stroke="#D7BF90" />
<path d="M2250,360.000h120" stroke="#D7BF90" />
<path d="M2250,247.000h120" stroke="#D7BF90" />
<path d="M2250,134.000h120" stroke="#D7BF90" />
<path d="M2450,821.000h120" stroke="#D7BF90" />
<path d="M2450,708.000h120" stroke="#D7BF90" />
<path d="M2450,595.000h120" stroke="#D7BF90" />
<path d="M2450,482.000h120" stroke="#D7BF90" />
<path d="M2450,369.000h120" stroke="#D7BF90" />
<path d="M2450,257.000h120" stroke="#D7BF90" />
<path d="M2450,144.000h120" stroke="#D7BF90" />
<path d="M2650,831.000h120" stroke="#D7BF90" />
<path d="M2650,718.000h120" stroke="#D7BF90" />
<path d="M2650,605.000h120" stroke="#D7BF90" />
<path d="M2650,492.000h120" stroke="#D7BF90" />
<path d="M2650,379.000h120" stroke="#D7BF90" />
<path d="M2650,266.000h120" stroke="#D7BF90" />
<path d="M2650,153.000h120" stroke="#D7BF90" />
<path d="M2850,840.000h120" stroke="#D7BF90" />
<path d="M2850,727.000h120" stroke="#D7BF90" />
<path d="M2850,614.000h120" stroke="#D7BF90" />
<path d="M2850,501.000h120" stroke="#D7BF90" />
<path d="M2850,388.000h120" stroke="#D7BF90" />
<path d="M2850,275.000h120" stroke="#D7BF90" />
<path d="M2850,162.000h120" stroke="#D7BF90" />
<path d="M3050,849.000h120" stroke="#D7BF90" />
<path d="M3050,737.000h120" stroke="#D7BF90" />
<path d="M3050,624.000h120" stroke="#D7BF90" />
<path d="M3050,511.000h120" stroke="#D7BF90" />
<path d="M3050,398.000h120" stroke="#D7BF90" />
<path d="M3050,285.000h120" stroke="#D7BF90" />
<path d="M3050,172.000h120" stroke="#D7BF90" />
<path d="M3050,59.000h120" stroke="#D7BF90" />
<path d="M3250,746.000h120" stroke="#D7BF90" />
<path d="M3250,633.000h120" stroke="#D7BF90" />
<path d="M42,821.000h8" stroke="#023eff" />
<path d="M42,370.000h8" stroke="#ff7c00" />
<path d="M42,313.000h8" stroke="#023eff" />
<path d="M42,257.000h8" stroke="#1ac938" />
<path d="M42,200.000h8" stroke="#1ac938" />
<path d="M42,144.000h8" stroke="#ff7c00" />
<path d="M242,718.000h8" stroke="#ff7c00" />
<path d="M242,266.000h8" stroke="#023eff" />
<path d="M242,210.000h8" stroke="#023eff" />
<path d="M242,153.000h8" stroke="#1ac938" />
<path d="M242,97.000h8" stroke="#1ac938" />
<path d="M442,840.000h8" stroke="#ff7c00" />
<path d="M442,614.000h8" stroke="#ff7c00" />
<path d="M442,388.000h8" stroke="#ff7c00" />
<path d="M442,162.000h8" stroke="#ff7c00" />
<path d="M442,106.000h8" stroke="#023eff" />
<path d="M642,850.000h8" stroke="#1ac938" />
<path d="M642,793.000h8" stroke="#1ac938" />
<path d="M642,737.000h8" stroke="#ff7c00" />
<path d="M642,511.000h8" stroke="#ff7c00" />
<path d="M642,285.000h8" stroke="#ff7c00" />
<path d="M642,59.000h8" stroke="#ff7c00" />
<path d="M842,802.000h8" stroke="#023eff" />
<path d="M842,746.000h8" stroke="#1ac938" />
<path d="M842,690.000h8" stroke="#1ac938" />
<path d="M842,633.000h8" stroke="#ff7c00" />
<path d="M842,407.000h8" stroke="#ff7c00" />
<path d="M842,351.000h8" stroke="#023eff" />
<path d="M842,294.000h8" stroke="#1ac938" />
<path d="M842,238.000h8" stroke="#1ac938" />
<path d="M842,181.000h8" stroke="#ff7c00" />
<path d="M1042,755.000h8" stroke="#ff7c00" />
<path d="M1042,699.000h8" stroke="#023eff" />
<path d="M1042,642.000h8" stroke="#1ac938" />
<path d="M1042,586.000h8" stroke="#1ac938" />
<path d="M1042,530.000h8" stroke="#ff7c00" />
<path d="M1042,304.000h8" stroke="#023eff" />
<path d="M1042,247.000h8" stroke="#023eff" />
<path d="M1042,191.000h8" stroke="#1ac938" />
<path d="M1042,134.000h8" stroke="#1ac938" />
<path d="M1042,78.000h8" stroke="#ff7c00" />
<path d="M1242,652.000h8" stroke="#ff7c00" />
<path d="M1242,595.000h8" stroke="#023eff" />
<path d="M1242,539.000h8" stroke="#1ac938" />
<path d="M1242,482.000h8" stroke="#1ac938" />
<path d="M1242,426.000h8" stroke="#ff7c00" />
<path d="M1242,200.000h8" stroke="#ff7c00" />
<path d="M1442,774.000h8" stroke="#ff7c00" />
<path d="M1442,548.000h8" stroke="#023eff" />
<path d="M1442,322.000h8" stroke="#ff7c00" />
<path d="M1442,97.000h8" stroke="#ff7c00" />
<path d="M1642,671.000h8" stroke="#ff7c00" />
<path d="M1642,445.000h8" stroke="#ff7c00" />
<path d="M1642,388.000h8" stroke="#023eff" />
<path d="M1642,332.000h8" stroke="#1ac938" />
<path d="M1642,275.000h8" stroke="#1ac938" />
<path d="M1642,219.000h8" stroke="#ff7c00" />
<path d="M1842,793.000h8" stroke="#ff7c00" />
<path d="M1842,567.000h8" stroke="#ff7c00" />
<path d="M1842,341.000h8" stroke="#023eff" />
<path d="M1842,285.000h8" stroke="#023eff" />
<path d="M1842,228.000h8" stroke="#1ac938" />
<path d="M1842,172.000h8" stroke="#1ac938" />
<path d="M1842,115.000h8" stroke="#ff7c00" />
<path d="M2042,690.000h8" stroke="#ff7c00" />
<path d="M2042,464.000h8" stroke="#ff7c00" />
<path d="M2042,238.000h8" stroke="#ff7c00" />
<path d="M2042,181.000h8" stroke="#023eff" />
<path d="M2042,125.000h8" stroke="#1ac938" />
<path d="M2042,68.000h8" stroke="#1ac938" />
<path d="M2242,812.000h8" stroke="#ff7c00" />
<path d="M2242,755.000h8" stroke="#8b2be2" />
<path d="M2242,699.000h8" stroke="#8b2be2" />
<path d="M2242,642.000h8" stroke="#f14cc1" />
<path d="M2242,586.000h8" stroke="#023eff" />
<path d="M2242,134.000h8" stroke="#ff7c00" />
<path d="M2242,78.000h8" stroke="#023eff" />
<path d="M2442,821.000h8" stroke="#1ac938" />
<path d="M2442,708.000h8" stroke="#ff7c00" />
<path d="M2442,595.000h8" stroke="#8b2be2" />
<path d="M2442,482.000h8" stroke="#ff7c00" />
<path d="M2442,426.000h8" stroke="#023eff" />
<path d="M2442,370.000h8" stroke="#1ac938" />
<path d="M2442,313.000h8" stroke="#1ac938" />
<path d="M2442,257.000h8" stroke="#ff7c00" />
<path d="M2642,831.000h8" stroke="#ff7c00" />
<path d="M2642,774.000h8" stroke="#023eff" />
<path d="M2642,718.000h8" stroke="#1ac938" />
<path d="M2642,605.000h8" stroke="#ff7c00" />
<path d="M2642,492.000h8" stroke="#8b2be2" />
<path d="M2642,379.000h8" stroke="#ff7c00" />
<path d="M2642,322.000h8" stroke="#023eff" />
<path d="M2642,266.000h8" stroke="#1ac938" />
<path d="M2642,210.000h8" stroke="#1ac938" />
<path d="M2642,153.000h8" stroke="#ff7c00" />
<path d="M2842,727.000h8" stroke="#ff7c00" />
<path d="M2842,671.000h8" stroke="#023eff" />
<path d="M2842,614.000h8" stroke="#1ac938" />
<path d="M2842,558.000h8" stroke="#1ac938" />
<path d="M2842,501.000h8" stroke="#ff7c00" />
<path d="M2842,275.000h8" stroke="#ff7c00" />
<path d="M2842,219.000h8" stroke="#023eff" />
<path d="M2842,162.000h8" stroke="#1ac938" />
<path d="M2842,106.000h8" stroke="#1ac938" />
<path d="M3042,850.000h8" stroke="#ff7c00" />
<path d="M3042,624.000h8" stroke="#023eff" />
<path d="M3042,398.000h8" stroke="#ff7c00" />
<path d="M3042,172.000h8" stroke="#ff7c00" />
<path d="M3042,115.000h8" stroke="#023eff" />
<path d="M3042,59.000h8" stroke="#1ac938" />
<path d="M3242,802.000h8" stroke="#1ac938" />
<path d="M3242,746.000h8" stroke="#ff7c00" />
<path d="M3242,690.000h8" stroke="#8b2be2" />
<path d="M3242,633.000h8" stroke="#8b2be2" />
</g>
<g class="sync_line_layer">
<path d="M450,614h120" stroke="#606060" />
<path d="M850,633h120" stroke="#606060" />
<path d="M2250,134h120" stroke="#606060" />
<path d="M3050,850h120" stroke="#606060" />
</g>
<g class="line_layer">
<use href="#line_hold" x="110.0" y="144.0" b1="3.0" b2="4.4118" style="transform:scaleX(2.0) scaleY(11.3);transform-origin:110.0px 144.0px" />
<use href="#line_hold" x="330.0" y="50.0" b1="8.6471" b2="10" style="transform:scaleX(2.0) scaleY(10.8);transform-origin:330.0px 50.0px" />
<use href="#line_hold" x="530.0" y="840.0" b1="10" b2="10.0588" style="transform:scaleX(2.0) scaleY(0.5);transform-origin:530.0px 840.0px" />
<use href="#line_hold" x="450.0" y="50.0" b1="14.2941" b2="15" style="transform:scaleX(3.0) scaleY(5.6);transform-origin:450.0px 50.0px" />
<use href="#line_hold" x="650.0" y="737.0" b1="15" b2="15.7059" style="transform:scaleX(3.0) scaleY(5.65);transform-origin:650.0px 737.0px" />
<use href="#line_hold" x="710.0" y="50.0" b1="19.9412" b2="20" style="transform:scaleX(3.0) scaleY(0.45);transform-origin:710.0px 50.0px" />
<use href="#line_hold" x="910.0" y="633.0" b1="20" b2="21.3529" style="transform:scaleX(3.0) scaleY(10.85);transform-origin:910.0px 633.0px" />
<use href="#line_hold" x="850.0" y="181.0" b1="22.7647" b2="24.1765" style="transform:scaleX(2.0) scaleY(11.3);transform-origin:850.0px 181.0px" />
<use href="#line_hold" x="1110.0" y="530.0" b1="25.5882" b2="27.0" style="transform:scaleX(2.0) scaleY(11.25);transform-origin:1110.0px 530.0px" />
<use href="#line_hold" x="1070.0" y="78.0" b1="28.4118" b2="29.8235" style="transform:scaleX(2.0) scaleY(11.3);transform-origin:1070.0px 78.0px" />
<use href="#line_hold" x="1330.0" y="426.0" b1="31.2353" b2="32.6471" style="transform:scaleX(2.0) scaleY(11.3);transform-origin:1330.0px 426.0px" />
<use href="#line_hold" x="1670.0" y="219.0" b1="42.5294" b2="43.9412" style="transform:scaleX(2.0) scaleY(11.3);transform-origin:1670.0px 219.0px" />
<use href="#line_hold" x="1930.0" y="115.0" b1="48.1765" b2="49.5882" style="transform:scaleX(2.0) scaleY(11.3);transform-origin:1930.0px 115.0px" />
<use href="#line_hold" x="2050.0" y="50.0" b1="53.8235" b2="55" style="transform:scaleX(2.0) scaleY(9.4);transform-origin:2050.0px 50.0px" />
<use href="#line_hold" x="2250.0" y="586.0" b1="55" b2="56.6471" style="transform:scaleX(2.0) scaleY(13.2);transform-origin:2250.0px 586.0px" />
<use href="#line_hold" x="2310.0" y="50.0" b1="59.4706" b2="60" style="transform:scaleX(3.0) scaleY(4.2);transform-origin:2310.0px 50.0px" />
<use href="#line_hold" x="2510.0" y="821.0" b1="60" b2="60.1765" style="transform:scaleX(3.0) scaleY(1.45);transform-origin:2510.0px 821.0px" />
<use href="#line_hold" x="2450.0" y="257.0" b1="62.2941" b2="63.7059" style="transform:scaleX(3.0) scaleY(11.25);transform-origin:2450.0px 257.0px" />
<use href="#line_hold" x="2710.0" y="718.0" b1="65.1176" b2="65.8235" style="transform:scaleX(3.0) scaleY(5.65);transform-origin:2710.0px 718.0px" />
<use href="#line_hold" x="2650.0" y="153.0" b1="67.9412" b2="69.3529" style="transform:scaleX(3.0) scaleY(11.3);transform-origin:2650.0px 153.0px" />
<use href="#line_hold" x="2910.0" y="501.0" b1="70.7647" b2="72.1765" style="transform:scaleX(3.0) scaleY(11.3);transform-origin:2910.0px 501.0px" />
<use href="#line_hold" x="2850.0" y="50.0" b1="73.5882" b2="75" style="transform:scaleX(3.0) scaleY(11.25);transform-origin:2850.0px 50.0px" />
<use href="#line_hold" x="3110.0" y="50.0" b1="79.2353" b2="80" style="transform:scaleX(2.0) scaleY(6.1);transform-origin:3110.0px 50.0px" />
<use href="#line_hold" x="3310.0" y="633.0" b1="80" b2="81.3529" style="transform:scaleX(2.0) scaleY(10.85);transform-origin:3310.0px 633.0px" />
<use href="#sound" x="1680.0" y="322.0" />
<use href="#sound" x="2260.0" y="802.0" />
<use href="#sound" x="2470.0" y="360.0" />
<use href="#sound" x="2670.0" y="256.0" />
<use href="#sound" x="2930.0" y="604.0" />
<use href="#sound" x="2870.0" y="152.0" />
<use href="#sound" x="3120.0" y="49.0" />
<use href="#sound" x="3320.0" y="736.0" />
</g>
<g class="note_layer">
<use href="#normal" x="50.0" y="817.0" style="transform:scaleX(2.0);transform-origin:50.0px 817.0px" />
<use href="#hold" x="110.0" y="366.0" style="transform:scaleX(2.0);transform-origin:110.0px 366.0px" />
<use href="#hold" x="110.0" y="140.0" style="transform:scaleX(2.0);transform-origin:110.0px 140.0px" />
<use href="#normal" x="270.0" y="714.0" style="transform:scaleX(2.0);transform-origin:270.0px 714.0px" />
<use href="#hold" x="330.0" y="262.0" style="transform:scaleX(2.0);transform-origin:330.0px 262.0px" />
<use href="#hold" x="530.0" y="836.0" style="transform:scaleX(2.0);transform-origin:530.0px 836.0px" />
<use href="#critical" x="450.0" y="610.0" style="transform:scaleX(3.0);transform-origin:450.0px 610.0px" />
<use href="#normal" x="510.0" y="384.0" style="transform:scaleX(3.0);transform-origin:510.0px 384.0px" />
<use href="#critical" x="450.0" y="158.0" style="transform:scaleX(3.0);transform-origin:450.0px 158.0px" />
<use href="#hold" x="650.0" y="733.0" style="transform:scaleX(3.0);transform-origin:650.0px 733.0px" />
<use href="#critical" x="710.0" y="507.0" style="transform:scaleX(3.0);transform-origin:710.0px 507.0px" />
<use href="#normal" x="650.0" y="281.0" style="transform:scaleX(3.0);transform-origin:650.0px 281.0px" />
<use href="#critical" x="710.0" y="55.0" style="transform:scaleX(3.0);transform-origin:710.0px 55.0px" />
<use href="#hold" x="910.0" y="629.0" style="transform:scaleX(3.0);transform-origin:910.0px 629.0px" />
<use href="#hold" x="850.0" y="403.0" style="transform:scaleX(2.0);transform-origin:850.0px 403.0px" />
<use href="#hold" x="850.0" y="177.0" style="transform:scaleX(2.0);transform-origin:850.0px 177.0px" />
<use href="#hold" x="1110.0" y="751.0" style="transform:scaleX(2.0);transform-origin:1110.0px 751.0px" />
<use href="#hold" x="1110.0" y="526.0" style="transform:scaleX(2.0);transform-origin:1110.0px 526.0px" />
<use href="#hold" x="1070.0" y="300.0" style="transform:scaleX(2.0);transform-origin:1070.0px 300.0px" />
<use href="#hold" x="1070.0" y="74.0" style="transform:scaleX(2.0);transform-origin:1070.0px 74.0px" />
<use href="#hold" x="1330.0" y="648.0" style="transform:scaleX(2.0);transform-origin:1330.0px 648.0px" />
<use href="#hold" x="1330.0" y="422.0" style="transform:scaleX(2.0);transform-origin:1330.0px 422.0px" />
<use href="#normal" x="1250.0" y="196.0" style="transform:scaleX(2.0);transform-origin:1250.0px 196.0px" />
<use href="#normal" x="1510.0" y="770.0" style="transform:scaleX(2.0);transform-origin:1510.0px 770.0px" />
<use href="#normal" x="1470.0" y="544.0" style="transform:scaleX(2.0);transform-origin:1470.0px 544.0px" />
<use href="#normal" x="1530.0" y="318.0" style="transform:scaleX(2.0);transform-origin:1530.0px 318.0px" />
<use href="#normal" x="1470.0" y="93.0" style="transform:scaleX(2.0);transform-origin:1470.0px 93.0px" />
<use href="#normal" x="1710.0" y="667.0" style="transform:scaleX(2.0);transform-origin:1710.0px 667.0px" />
<use href="#hold" x="1670.0" y="441.0" style="transform:scaleX(2.0);transform-origin:1670.0px 441.0px" />
<use href="#hold" x="1670.0" y="215.0" style="transform:scaleX(2.0);transform-origin:1670.0px 215.0px" />
<use href="#normal" x="1930.0" y="789.0" style="transform:scaleX(2.0);transform-origin:1930.0px 789.0px" />
<use href="#normal" x="1870.0" y="563.0" style="transform:scaleX(2.0);transform-origin:1870.0px 563.0px" />
<use href="#hold" x="1930.0" y="337.0" style="transform:scaleX(2.0);transform-origin:1930.0px 337.0px" />
<use href="#hold" x="1930.0" y="111.0" style="transform:scaleX(2.0);transform-origin:1930.0px 111.0px" />
<use href="#normal" x="2050.0" y="686.0" style="transform:scaleX(2.0);transform-origin:2050.0px 686.0px" />
<use href="#normal" x="2110.0" y="460.0" style="transform:scaleX(2.0);transform-origin:2110.0px 460.0px" />
<use href="#hold" x="2050.0" y="234.0" style="transform:scaleX(2.0);transform-origin:2050.0px 234.0px" />
<use href="#hold" x="2250.0" y="582.0" style="transform:scaleX(2.0);transform-origin:2250.0px 582.0px" />
<use href="#critical" x="2310.0" y="130.0" style="transform:scaleX(3.0);transform-origin:2310.0px 130.0px" />
<use href="#hold" x="2510.0" y="817.0" style="transform:scaleX(3.0);transform-origin:2510.0px 817.0px" />
<use href="#normal" x="2450.0" y="704.0" style="transform:scaleX(3.0);transform-origin:2450.0px 704.0px" />
<use href="#normal" x="2510.0" y="591.0" style="transform:scaleX(3.0);transform-origin:2510.0px 591.0px" />
<use href="#critical" x="2450.0" y="478.0" style="transform:scaleX(3.0);transform-origin:2450.0px 478.0px" />
<use href="#hold" x="2450.0" y="253.0" style="transform:scaleX(3.0);transform-origin:2450.0px 253.0px" />
<use href="#critical" x="2710.0" y="827.0" style="transform:scaleX(3.0);transform-origin:2710.0px 827.0px" />
<use href="#hold" x="2710.0" y="714.0" style="transform:scaleX(3.0);transform-origin:2710.0px 714.0px" />
<use href="#normal" x="2650.0" y="601.0" style="transform:scaleX(3.0);transform-origin:2650.0px 601.0px" />
<use href="#normal" x="2710.0" y="488.0" style="transform:scaleX(3.0);transform-origin:2710.0px 488.0px" />
<use href="#critical" x="2650.0" y="375.0" style="transform:scaleX(3.0);transform-origin:2650.0px 375.0px" />
<use href="#hold" x="2650.0" y="149.0" style="transform:scaleX(3.0);transform-origin:2650.0px 149.0px" />
<use href="#critical" x="2910.0" y="723.0" style="transform:scaleX(3.0);transform-origin:2910.0px 723.0px" />
<use href="#hold" x="2910.0" y="497.0" style="transform:scaleX(3.0);transform-origin:2910.0px 497.0px" />
<use href="#critical" x="2850.0" y="271.0" style="transform:scaleX(3.0);transform-origin:2850.0px 271.0px" />
<use href="#hold" x="3050.0" y="846.0" style="transform:scaleX(3.0);transform-origin:3050.0px 846.0px" />
<use href="#hold" x="2850.0" y="46.0" style="transform:scaleX(3.0);transform-origin:2850.0px 46.0px" />
<use href="#critical" x="3130.0" y="620.0" style="transform:scaleX(2.0);transform-origin:3130.0px 620.0px" />
<use href="#normal" x="3070.0" y="394.0" style="transform:scaleX(2.0);transform-origin:3070.0px 394.0px" />
<use href="#critical" x="3110.0" y="168.0" style="transform:scaleX(2.0);transform-origin:3110.0px 168.0px" />
<use href="#hold" x="3310.0" y="629.0" style="transform:scaleX(2.0);transform-origin:3310.0px 629.0px" />
</g>
<g class="arrow_layer">
</g>
<g class="split_layer">
<path d="M2850,850 V210" stroke="rgba(100%,100%,100%,50.0%)" stroke-width="3" />
<path d="M2910.0,850 V210" stroke="rgba(100%,100%,100%,50.0%)" stroke-width="3" />
<path d="M2970.0,850 V210" stroke="rgba(100%,100%,100%,50.0%)" stroke-width="3" />
<path d="M2248.5,134.0v160.0h3v-160.0z" fill="url(#split_fadein_0)" />
<path d="M2308.5,134.0v160.0h3v-160.0z" fill="url(#split_fadein_1)" />
<path d="M2368.5,134.0v160.0h3v-160.0z" fill="url(#split_fadein_1)" />
<path d="M2848.5,50.0v160.0h3v-160.0z" fill="url(#split_fadeout_0)" />
<path d="M2908.5,50.0v160.0h3v-160.0z" fill="url(#split_fadeout_1)" />
<path d="M2968.5,50.0v160.0h3v-160.0z" fill="url(#split_fadeout_1)" />
<path d="M2650,850 V50" stroke="rgba(100%,100%,100%,50.0%)" stroke-width="3" />
<path d="M2710.0,850 V50" stroke="rgba(100%,100%,100%,50.0%)" stroke-width="3" />
<path d="M2770.0,850 V50" stroke="rgba(100%,100%,100%,50.0%)" stroke-width="3" />
<path d="M2450,850 V50" stroke="rgba(100%,100%,100%,50.0%)" stroke-width="3" />
<path d="M2510.0,850 V50" stroke="rgba(100%,100%,100%,50.0%)" stroke-width="3" />
<path d="M2570.0,850 V50" stroke="rgba(100%,100%,100%,50.0%)" stroke-width="3" />
<path d="M2250,134 V50" stroke="rgba(100%,100%,100%,50.0%)" stroke-width="3" />
<path d="M2310.0,134 V50" stroke="rgba(100%,100%,100%,50.0%)" stroke-width="3" />
<path d="M2370.0,134 V50" stroke="rgba(100%,100%,100%,50.0%)" stroke-width="3" />
<path d="M850,850 V793" stroke="rgba(100%,100%,100%,50.0%)" stroke-width="3" />
<path d="M910.0,850 V793" stroke="rgba(100%,100%,100%,50.0%)" stroke-width="3" />
<path d="M970.0,850 V793" stroke="rgba(100%,100%,100%,50.0%)" stroke-width="3" />
<path d="M448.5,614.0v160.0h3v-160.0z" fill="url(#split_fadein_1)" />
<path d="M508.5,614.0v160.0h3v-160.0z" fill="url(#split_fadein_1)" />
<path d="M568.5,614.0v160.0h3v-160.0z" fill="url(#split_fadein_1)" />
<path d="M848.5,633.0v160.0h3v-160.0z" fill="url(#split_fadeout_1)" />
<path d="M908.5,633.0v160.0h3v-160.0z" fill="url(#split_fadeout_1)" />
<path d="M968.5,633.0v160.0h3v-160.0z" fill="url(#split_fadeout_1)" />
<path d="M650,850 V50" stroke="rgba(100%,100%,100%,50.0%)" stroke-width="3" />
<path d="M710.0,850 V50" stroke="rgba(100%,100%,100%,50.0%)" stroke-width="3" />
<path d="M770.0,850 V50" stroke="rgba(100%,100%,100%,50.0%)" stroke-width="3" />
<path d="M450,614 V50" stroke="rgba(100%,100%,100%,50.0%)" stroke-width="3" />
<path d="M510.0,614 V50" stroke="rgba(100%,100%,100%,50.0%)" stroke-width="3" />
<path d="M570.0,614 V50" stroke="rgba(100%,100%,100%,50.0%)" stroke-width="3" />
<defs>
<linearGradient id="split_fadein_id" x2="0" y1="100%" y2="0">color</linearGradient>
<linearGradient id="split_fadeout_id" x2="0" y2="100%">color</linearGradient>
<clipPath id="split_fadeout_clip"><rect x="50" y="50" width="3300" height="800" /></clipPath>
</defs>
</g>
<g class="text_mark_layer">
<text class="second_mark" x="175" y="850.0">seconds</text>
<text class="second_mark" x="175" y="690.0">1</text>
<text class="second_mark" x="175" y="530.0">2</text>
<text class="second_mark" x="175" y="370.0">3</text>
<text class="second_mark" x="175" y="210.0">4</text>
<text class="second_mark" x="375" y="850.0">5</text>
<text class="second_mark" x="375" y="690.0">6</text>
<text class="second_mark" x="375" y="530.0">7</text>
<text class="second_mark" x="375" y="370.0">8</text>
<text class="second_mark" x="375" y="210.0">9</text>
<text class="second_mark" x="575" y="850.0">10</text>
<text class="second_mark" x="575" y="690.0">11</text>
<text class="second_mark" x="575" y="530.0">12</text>
<text class="second_mark" x="575" y="370.0">13</text>
<text class="second_mark" x="575" y="210.0">14</text>
<text class="second_mark" x="775" y="850.0">15</text>
<text class="second_mark" x="775" y="690.0">16</text>
<text class="second_mark" x="775" y="530.0">17</text>
<text class="second_mark" x="775" y="370.0">18</text>
<text class="second_mark" x="775" y="210.0">19</text>
<text class="second_mark" x="975" y="850.0">20</text>
<text class="second_mark" x="975" y="690.0">21</text>
<text class="second_mark" x="975" y="530.0">22</text>
<text class="second_mark" x="975" y="370.0">23</text>
<text class="second_mark" x="975" y="210.0">24</text>
<text class="second_mark" x="1175" y="850.0">25</text>
<text class="second_mark" x="1175" y="690.0">26</text>
<text class="second_mark" x="1175" y="530.0">27</text>
<text class="second_mark" x="1175" y="370.0">28</text>
<text class="second_mark" x="1175" y="210.0">29</text>
<text class="second_mark" x="1375" y="850.0">30</text>
<text class="second_mark" x="1375" y="690.0">31</text>
<text class="second_mark" x="1375" y="530.0">32</text>
<text class="second_mark" x="1375" y="370.0">33</text>
<text class="second_mark" x="1375" y="210.0">34</text>
<text class="second_mark" x="1575" y="850.0">35</text>
<text class="second_mark" x="1575" y="690.0">36</text>
<text class="second_mark" x="1575" y="530.0">37</text>
<text class="second_mark" x="1575" y="370.0">38</text>
<text class="second_mark" x="1575" y="210.0">39</text>
<text class="second_mark" x="1775" y="850.0">40</text>
<text class="second_mark" x="1775" y="690.0">41</text>
<text class="second_mark" x="1775" y="530.0">42</text>
<text class="second_mark" x="1775" y="370.0">43</text>
<text class="second_mark" x="1775" y="210.0">44</text>
<text class="second_mark" x="1975" y="850.0">45</text>
<text class="second_mark" x="1975" y="690.0">46</text>
<text class="second_mark" x="1975" y="530.0">47</text>
<text class="second_mark" x="1975" y="370.0">48</text>
<text class="second_mark" x="1975" y="210.0">49</text>
<text class="second_mark" x="2175" y="850.0">50</text>
<text class="second_mark" x="2175" y="690.0">51</text>
<text class="second_mark" x="2175" y="530.0">52</text>
<text class="second_mark" x="2175" y="370.0">53</text>
<text class="second_mark" x="2175" y="210.0">54</text>
<text class="second_mark" x="2375" y="850.0">55</text>
<text class="second_mark" x="2375" y="690.0">56</text>
<text class="second_mark" x="2375" y="530.0">57</text>
<text class="second_mark" x="2375" y="370.0">58</text>
<text class="second_mark" x="2375" y="210.0">59</text>
<text class="second_mark" x="2575" y="850.0">60</text>
<text class="second_mark" x="2575" y="690.0">61</text>
<text class="second_mark" x="2575" y="530.0">62</text>
<text class="second_mark" x="2575" y="370.0">63</text>
<text class="second_mark" x="2575" y="210.0">64</text>
<text class="second_mark" x="2775" y="850.0">65</text>
<text class="second_mark" x="2775" y="690.0">66</text>
<text class="second_mark" x="2775" y="530.0">67</text>
<text class="second_mark" x="2775" y="370.0">68</text>
<text class="second_mark" x="2775" y="210.0">69</text>
<text class="second_mark" x="2975" y="850.0">70</text>
<text class="second_mark" x="2975" y="690.0">71</text>
<text class="second_mark" x="2975" y="530.0">72</text>
<text class="second_mark" x="2975" y="370.0">73</text>
<text class="second_mark" x="2975" y="210.0">74</text>
<text class="second_mark" x="3175" y="850.0">75</text>
<text class="second_mark" x="3175" y="690.0">76</text>
<text class="second_mark" x="3175" y="530.0">77</text>
<text class="second_mark" x="3175" y="370.0">78</text>
<text class="second_mark" x="3175" y="210.0">79</text>
<text class="second_mark" x="3375" y="850.0">80</text>
<text class="second_mark" x="3375" y="690.0">81</text>
<text class="second_mark" x="3375" y="530.0">82</text>
<text class="split_mark" text-anchor="end" x="30" y="801" style="fill:#fee300">BPM:</text>
<text class="split_mark" text-anchor="end" x="30" y="811" style="fill:#fee300">85.0</text>
<text class="split_mark" text-anchor="end" x="40" y="824" style="fill:#023eff">0</text>
<text class="split_mark" text-anchor="end" x="40" y="373" style="fill:#023eff">1/1</text>
<text class="split_mark" text-anchor="end" x="40" y="316" style="fill:#8b2be2">1/8</text>
<text class="split_mark" text-anchor="end" x="40" y="260" style="fill:#8b2be2">1/8</text>
<text class="split_mark" text-anchor="end" x="40" y="203" style="fill:#8b2be2">1/8</text>
<text class="split_mark" text-anchor="end" x="40" y="147" style="fill:#8b2be2">1/8</text>
<text class="split_mark" text-anchor="end" x="240" y="721" style="fill:#ff7c00">1/2</text>
<text class="split_mark" text-anchor="end" x="240" y="269" style="fill:#023eff">1/1</text>
<text class="split_mark" text-anchor="end" x="240" y="213" style="fill:#8b2be2">1/8</text>
<text class="split_mark" text-anchor="end" x="240" y="156" style="fill:#8b2be2">1/8</text>
<text class="split_mark" text-anchor="end" x="240" y="100" style="fill:#8b2be2">1/8</text>
<text class="split_mark" text-anchor="end" x="440" y="843" style="fill:#8b2be2">1/8</text>
<text class="split_mark" text-anchor="end" x="440" y="617" style="fill:#ff7c00">1/2</text>
<text class="split_mark" text-anchor="end" x="440" y="391" style="fill:#ff7c00">1/2</text>
<text class="split_mark" text-anchor="end" x="440" y="165" style="fill:#ff7c00">1/2</text>
<text class="split_mark" text-anchor="end" x="440" y="109" style="fill:#8b2be2">1/8</text>
<text class="split_mark" text-anchor="end" x="640" y="853" style="fill:#8b2be2">1/8</text>
<text class="split_mark" text-anchor="end" x="640" y="796" style="fill:#8b2be2">1/8</text>
<text class="split_mark" text-anchor="end" x="640" y="740" style="fill:#8b2be2">1/8</text>
<text class="split_mark" text-anchor="end" x="640" y="514" style="fill:#ff7c00">1/2</text>
<text class="split_mark" text-anchor="end" x="640" y="288" style="fill:#ff7c00">1/2</text>
<text class="split_mark" text-anchor="end" x="640" y="62" style="fill:#ff7c00">1/2</text>
<text class="split_mark" text-anchor="end" x="840" y="805" style="fill:#8b2be2">1/8</text>
<text class="split_mark" text-anchor="end" x="840" y="749" style="fill:#8b2be2">1/8</text>
<text class="split_mark" text-anchor="end" x="840" y="693" style="fill:#8b2be2">1/8</text>
<text class="split_mark" text-anchor="end" x="840" y="636" style="fill:#8b2be2">1/8</text>
<text class="split_mark" text-anchor="end" x="840" y="410" style="fill:#ff7c00">1/2</text>
<text class="split_mark" text-anchor="end" x="840" y="354" style="fill:#8b2be2">1/8</text>
<text class="split_mark" text-anchor="end" x="840" y="297" style="fill:#8b2be2">1/8</text>
<text class="split_mark" text-anchor="end" x="840" y="241" style="fill:#8b2be2">1/8</text>
<text class="split_mark" text-anchor="end" x="840" y="184" style="fill:#8b2be2">1/8</text>
<text class="split_mark" text-anchor="end" x="1040" y="758" style="fill:#ff7c00">1/2</text>
<text class="split_mark" text-anchor="end" x="1040" y="702" style="fill:#8b2be2">1/8</text>
<text class="split_mark" text-anchor="end" x="1040" y="645" style="fill:#8b2be2">1/8</text>
<text class="split_mark" text-anchor="end" x="1040" y="589" style="fill:#8b2be2">1/8</text>
<text class="split_mark" text-anchor="end" x="1040" y="533" style="fill:#8b2be2">1/8</text>
<text class="split_mark" text-anchor="end" x="1040" y="307" style="fill:#ff7c00">1/2</text>
<text class="split_mark" text-anchor="end" x="1040" y="250" style="fill:#8b2be2">1/8</text>
<text class="split_mark" text-anchor="end" x="1040" y="194" style="fill:#8b2be2">1/8</text>
<text class="split_mark" text-anchor="end" x="1040" y="137" style="fill:#8b2be2">1/8</text>
<text class="split_mark" text-anchor="end" x="1040" y="81" style="fill:#8b2be2">1/8</text>
<text class="split_mark" text-anchor="end" x="1240" y="655" style="fill:#ff7c00">1/2</text>
<text class="split_mark" text-anchor="end" x="1240" y="598" style="fill:#8b2be2">1/8</text>
<text class="split_mark" text-anchor="end" x="1240" y="542" style="fill:#8b2be2">1/8</text>
<text class="split_mark" text-anchor="end" x="1240" y="485" style="fill:#8b2be2">1/8</text>
<text class="split_mark" text-anchor="end" x="1240" y="429" style="fill:#8b2be2">1/8</text>
<text class="split_mark" text-anchor="end" x="1240" y="203" style="fill:#ff7c00">1/2</text>
<text class="split_mark" text-anchor="end" x="1440" y="777" style="fill:#ff7c00">1/2</text>
<text class="split_mark" text-anchor="end" x="1440" y="551" style="fill:#ff7c00">1/2</text>
<text class="split_mark" text-anchor="end" x="1440" y="325" style="fill:#ff7c00">1/2</text>
<text class="split_mark" text-anchor="end" x="1440" y="100" style="fill:#ff7c00">1/2</text>
<text class="split_mark" text-anchor="end" x="1640" y="674" style="fill:#ff7c00">1/2</text>
<text class="split_mark" text-anchor="end" x="1640" y="448" style="fill:#ff7c00">1/2</text>
<text class="split_mark" text-anchor="end" x="1640" y="391" style="fill:#8b2be2">1/8</text>
<text class="split_mark" text-anchor="end" x="1640" y="335" style="fill:#8b2be2">1/8</text>
<text class="split_mark" text-anchor="end" x="1640" y="278" style="fill:#8b2be2">1/8</text>
<text class="split_mark" text-anchor="end" x="1640" y="222" style="fill:#8b2be2">1/8</text>
<text class="split_mark" text-anchor="end" x="1840" y="796" style="fill:#ff7c00">1/2</text>
<text class="split_mark" text-anchor="end" x="1840" y="570" style="fill:#ff7c00">1/2</text>
<text class="split_mark" text-anchor="end" x="1840" y="344" style="fill:#ff7c00">1/2</text>
<text class="split_mark" text-anchor="end" x="1840" y="288" style="fill:#8b2be2">1/8</text>
<text class="split_mark" text-anchor="end" x="1840" y="231" style="fill:#8b2be2">1/8</text>
<text class="split_mark" text-anchor="end" x="1840" y="175" style="fill:#8b2be2">1/8</text>
<text class="split_mark" text-anchor="end" x="1840" y="118" style="fill:#8b2be2">1/8</text>
<text class="split_mark" text-anchor="end" x="2040" y="693" style="fill:#ff7c00">1/2</text>
<text class="split_mark" text-anchor="end" x="2040" y="467" style="fill:#ff7c00">1/2</text>
<text class="split_mark" text-anchor="end" x="2040" y="241" style="fill:#ff7c00">1/2</text>
<text class="split_mark" text-anchor="end" x="2040" y="184" style="fill:#8b2be2">1/8</text>
<text class="split_mark" text-anchor="end" x="2040" y="128" style="fill:#8b2be2">1/8</text>
<text class="split_mark" text-anchor="end" x="2040" y="71" style="fill:#8b2be2">1/8</text>
<text class="split_mark" text-anchor="end" x="2240" y="815" style="fill:#8b2be2">1/8</text>
<text class="split_mark" text-anchor="end" x="2240" y="758" style="fill:#8b2be2">1/8</text>
<text class="split_mark" text-anchor="end" x="2240" y="702" style="fill:#8b2be2">1/8</text>
<text class="split_mark" text-anchor="end" x="2240" y="645" style="fill:#8b2be2">1/8</text>
<text class="split_mark" text-anchor="end" x="2240" y="589" style="fill:#8b2be2">1/8</text>
<text class="split_mark" text-anchor="end" x="2240" y="137" style="fill:#023eff">1/1</text>
<text class="split_mark" text-anchor="end" x="2240" y="81" style="fill:#8b2be2">1/8</text>
<text class="split_mark" text-anchor="end" x="2440" y="824" style="fill:#8b2be2">1/8</text>
<text class="split_mark" text-anchor="end" x="2440" y="711" style="fill:#1ac938">1/4</text>
<text class="split_mark" text-anchor="end" x="2440" y="598" style="fill:#1ac938">1/4</text>
<text class="split_mark" text-anchor="end" x="2440" y="485" style="fill:#1ac938">1/4</text>
<text class="split_mark" text-anchor="end" x="2440" y="429" style="fill:#8b2be2">1/8</text>
<text class="split_mark" text-anchor="end" x="2440" y="373" style="fill:#8b2be2">1/8</text>
<text class="split_mark" text-anchor="end" x="2440" y="316" style="fill:#8b2be2">1/8</text>
<text class="split_mark" text-anchor="end" x="2440" y="260" style="fill:#8b2be2">1/8</text>
<text class="split_mark" text-anchor="end" x="2640" y="834" style="fill:#ff7c00">1/2</text>
<text class="split_mark" text-anchor="end" x="2640" y="777" style="fill:#8b2be2">1/8</text>
<text class="split_mark" text-anchor="end" x="2640" y="721" style="fill:#8b2be2">1/8</text>
<text class="split_mark" text-anchor="end" x="2640" y="608" style="fill:#1ac938">1/4</text>
<text class="split_mark" text-anchor="end" x="2640" y="495" style="fill:#1ac938">1/4</text>
<text class="split_mark" text-anchor="end" x="2640" y="382" style="fill:#1ac938">1/4</text>
<text class="split_mark" text-anchor="end" x="2640" y="325" style="fill:#8b2be2">1/8</text>
<text class="split_mark" text-anchor="end" x="2640" y="269" style="fill:#8b2be2">1/8</text>
<text class="split_mark" text-anchor="end" x="2640" y="213" style="fill:#8b2be2">1/8</text>
<text class="split_mark" text-anchor="end" x="2640" y="156" style="fill:#8b2be2">1/8</text>
<text class="split_mark" text-anchor="end" x="2840" y="730" style="fill:#ff7c00">1/2</text>
<text class="split_mark" text-anchor="end" x="2840" y="674" style="fill:#8b2be2">1/8</text>
<text class="split_mark" text-anchor="end" x="2840" y="617" style="fill:#8b2be2">1/8</text>
<text class="split_mark" text-anchor="end" x="2840" y="561" style="fill:#8b2be2">1/8</text>
<text class="split_mark" text-anchor="end" x="2840" y="504" style="fill:#8b2be2">1/8</text>
<text class="split_mark" text-anchor="end" x="2840" y="278" style="fill:#ff7c00">1/2</text>
<text class="split_mark" text-anchor="end" x="2840" y="222" style="fill:#8b2be2">1/8</text>
<text class="split_mark" text-anchor="end" x="2840" y="165" style="fill:#8b2be2">1/8</text>
<text class="split_mark" text-anchor="end" x="2840" y="109" style="fill:#8b2be2">1/8</text>
<text class="split_mark" text-anchor="end" x="3040" y="853" style="fill:#8b2be2">1/8</text>
<text class="split_mark" text-anchor="end" x="3040" y="627" style="fill:#ff7c00">1/2</text>
<text class="split_mark" text-anchor="end" x="3040" y="401" style="fill:#ff7c00">1/2</text>
<text class="split_mark" text-anchor="end" x="3040" y="175" style="fill:#ff7c00">1/2</text>
<text class="split_mark" text-anchor="end" x="3040" y="118" style="fill:#8b2be2">1/8</text>
<text class="split_mark" text-anchor="end" x="3040" y="62" style="fill:#8b2be2">1/8</text>
<text class="split_mark" text-anchor="end" x="3240" y="805" style="fill:#8b2be2">1/8</text>
<text class="split_mark" text-anchor="end" x="3240" y="749" style="fill:#8b2be2">1/8</text>
<text class="split_mark" text-anchor="end" x="3240" y="693" style="fill:#8b2be2">1/8</text>
<text class="split_mark" text-anchor="end" x="3240" y="636" style="fill:#8b2be2">1/8</text>
</g>
</svg>